<?xml version="1.0" encoding="utf-8"?>
<!-- Generator: Adobe Illustrator 14.0.0, SVG Export Plug-In . SVG Version: 6.00 Build 43363)  -->
<!DOCTYPE svg PUBLIC "-//W3C//DTD SVG 1.1 Tiny//EN" "http://www.w3.org/Graphics/SVG/1.1/DTD/svg11-tiny.dtd">
<svg version="1.1" baseProfile="tiny" xmlns="http://www.w3.org/2000/svg" xmlns:xlink="http://www.w3.org/1999/xlink" x="0px"
	 y="0px" width="90.946px" height="23.895px" viewBox="160.583 -0.396 90.946 23.895" xml:space="preserve">
<g id="レイヤー_1" display="none">
	<path display="inline" fill="#F7F9F9" d="M7.669,19.107L6.925,19.66c-0.527-1.104-1.417-2.832-2.304-4.369
		c-0.479,2.666-1.584,5.064-3.697,7.082l-0.647-0.625c2.952-2.783,3.815-6.359,3.815-10.44V0.627h0.864v10.681
		c0,0.959-0.049,1.895-0.145,2.786C5.869,15.797,7.021,17.885,7.669,19.107z M2.533,5.211c-0.217,2.304-0.648,4.896-1.368,6.336
		l-0.769-0.24c0.792-1.464,1.248-3.984,1.393-6.192L2.533,5.211z M8.196,4.515c-0.504,1.56-1.319,3.792-2.184,5.737L5.412,9.964
		c0.863-1.968,1.632-4.225,2.04-5.737L8.196,4.515z M10.141,16.947c-0.433,1.992-1.368,4.152-2.593,5.377L6.78,21.893
		c1.271-1.201,2.185-3.264,2.568-5.16L10.141,16.947z M8.965,8.14c-0.168,0.312-0.384,0.6-0.575,0.864L7.669,8.572
		c1.752-2.329,2.81-4.945,3.359-7.921l0.815,0.096c-0.144,0.792-0.336,1.536-0.552,2.28h2.855h0.145h0.12l0.575,0.096
		c-0.695,5.544-2.951,9.602-6.479,11.93l-0.624-0.625c1.656-1.031,3-2.447,4.057-4.201C11.148,9.532,10.166,8.835,8.965,8.14z
		 M12.276,9.604c0.359-0.672,0.672-1.392,0.912-2.16c-0.744-0.624-1.704-1.2-2.88-1.776c-0.288,0.648-0.624,1.296-0.983,1.92
		C10.501,8.26,11.484,8.932,12.276,9.604z M13.43,6.724c0.264-0.912,0.479-1.896,0.647-2.929h-3.023
		c-0.145,0.432-0.313,0.864-0.48,1.272C11.702,5.619,12.662,6.171,13.43,6.724z M12.781,17.02c0.528,1.752,0.816,3.313,0.889,4.656
		l-0.889,0.168c-0.023-1.344-0.264-2.904-0.768-4.584L12.781,17.02z M22.502,14.5l-0.647,0.721
		c-1.656-1.271-2.855-3.625-3.553-7.489c-0.575,3.24-1.752,5.665-4.32,7.344l-0.647-0.625c2.81-1.799,3.913-4.487,4.346-8.255
		h-2.642V5.38h2.735c0.12-1.44,0.191-3.024,0.216-4.752l0.841,0.024c-0.023,1.704-0.097,3.288-0.217,4.729h3.528v0.816h-3.266
		C19.454,10.612,20.702,13.252,22.502,14.5z M16.142,16.973c0.815,1.728,1.319,3.265,1.561,4.607l-0.815,0.24
		c-0.217-1.344-0.696-2.904-1.44-4.584L16.142,16.973z M19.478,16.42c1.368,2.016,2.328,3.936,2.903,5.592l-0.84,0.313
		c-0.527-1.68-1.464-3.576-2.784-5.568L19.478,16.42z M20.222,0.987c0.911,1.032,1.56,2.016,1.943,2.952l-0.672,0.288
		c-0.385-0.912-0.984-1.872-1.824-2.904L20.222,0.987z"/>
	<path display="inline" fill="#F7F9F9" d="M31.068,8.668c-0.72-2.16-1.464-4.152-2.231-5.809l0.96-0.408
		c0.769,1.728,1.513,3.744,2.208,5.88c2.399-0.792,4.775-1.536,6.576-1.896c-0.647-1.44-1.969-3.577-2.929-4.705l0.841-0.456
		c1.031,1.224,2.399,3.6,3.048,4.993c0.384-0.048,0.72-0.072,1.031-0.072c3.648,0,5.521,1.584,5.521,4.92
		c0,2.736-1.848,4.561-5.208,4.561c-0.96,0-2.184-0.145-3.384-0.504l0.071-0.938c1.2,0.385,2.353,0.529,3.265,0.529
		c2.784,0,4.296-1.439,4.296-3.673c0-2.712-1.487-3.96-4.655-3.96c-1.656,0-4.873,0.936-8.186,2.088
		c1.368,4.176,2.544,8.689,3.216,12.313L34.5,21.748c-0.624-3.576-1.8-8.088-3.12-12.217c-1.943,0.696-3.89,1.416-5.544,2.04
		l-0.336-0.96C27.156,10.036,29.125,9.34,31.068,8.668z"/>
	<path display="inline" fill="#F7F9F9" d="M51.301,6.339c0.792,0.024,1.633,0.048,2.568,0.048c2.521,0,5.424-0.096,8.207-0.312
		c-0.526-1.536-0.936-3.144-1.15-4.656l1.009-0.12c0.19,1.512,0.575,3.121,1.128,4.705c2.545-0.192,4.944-0.48,6.745-0.864
		l0.19,0.912c-1.801,0.36-4.129,0.624-6.625,0.84c1.08,2.88,2.616,5.543,4.345,7.202l-0.743,0.84
		c-2.904-1.176-5.688-1.824-8.544-1.824c-3.072,0-4.777,1.416-4.777,3.527c0,2.81,2.855,4.129,8.497,4.129
		c0.961,0,2.017-0.047,3.145-0.119l-0.021,0.937c-1.08,0.096-2.138,0.119-3.072,0.119c-6.36,0-9.528-1.752-9.528-5.136
		c0-2.616,2.279-4.321,5.617-4.321c2.76,0,5.4,0.553,7.872,1.44c-1.368-1.44-2.761-3.959-3.769-6.722
		c-2.929,0.216-6,0.312-8.712,0.312c-0.816,0-1.633,0-2.376-0.024V6.339H51.301z"/>
	<path display="inline" fill="#F7F9F9" d="M80.244,5.019c0.385-1.416,0.672-2.736,0.863-3.84l1.009,0.12
		c-0.191,1.08-0.479,2.353-0.863,3.72h4.704v0.912h-4.969c-1.151,3.913-2.929,8.377-4.873,11.184l-0.888-0.525
		c1.92-2.664,3.624-6.89,4.729-10.658h-4.199V5.02L80.244,5.019L80.244,5.019z M90.062,8.5c-0.023,0.504-0.023,1.368-0.023,2.328
		c0,1.584,0,3.576,0.023,5.064c1.655,0.672,3.289,1.655,4.584,2.688l-0.623,0.721c-1.152-0.984-2.545-1.85-3.961-2.473v0.936
		c0,2.496-1.32,3.865-4.177,3.865c-2.713,0-4.536-1.537-4.536-3.289c0-2.016,1.729-3.336,4.536-3.336
		c1.031,0,2.137,0.191,3.217,0.553c0-1.44,0-3.24,0-4.729c0-0.96,0-1.824,0-2.328H90.062L90.062,8.5z M85.885,15.844
		c-2.306,0-3.673,0.961-3.673,2.496c0,1.32,1.633,2.424,3.602,2.424c2.279,0,3.312-0.981,3.312-3c0-0.312,0-0.768,0-1.32
		C88.021,16.061,86.916,15.844,85.885,15.844z M94.621,8.14c-1.367-1.008-4.104-2.568-5.977-3.312l0.479-0.792
		c1.992,0.864,4.513,2.28,6,3.312L94.621,8.14z"/>
	<path display="inline" fill="#F7F9F9" d="M101.916,4.347c-0.145,1.848-0.217,3.696-0.217,5.208c0,5.953,2.328,9.914,4.177,9.914
		c1.226,0,2.209-1.992,2.931-4.752l0.862,0.359c-0.937,3.336-2.063,5.447-3.744,5.447c-2.399,0-5.208-4.345-5.208-10.92
		c0-1.56,0.049-3.432,0.168-5.328L101.916,4.347z M114.949,3.939c3.384,3.265,4.632,7.153,4.775,12.385l-1.057,0.098
		c-0.07-5.065-1.318-8.906-4.514-11.882L114.949,3.939z"/>
</g>
<g id="レイヤー_2" display="none">
	<g display="inline">
		<path fill="#FFFFFF" d="M-7.377,2.604H8.519l0.15-0.075l1.7,1.3c-0.075,0.1-0.15,0.175-0.3,0.225
			C8.044,13.451,3.696,18.35-3.953,21.248c-0.275-0.449-0.774-1.1-1.125-1.475C2.196,17.1,6.395,12.451,8.019,4.329H-7.377V2.604z
			 M11.669-1.871c1.5,0,2.724,1.225,2.724,2.75c0,1.5-1.225,2.725-2.724,2.725c-1.525,0-2.75-1.225-2.75-2.725
			C8.919-0.695,10.194-1.871,11.669-1.871z M13.568,0.879c0-1.074-0.85-1.925-1.899-1.925S9.744-0.195,9.744,0.879
			c0,1.05,0.875,1.924,1.925,1.924C12.768,2.803,13.568,1.879,13.568,0.879z"/>
		<path fill="#FFFFFF" d="M35.044,7.703c-0.05,0.101-0.175,0.2-0.325,0.25c-2.049,7.547-6.223,11.221-13.696,13.295
			c-0.225-0.449-0.7-1.074-1.05-1.449C26.771,18.1,30.994,14.6,32.569,8.802H16.023v-1.7h17.296l0.25-0.149L35.044,7.703z
			 M32.694,2.354H18.448v-1.65h14.247V2.354z"/>
		<path fill="#FFFFFF" d="M50.946,14.176c0.6,1.174,1.399,2.199,2.374,3.074c1.625-0.775,3.625-1.926,4.824-2.799l1.5,1.1
			c-0.101,0.125-0.325,0.174-0.551,0.125c-1.225,0.748-3.123,1.725-4.698,2.449c1.8,1.299,4.049,2.174,6.698,2.648
			c-0.349,0.324-0.75,0.949-0.974,1.375c-5.148-1.074-8.798-3.674-10.723-7.848c-1.024,0.799-2.299,1.549-3.674,2.225l0.375,0.074
			c-0.025,0.15-0.176,0.275-0.5,0.301v3.049c1.949-0.201,4.1-0.451,6.198-0.699l0.05,1.299c-3.474,0.475-7.148,0.924-9.447,1.199
			c-0.025,0.201-0.15,0.326-0.325,0.375l-0.75-1.725l2.649-0.275v-2.848c-1.724,0.699-3.549,1.273-5.224,1.648
			c-0.2-0.375-0.625-0.975-0.975-1.273c3.25-0.625,7.023-1.9,9.522-3.475h-9.123v-1.4h10.373v-1.874l2.199,0.15
			c-0.025,0.176-0.175,0.301-0.5,0.35v1.374h10.499v1.4H50.946z M43.823,6.303V4.878h-5.749V3.604h5.749V1.929h-3.074
			c-0.325,0.6-0.65,1.149-0.975,1.6c-0.275-0.175-0.775-0.45-1.149-0.601c0.75-0.975,1.424-2.499,1.875-3.974l1.674,0.524
			c-0.075,0.176-0.25,0.226-0.475,0.201c-0.125,0.324-0.25,0.674-0.4,1.023h2.524v-1.849l1.949,0.124
			c-0.024,0.176-0.149,0.301-0.475,0.351v1.374h4.599v1.226h-4.599v1.675h5.573v1.274h-5.573v1.425h4.749v3.148
			c0,1.401-0.775,1.426-3,1.426c-0.074-0.375-0.324-0.826-0.475-1.151h1.35c0.575,0,0.625,0,0.625-0.275V7.477h-3.249v4.2h-1.475
			v-4.2h-3.074v3.526h-1.375v-4.7H43.823z M54.245,0.155c-0.025,0.149-0.15,0.274-0.476,0.324v8.473h-1.55V0.004L54.245,0.155z
			 M60.193-0.771c-0.024,0.176-0.149,0.301-0.475,0.351V9.653c0,1.7-0.475,1.848-4.523,1.848c-0.075-0.424-0.325-1.024-0.55-1.424
			c0.825,0.025,1.6,0.051,2.175,0.051c1.199,0,1.35,0,1.35-0.475V-0.871L60.193-0.771z"/>
		<path fill="#FFFFFF" d="M67.472,14.676c-1.175,0.75-2.399,1.449-3.624,2.049c-0.225-0.4-0.648-1.025-0.975-1.375
			c4.325-2,8.647-5.422,10.647-8.373l2.476,0.15c-0.051,0.176-0.25,0.301-0.5,0.325c2.424,2.874,6.897,5.999,10.747,7.598
			c-0.375,0.398-0.801,1.023-1.074,1.498c-1.201-0.574-2.475-1.273-3.726-2.074v7.523h-1.699v-0.775H69.123v0.9h-1.65V14.676z
			 M65.624,2.954v2.924h-1.625V1.405h9.522v-2.55l2.226,0.149c-0.025,0.176-0.176,0.301-0.5,0.325v2.075h9.673v4.473h-1.701V2.954
			H65.624z M72.173,5.053c-0.102,0.15-0.276,0.225-0.55,0.225c-1.625,1.925-4.15,3.924-6.425,5.174
			c-0.25-0.324-0.773-0.949-1.1-1.225c2.176-1.125,4.649-2.999,6.149-4.924L72.173,5.053z M80.194,13.65
			c-2.273-1.574-4.398-3.349-5.773-5.023c-1.224,1.6-3.173,3.398-5.448,5.023H80.194z M69.123,19.699h10.622v-4.523H69.123V19.699z
			 M83.394,10.402c-1.375-1.475-4.249-3.649-6.624-5.124l1.125-1c2.375,1.4,5.3,3.5,6.749,4.975L83.394,10.402z"/>
		<path fill="#FFFFFF" d="M110.793,10.477h-7.297c1.975,1.824,5.023,3.324,7.998,4.048c-0.375,0.35-0.826,0.949-1.074,1.375
			c-0.602-0.176-1.176-0.35-1.775-0.576v6.75h-1.549v-0.9h-4.924v1h-1.5v-8.248h5.023c-1.674-0.949-3.174-2.15-4.299-3.449h-3.898
			c-1.201,1.324-2.676,2.474-4.4,3.449h5.1v8.148h-1.574v-0.9h-4.824v1h-1.5v-6.898c-0.549,0.225-1.1,0.449-1.674,0.65
			c-0.201-0.352-0.725-0.977-1.051-1.25c3.049-1.025,5.674-2.426,7.648-4.199h-7.098V8.952h8.547
			c0.525-0.624,0.951-1.299,1.324-1.999h-8.047V0.03h8.123v6.773l0.225-0.5l2,0.574c-0.051,0.15-0.25,0.25-0.576,0.275
			c-0.299,0.625-0.623,1.225-1.023,1.799h12.096V10.477z M96.447,5.553V1.429h-4.949v4.124H96.447z M96.623,19.699V15.4h-4.824
			v4.299H96.623z M109.094,0.03v6.923h-8.172V0.03H109.094z M102.172,19.699h4.924V15.4h-4.924V19.699z M107.469,5.553V1.429h-4.998
			v4.124H107.469z"/>
		<path fill="#FFFFFF" d="M118.072,18.898c0,1.051,0.525,1.301,3.275,1.301h9.873c2.324,0,2.699-0.551,2.924-3.5
			c0.449,0.25,1.15,0.525,1.625,0.6c-0.35,3.625-1.051,4.5-4.549,4.5h-9.748c-3.898,0-5.049-0.525-5.049-2.875v-6.598h8.848V7.778
			h-8.572V6.579c-0.85,1.148-1.75,2.174-2.676,3.049c-0.299-0.325-0.924-0.85-1.35-1.125c2.525-2.199,4.975-5.974,6.424-9.772
			l2.1,0.7c-0.049,0.174-0.275,0.274-0.549,0.25c-0.301,0.725-0.65,1.475-1.025,2.199h13.621l0.949,0.05
			c-0.199,1.374-0.049,11.846-1.324,13.372c-0.523,0.699-1.074,0.85-2.824,0.85c-0.65,0-1.424-0.025-2.225-0.076
			c-0.025-0.5-0.199-1.174-0.475-1.6c1.375,0.102,2.625,0.125,3.1,0.125c0.449,0,0.725-0.049,0.924-0.324
			c0.576-0.676,0.826-3.323,1.051-10.772h-13.697c-0.549,0.95-1.125,1.874-1.75,2.725h9.998v7.622h-8.898V18.898z"/>
		<path fill="#FFFFFF" d="M150.947,13.801c0.674,1.199,1.549,2.299,2.598,3.225c1.525-0.727,3.426-1.85,4.549-2.699l1.5,1.1
			c-0.1,0.125-0.299,0.174-0.525,0.125c-1.148,0.674-2.973,1.648-4.473,2.348c1.824,1.352,4.049,2.35,6.549,2.9
			c-0.352,0.35-0.775,0.975-0.975,1.4c-4.949-1.301-8.773-4.225-10.873-8.398h-0.051c-1.023,0.924-2.324,1.799-3.748,2.574
			l0.525,0.1c-0.025,0.176-0.176,0.301-0.5,0.35v3l6.473-0.801l0.051,1.301c-3.824,0.549-7.924,1.125-10.473,1.449
			c0,0.199-0.15,0.301-0.326,0.35l-0.648-1.725c0.949-0.1,2.074-0.225,3.299-0.375v-2.85c-1.699,0.801-3.5,1.426-5.148,1.85
			c-0.227-0.398-0.65-0.975-0.975-1.273c3.199-0.725,6.896-2.199,9.322-3.949h-8.973v-1.375h10.422v-2.224l2.174,0.15
			c-0.023,0.175-0.148,0.3-0.475,0.35v1.724h10.547v1.375H150.947z M137.849,7.928c1.324-0.451,3.174-1.176,5.1-1.926l0.299,1.301
			c-1.625,0.674-3.25,1.35-4.324,1.773c0,0.201-0.1,0.326-0.25,0.4L137.849,7.928z M139.648,0.429c1.125,0.726,2.5,1.8,3.125,2.624
			l-1.025,1.025c-0.625-0.8-1.975-1.949-3.1-2.725L139.648,0.429z M145.773-0.996c-0.025,0.15-0.15,0.275-0.5,0.325v11.423h-1.576
			V-1.145L145.773-0.996z M152.795,8.352V4.003h-6.273V2.629h6.273v-3.774l2.176,0.149c-0.025,0.176-0.176,0.301-0.5,0.35v3.275
			h6.398v1.374h-6.398v4.349h5.598v1.375h-12.746V8.352H152.795z"/>
	</g>
</g>
<g id="レイヤー_3" display="none">
	<g display="inline">
		<path fill="#FFFFFF" d="M10.457,12.826c1.899-2,5.849-6.398,7.273-7.923c0.649-0.649,1.299-0.949,1.949-0.949
			c0.675,0,1.35,0.35,2.024,0.949c3.225,2.949,8.423,8.724,12.197,13.623l-1.5,1.375C28.853,14.977,23.629,9.052,20.83,6.454
			c-0.425-0.4-0.75-0.625-1.075-0.625c-0.325,0-0.625,0.25-1.025,0.625c-1.175,1.273-4.824,5.473-6.499,7.273
			c0.025,0.049,0.025,0.125,0.025,0.174c0,0.201-0.1,0.4-0.25,0.525L10.457,12.826z M29.403,0.155c1.525,0,2.774,1.25,2.774,2.799
			c0,1.55-1.25,2.8-2.774,2.8c-1.575,0-2.824-1.25-2.824-2.8C26.578,1.354,27.878,0.155,29.403,0.155z M31.352,2.954
			c0-1.1-0.875-1.999-1.95-1.999c-1.1,0-2,0.899-2,1.999c0,1.075,0.9,1.975,2,1.975C30.528,4.928,31.352,3.979,31.352,2.954z"/>
		<path fill="#FFFFFF" d="M38.306,7.178c0.75,1.524,1.575,3.924,1.875,5.373l-1.399,0.375c-0.3-1.449-1.075-3.724-1.825-5.324
			L38.306,7.178z M53.227,7.353c-0.049,0.225-0.299,0.274-0.524,0.249c-1.949,7.298-5.624,11.773-11.672,14.222
			c-0.2-0.301-0.65-0.875-0.975-1.15c5.974-2.35,9.398-6.447,11.222-13.896L53.227,7.353z M44.38,5.978
			c0.525,1.675,1,4.074,1.175,5.674l-1.475,0.274c-0.15-1.6-0.625-3.898-1.175-5.623L44.38,5.978z"/>
		<path fill="#FFFFFF" d="M71.453,13.775c-2.55-1.375-6.049-2.999-8.772-4.074v12.498h-1.875V0.479l2.524,0.15
			c-0.024,0.275-0.226,0.45-0.649,0.525v7.298l0.375-0.524c2.924,1.074,6.798,2.799,9.396,4.173L71.453,13.775z"/>
		<path fill="#FFFFFF" d="M83.206,11.452c-1.125,2.923-2.773,5.5-4.699,7.398L77.057,17.9c1.875-1.75,3.5-4.148,4.523-7.048
			L83.206,11.452z M88.555,7.602v11.822c0,2.725-1.926,2.725-5.924,2.725c-0.101-0.449-0.301-1.174-0.551-1.674
			C82.805,20.5,83.606,20.5,84.28,20.5h1.45c0.7,0,1.024-0.451,1.024-1.051V7.602h-8.498V5.928h8.498V0.729l2.375,0.125
			c-0.025,0.25-0.2,0.426-0.574,0.475v4.6h8.447v1.674H88.555z M93.028,10.677c1.824,2.024,3.924,4.948,5.273,7.272l-1.6,0.926
			c-1.225-2.299-3.424-5.498-5.098-7.423L93.028,10.677z M92.729,0.504c1.125,1,2.398,2.524,3.123,3.649l-0.949,0.725
			c-0.725-1.1-2.049-2.724-3.125-3.624L92.729,0.504z M96.327-0.621c1.15,1.025,2.451,2.525,3.15,3.625l-0.949,0.75
			c-0.727-1.101-2.076-2.675-3.125-3.625L96.327-0.621z"/>
		<path fill="#FFFFFF" d="M116.202,13.775c-2.549-1.375-6.047-2.999-8.771-4.074v12.498h-1.875V0.479l2.523,0.15
			c-0.023,0.275-0.225,0.45-0.648,0.525v7.298l0.375-0.524c2.924,1.074,6.797,2.799,9.396,4.173L116.202,13.775z"/>
		<path fill="#FFFFFF" d="M127.555,4.403c-0.025,0.226-0.25,0.375-0.574,0.426c-0.15,6.723-0.701,12.847-4.549,17.32
			c-0.4-0.299-1-0.674-1.5-0.949c3.725-4.049,4.174-10.297,4.248-17.021L127.555,4.403z M134.028,18.799
			c4.176-2.023,6.875-5.672,8.324-10.046c0.375,0.325,1.125,0.75,1.549,0.975c-1.773,5.048-4.873,8.773-10.197,11.296
			c-0.074,0.201-0.25,0.4-0.424,0.5l-1.301-1.648l0.275-0.375V1.155l2.324,0.125c-0.025,0.225-0.199,0.424-0.551,0.475V18.799z"/>
	</g>
</g>
<g id="レイヤー_4" display="none">
	<g display="inline">
		<path fill="#FFFFFF" d="M30.968,15.275l2.999-1.074c0.075,0.324,0.15,0.675,0.3,1.475c-2.649,1.074-5.423,2.174-7.198,2.85
			c-0.025,0.199-0.15,0.35-0.3,0.399l-0.85-1.899c0.95-0.301,2.149-0.725,3.449-1.175V7.502h-3.024v-1.6h3.024V-0.07l2.099,0.15
			c-0.025,0.174-0.175,0.274-0.5,0.324v5.498h2.824v1.6h-2.824V15.275z M42.115,20.524h7.198v1.55H32.542v-1.55h7.923v-3.724h-5.999
			v-1.575h5.999v-2.849h-5.674V0.904h13.197v11.473h-5.874v2.849h6.198v1.575h-6.198V20.524z M36.391,2.379v3.523h4.074V2.379
			H36.391z M36.391,10.902h4.074v-3.6h-4.074V10.902z M46.339,5.902V2.379h-4.224v3.523H46.339z M46.339,10.902v-3.6h-4.224v3.6
			H46.339z"/>
		<path fill="#FFFFFF" d="M51.344,20.125h22.669v1.674H51.344V20.125z M73.313,4.803v1.65H52.219v-1.65h9.522v-5.098l2.225,0.149
			c-0.025,0.175-0.15,0.3-0.5,0.351v4.598H73.313z M57.192,7.828c1.3,3.373,2.199,7.672,2.35,10.547
			c-0.175,0-0.35,0.025-1.725,0.375c-0.1-2.824-1-7.174-2.225-10.522L57.192,7.828z M70.364,8.152
			c-0.074,0.175-0.3,0.325-0.625,0.35c-0.75,3.299-2.148,8.174-3.324,10.923L64.916,19c1.1-2.85,2.374-7.873,3.024-11.373
			L70.364,8.152z"/>
		<path fill="#FFFFFF" d="M94.389,20.399c-2.199,0.399-5.124,0.575-7.674,0.575c-2.049,0-3.849-0.125-4.823-0.325
			c-3.024-0.675-4.324-2.574-4.324-4.774c0-1.874,1.05-3.824,2.55-5.323l1.449,0.75c-1.399,1.425-2.199,3.05-2.199,4.424
			c0,1.475,0.975,2.774,3.124,3.274c0.851,0.175,2.3,0.275,3.999,0.275c2.424,0,5.373-0.201,7.773-0.676L94.389,20.399z
			 M83.167,7.803c1.3-1.025,3.074-2.225,4.424-2.899V4.879c-1.899,0.225-6.248,0.299-9.022,0.299c0-0.475,0-1.299-0.024-1.749h1.35
			c3.199,0,9.747-0.05,12.896-0.8l0.199,1.824c-0.824,0.125-1.424,0.25-2.624,0.75c-1.399,0.574-3.823,1.924-5.773,3.499
			L83.167,7.803z M94.364,11.352c-0.725-1.1-2.274-2.6-3.35-3.398l0.825-0.775c1.2,0.875,2.649,2.324,3.425,3.374L94.364,11.352z
			 M96.989,8.977c-0.7-0.999-2.175-2.498-3.35-3.373l0.824-0.801c1.225,0.926,2.675,2.35,3.425,3.4L96.989,8.977z"/>
		<path fill="#FFFFFF" d="M120.364,6.928c-0.074,0.275-0.35,0.449-0.725,0.449c-0.275,1.725-0.676,3.55-1.1,5.1
			c1.35,0.574,2.773,1.225,4.199,1.949l-0.801,1.675c-1.35-0.675-2.648-1.325-3.924-1.874c-1.199,3.599-2.924,6.223-5.574,7.973
			c-0.35-0.35-0.975-0.775-1.424-1.05c2.625-1.725,4.248-4.074,5.398-7.648c-2.523-0.999-4.824-1.7-6.674-1.85
			c-1.725,6.299-3.273,7.948-6.273,7.948c-2.998,0-3.574-2.399-3.574-3.924c0-3.875,4.025-5.674,8.498-5.699
			c0.525-1.999,1-4.449,1.35-7.048c-1.174,0.101-5.174,0.375-7.072,0.5c-0.1,0.175-0.301,0.3-0.525,0.35l-0.225-2.024
			c2.148-0.074,6.799-0.375,8.297-0.525c0.275-0.024,0.375-0.149,0.551-0.274l1.549,0.925c-0.125,0.2-0.324,0.3-0.625,0.4
			c-0.398,2.773-0.998,5.648-1.549,7.798c1.924,0.149,4.225,0.825,6.723,1.774c0.426-1.5,0.801-3.424,1.076-5.449L120.364,6.928z
			 M107.991,11.552c-3.598,0.05-6.473,1.475-6.473,4.124c0,1.399,0.676,2.35,1.85,2.35C105.192,18.025,106.391,17.4,107.991,11.552z
			"/>
	</g>
</g>
<g id="レイヤー_5" display="none">
	<g display="inline">
		<path fill="#FFFFFF" d="M-20.276-0.596c-0.05,0.175-0.25,0.3-0.5,0.35c2.475,2.899,6.999,5.924,10.822,7.448
			c-0.375,0.4-0.775,1-1.05,1.475c-3.874-1.75-8.373-4.873-10.847-7.773C-24,3.628-28.199,6.802-32.473,8.853
			c-0.225-0.375-0.65-1-0.975-1.351c4.349-1.949,8.673-5.273,10.722-8.223L-20.276-0.596z M-21.301,15.275
			c0.625,0.975,1.425,1.824,2.375,2.574c1.95-1.05,4.399-2.574,5.849-3.749l1.549,1.175c-0.125,0.125-0.325,0.175-0.55,0.125
			c-1.45,1.024-3.674,2.324-5.599,3.299c2.025,1.226,4.524,2.024,7.398,2.45c-0.375,0.35-0.825,1.024-1.05,1.475
			c-5.399-0.975-9.523-3.35-11.697-7.349h-3.974v5.148c2.05-0.175,4.324-0.399,6.549-0.6v1.425
			c-3.824,0.425-7.923,0.85-10.397,1.074c-0.05,0.2-0.175,0.325-0.375,0.35l-0.625-1.85l3.199-0.274V6.728h5.949V3.679l2.199,0.125
			c-0.025,0.174-0.15,0.299-0.5,0.35v2.574h6.149v8.548H-21.301z M-16.527,8.103h-10.473v2.199h10.473V8.103z M-26.999,11.601v2.3
			h10.473v-2.3H-26.999z"/>
		<path fill="#FFFFFF" d="M-7.198,22.599V11.726h9.073v10.648H0.2v-1.025h-5.799v1.25H-7.198z M0.2,13.351h-5.799v6.373H0.2V13.351z
			 M9.773,0.278v8.799H-3.174V0.278H9.773z M8.073,7.478V1.903h-9.623v5.574H8.073z M4.55,11.726h9.372v10.673h-1.674v-1.075H6.174
			v1.25H4.55V11.726z M6.174,19.724h6.073v-6.373H6.174V19.724z"/>
		<path fill="#FFFFFF" d="M37.997,1.204v18.995c0,2.3-1.1,2.324-5.823,2.274c-0.075-0.425-0.35-1.175-0.6-1.625
			c0.925,0.025,1.824,0.051,2.549,0.051c2.075,0,2.2,0,2.2-0.7v-5.424h-7.198v7.599H27.5v-7.599h-6.573
			c-0.375,2.849-1.225,5.773-3.199,7.974c-0.25-0.326-0.899-0.9-1.274-1.125c2.799-3.149,3.074-7.648,3.074-11.223V1.204H37.997z
			 M21.177,10.401c0,0.875-0.025,1.8-0.101,2.774H27.5V8.802h-6.323V10.401z M27.5,2.804h-6.323v4.424H27.5V2.804z M36.323,7.228
			V2.804h-7.198v4.424H36.323z M29.125,13.176h7.198V8.802h-7.198V13.176z"/>
		<path fill="#FFFFFF" d="M56.774,19.175c0.999-0.025,3.674-0.125,5.248-0.375c0.025,0.549,0.05,1.25,0.101,1.799
			c-1.65,0.176-4.149,0.275-5.174,0.275H50.7c-3.773,0-5.599-1.65-5.599-5.224V1.079l2.449,0.149c-0.05,0.25-0.225,0.399-0.675,0.45
			v8.148c3.824-1.2,9.148-3.199,12.397-4.949l1.274,1.725c-0.075,0.05-0.2,0.074-0.3,0.074c-0.125,0-0.225-0.024-0.35-0.074
			c-3.024,1.524-8.723,3.624-13.022,4.924V15.7c0,2.524,1.225,3.475,3.8,3.475H56.774z M59.123,0.354
			c1.15,1.024,2.399,2.574,3.1,3.674l-0.95,0.725c-0.699-1.1-1.999-2.725-3.049-3.674L59.123,0.354z M62.197-1.146
			c1.125,1.024,2.399,2.549,3.1,3.648l-0.95,0.725c-0.699-1.1-2.024-2.699-3.049-3.648L62.197-1.146z"/>
		<path fill="#FFFFFF" d="M67.878,2.128c2.6,0.825,5.599,2.125,7.448,3.4l-0.95,1.574c-1.799-1.275-4.748-2.6-7.298-3.475
			L67.878,2.128z M67.778,19.449C76.65,16.7,82.55,11.726,85.549,4.803c0.524,0.425,1.1,0.75,1.624,1.024
			c-3.124,6.849-9.223,12.172-17.695,14.996c-0.025,0.226-0.175,0.476-0.35,0.576L67.778,19.449z"/>
		<path fill="#FFFFFF" d="M97.324,11.001c0,1.425-1.149,2.574-2.574,2.574s-2.574-1.149-2.574-2.574
			c0-1.424,1.149-2.574,2.574-2.574C96.224,8.427,97.324,9.626,97.324,11.001z"/>
		<path fill="#FFFFFF" d="M119.249,2.679c-0.05,0.125-0.175,0.225-0.325,0.274c-1.35,3.175-2.949,5.924-4.998,8.599
			c2.724,2.174,6.823,5.898,9.147,8.473l-1.524,1.324c-2.199-2.549-6.224-6.348-8.773-8.398c-2.199,2.675-5.998,6.324-9.622,8.398
			c-0.275-0.375-0.875-1-1.3-1.35C108.776,16.2,114.25,9.102,116.5,3.679h-12.272v-1.7h13.247l0.325-0.125L119.249,2.679z"/>
		<path fill="#FFFFFF" d="M146.823,10.852H138.1c-0.55,4.799-2.175,8.397-7.023,11.147c-0.375-0.4-0.975-0.875-1.399-1.2
			c4.499-2.449,6.123-5.548,6.648-9.947h-10.198V9.202h10.323c0.125-1.65,0.125-3.35,0.149-5.35
			c-2.549,0.575-5.849,1.125-8.598,1.426c-0.125-0.476-0.3-0.976-0.524-1.45c8.772-1.05,13.946-2.774,15.496-3.449l1.324,1.475
			c-0.1,0.05-0.2,0.075-0.325,0.075c-0.1,0-0.175,0-0.274-0.025c-1.399,0.525-3.624,1.175-5.599,1.65l0.824,0.074
			c-0.024,0.225-0.199,0.375-0.524,0.426c-0.025,1.874-0.05,3.573-0.15,5.148h8.573V10.852z"/>
		<path fill="#FFFFFF" d="M150.428,9.677h20.869v1.774h-19.92c-0.149,0.25-0.475,0.425-0.8,0.476L150.428,9.677z"/>
		<path fill="#FFFFFF" d="M180.902,4.028c-0.025,0.225-0.25,0.375-0.575,0.425c-0.15,6.724-0.7,12.847-4.549,17.321
			c-0.4-0.301-1-0.676-1.5-0.951c3.725-4.049,4.174-10.297,4.249-17.02L180.902,4.028z M187.375,18.425
			c4.175-2.025,6.874-5.674,8.323-10.048c0.375,0.325,1.125,0.75,1.55,0.975c-1.774,5.049-4.874,8.772-10.197,11.298
			c-0.075,0.199-0.25,0.399-0.425,0.5l-1.3-1.65l0.274-0.375V0.778l2.325,0.125c-0.025,0.226-0.2,0.426-0.551,0.476V18.425z"/>
		<path fill="#FFFFFF" d="M211.551,11.427V19.3h6.323v-6.249l2.199,0.149c-0.024,0.176-0.149,0.301-0.5,0.351v8.948h-1.699v-1.575
			h-14.121v1.7h-1.675v-9.573l2.175,0.149c-0.025,0.176-0.176,0.275-0.5,0.326V19.3h6.073v-7.873h-10.473v-1.65h10.473V4.228h-5.249
			c-0.85,1.95-1.899,3.675-3.049,4.949c-0.325-0.3-0.975-0.75-1.425-0.975c1.899-1.975,3.449-5.424,4.299-8.947l2.175,0.549
			c-0.05,0.176-0.226,0.275-0.525,0.275c-0.225,0.85-0.5,1.699-0.8,2.524h14.847v1.624h-8.548v5.549h10.622v1.65H211.551z"/>
	</g>
</g>
<g id="レイヤー_6" display="none">
	<g display="inline">
		<path fill="#FFFFFF" d="M33.217,19.351h-4.899v2.125h-1.475v-8.849c-0.525,1.125-1.15,2.124-1.825,2.999
			c-0.2-0.375-0.625-1.125-0.9-1.475c1.95-2.523,3.25-6.898,3.974-11.597h-3.324v-1.55h9.423v1.55h-4.499
			c-0.325,2.05-0.75,4.073-1.3,5.948h4.824V19.351z M31.717,17.851v-7.848h-3.399v7.848H31.717z M45.688,9.153l1.05,0.425
			c-0.05,0.149-0.125,0.225-0.2,0.3c-0.75,3.273-2.1,5.974-3.849,8.123c1.5,1.524,3.299,2.699,5.398,3.374
			c-0.4,0.325-0.85,0.95-1.1,1.374c-2.075-0.774-3.874-1.999-5.349-3.573c-1.475,1.524-3.149,2.699-4.949,3.549
			c-0.2-0.425-0.65-1.05-1-1.374c1.75-0.75,3.424-1.9,4.874-3.425c-1.425-1.874-2.524-4.124-3.299-6.624l1.399-0.374
			c0.65,2.149,1.625,4.149,2.95,5.823c1.325-1.674,2.374-3.699,3.024-6.023H36.64c-0.1,3.749-0.675,8.648-3.199,11.997
			c-0.25-0.325-0.925-0.874-1.274-1.05c2.599-3.499,2.874-8.423,2.874-12.021V3.079h5.249V-0.52l2.099,0.125
			c-0.025,0.175-0.15,0.3-0.5,0.35v3.124h4.949l0.9,0.051c0,0.149-0.65,3.199-1.375,5.174l-1.399-0.4
			c0.275-0.875,0.575-2.1,0.825-3.274h-3.899v4.599h3.524L45.688,9.153z M40.29,4.629H36.64v4.599h3.649V4.629z"/>
		<path fill="#FFFFFF" d="M59.116,2.354h-4.599c-0.325,2.074-0.725,4.124-1.25,6.049h4.824v10.697h-4.924V21.3h-1.5v-8.473
			c-0.399,0.85-0.85,1.625-1.35,2.324c-0.225-0.375-0.675-1.074-0.975-1.375c1.774-2.523,2.899-6.873,3.549-11.422h-3.199V0.78
			h9.422V2.354z M56.567,17.576V9.928h-3.399v7.648H56.567z M67.763,4.229h-3.148c-0.475,3.624-1.699,6.098-5.099,7.623
			c-0.2-0.375-0.65-0.925-0.975-1.199c2.924-1.275,4.048-3.3,4.524-6.424h-3.599V2.704h3.774c0.075-0.975,0.125-2.074,0.15-3.248
			l2.024,0.149c0,0.175-0.175,0.3-0.476,0.35c-0.024,0.976-0.074,1.899-0.149,2.749h4.549v5.499c0,0.774,0,0.925,0.575,0.925h0.824
			c0.925,0,0.925-0.074,1-2.774c0.3,0.25,0.8,0.524,1.199,0.649c-0.074,2.75-0.274,3.449-2.074,3.449h-1.274
			c-1.825,0-1.825-0.999-1.825-2.374V4.229z M66.764,10.178c-0.024,0.149-0.175,0.274-0.5,0.325v3.898h6.523v1.575h-6.523V22.7
			h-1.649v-6.724h-5.924v-1.575h5.924v-4.373L66.764,10.178z"/>
		<path fill="#FFFFFF" d="M79.492,9.478v8.248c1.949,3,5.648,3,9.947,3c2.875,0,6.374-0.075,8.449-0.2
			c-0.226,0.374-0.476,1.124-0.551,1.6c-1.725,0.05-4.498,0.1-7.023,0.1c-5.573,0-9.047,0-11.521-3.099
			c-1.1,1.125-2.275,2.225-3.199,3.099c0,0.2-0.051,0.274-0.225,0.375l-0.95-1.7c1.05-0.824,2.349-1.924,3.474-2.998v-6.824h-3.224
			v-1.6H79.492z M76.168,0.08c1.525,1.2,3.225,2.949,3.949,4.224l-1.399,0.975c-0.675-1.299-2.35-3.123-3.849-4.348L76.168,0.08z
			 M97.513,14.151v1.35H80.617v-1.35h4.674v-2.499h-3.648v-1.35h3.648V8.304l2.1,0.149c-0.025,0.175-0.175,0.3-0.5,0.325v1.524
			h4.225V8.304l2.1,0.149c-0.025,0.175-0.176,0.3-0.5,0.351v1.499h3.773v1.35h-3.773v2.499H97.513z M86.015,3.479v-1.75h-5.049
			V0.505h6.523v4.199h-4.449v1.375c0,0.475,0.125,0.574,0.926,0.574h2.85c0.6,0,0.725-0.15,0.773-1.299
			c0.301,0.225,0.875,0.375,1.275,0.475c-0.15,1.649-0.574,2.049-1.85,2.049h-3.174c-1.775,0-2.25-0.324-2.25-1.774V3.479H86.015z
			 M88.14,16.401c-0.125,0.199-0.325,0.225-0.525,0.175c-1.375,1.149-3.449,2.374-5.224,3.149c-0.274-0.301-0.8-0.775-1.149-1.025
			c1.75-0.674,3.824-1.824,5.099-3.023L88.14,16.401z M86.89,11.652v2.499h4.225v-2.499H86.89z M94.589,3.479v-1.75h-5.374V0.505
			h6.873v4.199h-4.723v1.375c0,0.475,0.149,0.574,1.049,0.574h3.125c0.649,0,0.774-0.15,0.824-1.399c0.325,0.2,0.9,0.375,1.3,0.476
			c-0.175,1.725-0.6,2.148-1.925,2.148h-3.449c-1.874,0-2.374-0.324-2.374-1.799v-2.6H94.589z M91.539,15.677
			c2.1,0.949,4.399,2.225,5.749,3.273l-1.649,0.775c-1.175-1.025-3.274-2.3-5.299-3.274L91.539,15.677z"/>
		<path fill="#FFFFFF" d="M109.741,11.853l0.351-0.025l0.874,0.1c0,0.176-0.024,0.351-0.024,0.551
			c-0.301,6.448-0.575,8.723-1.225,9.497c-0.551,0.625-0.975,0.7-2.775,0.7c-0.6,0-1.274,0-1.975-0.051
			c-0.049-0.475-0.225-1.1-0.449-1.499c1.274,0.125,2.524,0.125,2.949,0.125c0.449,0,0.675-0.05,0.875-0.274
			c0.475-0.5,0.75-2.449,0.975-7.599h-4.374c-0.575,3.425-1.7,6.998-4.249,9.272c-0.25-0.35-0.775-0.824-1.175-1.1
			c3.3-2.85,4.024-8.447,4.3-12.697h-2.85V0.63h9.947v8.223h-5.424c-0.1,0.926-0.175,1.95-0.324,3H109.741z M102.517,2.18v5.149
			h6.773V2.18H102.517z M113.615,2.53l2.125,0.125c-0.025,0.174-0.15,0.299-0.476,0.35v13.496h-1.649V2.53z M119.888-0.045
			l2.149,0.125c-0.024,0.2-0.149,0.3-0.475,0.351V20.4c0,1.2-0.351,1.725-1.1,1.999c-0.8,0.301-2.175,0.325-4.499,0.325
			c-0.1-0.45-0.375-1.225-0.65-1.7c0.926,0.025,1.775,0.025,2.475,0.025c2,0,2.1,0,2.1-0.649V-0.045z"/>
		<path fill="#FFFFFF" d="M142.888,20.175c-2.199,0.4-5.123,0.575-7.673,0.575c-2.05,0-3.849-0.125-4.823-0.325
			c-3.025-0.674-4.324-2.574-4.324-4.773c0-1.875,1.049-3.824,2.549-5.324l1.449,0.75c-1.398,1.425-2.199,3.05-2.199,4.424
			c0,1.475,0.975,2.775,3.125,3.274c0.85,0.175,2.299,0.275,3.998,0.275c2.425,0,5.374-0.2,7.773-0.675L142.888,20.175z
			 M131.666,7.578c1.301-1.024,3.074-2.224,4.424-2.899V4.654c-1.898,0.225-6.248,0.3-9.021,0.3c0-0.475,0-1.3-0.025-1.75h1.35
			c3.199,0,9.748-0.05,12.896-0.799l0.2,1.824c-0.825,0.125-1.425,0.25-2.624,0.75c-1.4,0.574-3.824,1.924-5.773,3.498
			L131.666,7.578z M142.863,11.128c-0.725-1.1-2.273-2.6-3.349-3.399l0.825-0.774c1.199,0.874,2.648,2.324,3.424,3.373
			L142.863,11.128z M145.488,8.753c-0.699-1-2.174-2.499-3.35-3.374l0.825-0.8c1.225,0.925,2.675,2.35,3.424,3.399L145.488,8.753z"
			/>
		<path fill="#FFFFFF" d="M168.863,6.704c-0.074,0.274-0.35,0.449-0.725,0.449c-0.274,1.725-0.675,3.549-1.1,5.1
			c1.35,0.574,2.774,1.225,4.199,1.949l-0.8,1.674c-1.35-0.674-2.649-1.324-3.924-1.874c-1.2,3.599-2.925,6.224-5.574,7.973
			c-0.35-0.35-0.975-0.774-1.425-1.05c2.625-1.725,4.249-4.074,5.399-7.648c-2.524-0.999-4.824-1.699-6.674-1.85
			c-1.725,6.299-3.274,7.949-6.273,7.949s-3.574-2.4-3.574-3.924c0-3.875,4.024-5.674,8.498-5.699c0.524-2,1-4.449,1.35-7.049
			c-1.175,0.101-5.174,0.375-7.073,0.5c-0.1,0.176-0.3,0.301-0.524,0.35l-0.226-2.023c2.149-0.075,6.799-0.375,8.298-0.525
			c0.275-0.025,0.375-0.15,0.55-0.275l1.55,0.926c-0.125,0.199-0.325,0.299-0.625,0.399c-0.399,2.774-0.999,5.648-1.549,7.798
			c1.924,0.15,4.224,0.825,6.723,1.775c0.425-1.5,0.8-3.425,1.075-5.449L168.863,6.704z M156.491,11.327
			c-3.599,0.051-6.473,1.475-6.473,4.125c0,1.398,0.675,2.349,1.85,2.349C153.692,17.801,154.891,17.176,156.491,11.327z"/>
	</g>
</g>
<g id="レイヤー_7" display="none">
	<g display="inline">
		<path fill="#FFFFFF" d="M58.508,10.964c0.875,0.825,3.174,3.324,3.725,3.975l-1.051,1.375c-0.5-0.801-1.699-2.35-2.674-3.524
			v9.598h-1.6V12.39c-0.975,2.549-2.274,5.123-3.549,6.673c-0.176-0.5-0.6-1.2-0.875-1.6c1.524-1.774,3.199-5.073,4.124-7.948h-3.8
			V7.94h4.1v-8.748l2.1,0.15c-0.025,0.174-0.176,0.274-0.5,0.324V7.94h3.725v1.574h-3.725V10.964z M54.209,0.991
			c0.774,1.7,1.375,3.925,1.5,5.35l-1.375,0.375c-0.1-1.45-0.676-3.699-1.4-5.398L54.209,0.991z M62.856,1.366
			c-0.05,0.15-0.225,0.25-0.524,0.25c-0.45,1.525-1.3,3.85-1.975,5.249c-0.275-0.1-0.925-0.35-1.175-0.425
			c0.649-1.475,1.425-3.949,1.825-5.648L62.856,1.366z M74.029,20.037h1.824v1.6H60.982v-1.6h2.699V0.392h10.348V20.037z
			 M72.354,1.991h-7.048V6.94h7.048V1.991z M72.354,13.438V8.49h-7.048v4.948H72.354z M65.306,14.988v5.049h7.048v-5.049H65.306z"/>
		<path fill="#FFFFFF" d="M100.404,8.265h-9.773c1.625,5.975,4.85,10.572,10.173,12.547c-0.425,0.375-0.976,1.075-1.25,1.575
			c-5.224-2.149-8.397-6.573-10.247-12.597c-1.15,4.948-3.875,9.848-10.322,12.621c-0.25-0.449-0.775-1.049-1.2-1.424
			c6.599-2.675,9.073-7.674,10.022-12.723h-9.647V6.54h9.923c0.324-2.6,0.299-5.148,0.324-7.322l2.35,0.125
			c-0.025,0.225-0.225,0.35-0.55,0.424c-0.024,1.975-0.05,4.324-0.351,6.773h10.549V8.265z"/>
		<path fill="#FFFFFF" d="M120.954,19.888c-2.199,0.399-5.124,0.574-7.673,0.574c-2.05,0-3.85-0.125-4.824-0.324
			c-3.023-0.676-4.324-2.574-4.324-4.774c0-1.874,1.051-3.824,2.55-5.323l1.45,0.75c-1.4,1.424-2.199,3.049-2.199,4.424
			c0,1.475,0.975,2.773,3.123,3.273c0.851,0.176,2.3,0.275,4,0.275c2.424,0,5.373-0.2,7.772-0.675L120.954,19.888z M109.732,7.29
			c1.299-1.024,3.074-2.225,4.424-2.898V4.366c-1.9,0.225-6.248,0.3-9.023,0.3c0-0.476,0-1.3-0.024-1.749h1.35
			c3.199,0,9.747-0.051,12.896-0.801l0.2,1.824c-0.824,0.125-1.425,0.25-2.625,0.75c-1.398,0.575-3.823,1.925-5.773,3.5
			L109.732,7.29z M120.929,10.839c-0.725-1.1-2.275-2.599-3.35-3.398l0.824-0.775c1.2,0.875,2.65,2.324,3.425,3.375L120.929,10.839z
			 M123.553,8.465c-0.7-0.999-2.175-2.499-3.349-3.374l0.824-0.8c1.225,0.925,2.674,2.35,3.424,3.399L123.553,8.465z"/>
		<path fill="#FFFFFF" d="M146.928,6.415c-0.074,0.275-0.35,0.45-0.725,0.45c-0.274,1.725-0.675,3.55-1.1,5.099
			c1.35,0.575,2.774,1.225,4.199,1.949l-0.8,1.676c-1.35-0.676-2.649-1.325-3.924-1.875c-1.2,3.6-2.925,6.223-5.574,7.973
			c-0.35-0.35-0.975-0.774-1.425-1.049c2.625-1.725,4.249-4.074,5.399-7.648c-2.524-1-4.824-1.7-6.674-1.85
			c-1.725,6.299-3.274,7.947-6.273,7.947s-3.574-2.398-3.574-3.924c0-3.874,4.024-5.674,8.498-5.698c0.524-1.999,1-4.449,1.35-7.048
			c-1.175,0.1-5.174,0.375-7.073,0.5c-0.1,0.174-0.3,0.299-0.524,0.35l-0.226-2.025c2.149-0.074,6.799-0.375,8.298-0.524
			c0.275-0.024,0.375-0.149,0.55-0.274l1.55,0.924c-0.125,0.201-0.325,0.301-0.625,0.4c-0.399,2.774-0.999,5.648-1.549,7.799
			c1.924,0.149,4.224,0.824,6.723,1.773c0.425-1.499,0.8-3.424,1.075-5.448L146.928,6.415z M134.556,11.04
			c-3.599,0.049-6.473,1.475-6.473,4.123c0,1.4,0.675,2.35,1.85,2.35C131.758,17.513,132.957,16.888,134.556,11.04z"/>
	</g>
</g>
<g id="レイヤー_8" display="none">
	<g display="inline">
		<path fill="#FFFFFF" d="M27.521,5.883H13.675c-0.775,1.649-1.7,3.274-2.774,4.773h5.773V7.158l2.174,0.125
			c-0.025,0.175-0.15,0.3-0.5,0.35v3.023h7.798v8.248c0,1.95-1,2-5.299,1.95c-0.1-0.45-0.35-1.05-0.575-1.499
			c0.85,0.024,1.649,0.024,2.299,0.024h1.325c0.425-0.024,0.55-0.125,0.55-0.5v-6.599h-6.098v11.272h-1.675V12.281h-5.599v8.873H9.4
			v-8.598c-1.125,1.299-2.399,2.499-3.824,3.499c-0.225-0.399-0.7-1.05-1.025-1.425c3.124-2.149,5.523-5.324,7.223-8.748H5.276
			V4.258h7.249c0.575-1.325,1.025-2.649,1.399-3.974l2.2,0.575c-0.1,0.175-0.275,0.275-0.6,0.275
			c-0.325,1.025-0.7,2.075-1.125,3.124h13.122V5.883z"/>
		<path fill="#FFFFFF" d="M34.65,11.781V7.833c-1.125,1.599-2.599,3.099-3.974,3.924c-0.225-0.325-0.675-0.851-1-1.125
			c1.575-0.825,3.299-2.5,4.399-4.174h-4.024v-1.4h4.599V0.334l1.975,0.125c-0.025,0.15-0.15,0.275-0.475,0.325v4.274h4.549v1.4
			H36.15v0.35c1.024,0.6,3.974,2.524,4.674,3.075l-0.925,1.225c-0.7-0.625-2.475-2-3.749-2.9v3.574H34.65z M36.1,16.131
			c-0.025,0.399-0.1,0.824-0.175,1.225c1.549,1.074,3.424,2.524,4.449,3.424l-1.125,1.15c-0.825-0.825-2.375-2.075-3.799-3.125
			c-0.725,1.55-2.125,3.049-4.824,4.274c-0.2-0.375-0.625-0.976-0.925-1.274c3.674-1.65,4.624-3.725,4.849-5.674h-4.524v-1.5H34.6
			v-2.299l2.024,0.125c-0.025,0.174-0.15,0.299-0.475,0.35v1.824h4.648v1.5H36.1z M31.826,1.109c0.675,0.875,1.3,2.1,1.525,2.899
			l-1.275,0.55c-0.225-0.825-0.825-2.075-1.475-3L31.826,1.109z M37.4,4.108c0.525-0.85,1.175-2.199,1.5-3.099l1.725,0.65
			c-0.075,0.15-0.25,0.2-0.5,0.2c-0.4,0.8-1.05,1.975-1.6,2.75L37.4,4.108z M45.722,20.154c-0.075,0.1-0.225,0.176-0.45,0.2
			c-1,1.1-3.149,2.449-5.024,3.199c-0.25-0.325-0.75-0.85-1.125-1.124c1.875-0.726,3.974-2.025,4.974-3.125L45.722,20.154z
			 M41.749,5.608h3.399c0.225-0.8,0.45-1.75,0.625-2.575h-4.899v-1.5h12.122v1.5h-5.499c-0.175,0.75-0.45,1.725-0.75,2.575h5.349
			v13.146H41.749V5.608z M50.496,9.557V6.958h-7.198v2.599H50.496z M50.496,13.456v-2.599h-7.198v2.599H50.496z M50.496,17.405
			v-2.649h-7.198v2.649H50.496z M49.097,19.404c1.475,0.9,3.374,2.275,4.374,3.225c-0.15,0.1-0.3,0.2-1.324,0.925
			c-0.9-0.925-2.799-2.324-4.299-3.3L49.097,19.404z"/>
		<path fill="#FFFFFF" d="M62.698,11.906c0,1.425-1.15,2.574-2.574,2.574c-1.425,0-2.575-1.149-2.575-2.574
			c0-1.424,1.15-2.574,2.575-2.574C61.598,9.332,62.698,10.531,62.698,11.906z"/>
		<path fill="#FFFFFF" d="M70.801,17.506c2.125-0.375,4.524-0.825,6.873-1.25l0.101,1.449c-2.399,0.5-4.899,1-6.974,1.4v4.424h-1.6
			v-4.1l-1.074,0.225c-0.025,0.176-0.176,0.301-0.325,0.351l-0.675-1.899l2.074-0.325V2.284l1.25,0.425
			c2.174-0.675,4.523-1.55,5.849-2.399l1.624,1.3c-0.125,0.1-0.3,0.125-0.5,0.075c-1.6,0.825-4.224,1.725-6.623,2.375v2.999H76.8
			v1.6h-5.999v3.274h6.224v1.574h-6.224V17.506z M88.047,11.482l1.1,0.475c-0.05,0.125-0.125,0.199-0.225,0.25
			c-0.851,2.773-2.274,5.049-4.1,6.848c1.625,1.35,3.574,2.35,5.824,2.975c-0.375,0.375-0.851,1.024-1.101,1.475
			c-2.299-0.725-4.299-1.85-5.974-3.35c-1.849,1.525-4.049,2.649-6.348,3.399c-0.2-0.425-0.601-1.1-0.95-1.475
			c2.199-0.625,4.324-1.649,6.148-3.074c-1.399-1.575-2.499-3.425-3.274-5.549l1.225-0.35h-2.274v-1.55h9.648L88.047,11.482z
			 M81.174,2.884v2.299c0,2.075-0.476,4.599-2.925,6.274c-0.225-0.35-0.8-0.95-1.149-1.15c2.199-1.474,2.499-3.449,2.499-5.148
			V1.384h7.423v6.273c0,0.8,0.025,0.975,0.575,0.975h0.8c0.899,0,0.899-0.1,0.975-2.824c0.3,0.275,0.875,0.525,1.3,0.65
			c-0.05,1-0.125,2.125-0.25,2.5c-0.25,0.65-0.774,1.049-1.874,1.049h-1.275c-1.85,0-1.85-1.1-1.85-2.499V2.884H81.174z
			 M80.648,13.106c0.7,1.824,1.699,3.449,2.975,4.823c1.374-1.35,2.474-2.949,3.224-4.823H80.648z"/>
		<path fill="#FFFFFF" d="M99.425,11.981c-1.125,2.925-2.774,5.499-4.698,7.398l-1.45-0.95c1.875-1.749,3.499-4.148,4.524-7.048
			L99.425,11.981z M104.773,8.132v11.823c0,2.725-1.924,2.725-5.923,2.725c-0.101-0.451-0.301-1.176-0.551-1.676
			c0.726,0.025,1.525,0.025,2.2,0.025h1.449c0.7,0,1.025-0.449,1.025-1.05V8.132h-8.498V6.458h8.498V1.259l2.374,0.125
			c-0.025,0.25-0.2,0.425-0.575,0.475v4.599h8.448v1.674H104.773z M109.248,11.207c1.824,2.024,3.924,4.949,5.273,7.273l-1.6,0.924
			c-1.225-2.299-3.425-5.498-5.099-7.423L109.248,11.207z M108.947,1.034c1.125,1,2.399,2.524,3.125,3.649l-0.95,0.725
			c-0.725-1.1-2.05-2.724-3.124-3.624L108.947,1.034z M112.547-0.09c1.149,1.024,2.449,2.524,3.149,3.624l-0.95,0.75
			c-0.725-1.1-2.074-2.674-3.124-3.625L112.547-0.09z"/>
		<path fill="#FFFFFF" d="M118.052,10.582h20.87v1.774h-19.921c-0.149,0.25-0.475,0.425-0.8,0.476L118.052,10.582z"/>
		<path fill="#FFFFFF" d="M148.525,4.933c-0.025,0.225-0.25,0.375-0.575,0.425c-0.15,6.724-0.7,12.847-4.549,17.321
			c-0.4-0.301-1-0.676-1.5-0.951c3.725-4.049,4.175-10.297,4.249-17.02L148.525,4.933z M154.998,19.33
			c4.175-2.025,6.874-5.674,8.323-10.048c0.375,0.325,1.125,0.75,1.55,0.975c-1.774,5.049-4.874,8.772-10.197,11.298
			c-0.075,0.199-0.25,0.399-0.425,0.5l-1.3-1.65l0.274-0.375V1.684l2.325,0.125c-0.025,0.225-0.2,0.425-0.551,0.475V19.33z"/>
		<path fill="#FFFFFF" d="M174.698,11.906c0,1.425-1.149,2.574-2.574,2.574s-2.574-1.149-2.574-2.574
			c0-1.424,1.149-2.574,2.574-2.574C173.598,9.332,174.698,10.531,174.698,11.906z"/>
		<path fill="#FFFFFF" d="M186.05,15.23c0.925,0.65,3.55,2.774,4.174,3.324l-0.999,1.275c-0.575-0.65-2.05-2.025-3.175-3.024v6.724
			H184.4v-6.898c-1.199,1.975-2.749,3.824-4.148,4.924c-0.275-0.4-0.775-0.95-1.125-1.225c1.774-1.176,3.724-3.524,4.948-5.824
			h-4.474v-1.475h4.799v-2.649h-5.124V8.907h3.074c-0.125-1.075-0.55-2.649-1.074-3.849l1.35-0.375
			c0.575,1.25,1.05,2.874,1.175,3.949l-0.925,0.275h4.199c-0.325-0.125-0.675-0.25-0.7-0.25c0.5-1.1,1.1-2.849,1.399-4.049
			l1.899,0.6c-0.05,0.15-0.225,0.225-0.5,0.25c-0.35,0.975-0.949,2.425-1.449,3.449h3.649v1.475H186.3
			c-0.075,0.025-0.149,0.05-0.25,0.05v2.6h4.949v1.475h-4.949V15.23z M190.848,3.109v1.45h-11.072v-1.45h4.624V0.31l2.125,0.125
			c-0.025,0.175-0.15,0.3-0.476,0.35v2.325H190.848z M202.496,8.907v1.575h-2.949v13.047h-1.649V10.482h-3.949v0.924
			c0,3.75-0.475,8.698-4.074,12.172c-0.2-0.374-0.774-0.949-1.175-1.174c3.274-3.149,3.649-7.474,3.649-11.022V2.684l1.225,0.4
			c2.6-0.75,5.398-1.775,6.974-2.7l1.674,1.275c-0.074,0.075-0.25,0.125-0.524,0.075c-1.85,0.925-4.924,1.95-7.748,2.649v4.524
			H202.496z"/>
		<path fill="#FFFFFF" d="M214.649,9.633h-7.498v13.921h-1.65V1.409h9.148V9.633z M213.05,2.709h-5.898v2.125h5.898V2.709z
			 M207.151,8.333h5.898v-2.25h-5.898V8.333z M222.172,12.406h-1.924v10.548h-1.55v-2.1c-3.324,0.25-6.648,0.45-8.772,0.575
			c-0.025,0.199-0.2,0.299-0.351,0.324l-0.449-1.674l2.299-0.101v-7.573h-1.975v-1.274h12.722V12.406z M218.698,14.031v-1.625
			h-5.773v1.625H218.698z M218.698,16.83v-1.674h-5.773v1.674H218.698z M212.925,17.955v1.949c1.774-0.074,3.773-0.175,5.773-0.3
			v-1.649H212.925z M226.371,1.409v19.845c0,2.15-1,2.25-4.799,2.25c-0.05-0.475-0.3-1.25-0.55-1.725
			c0.85,0.025,1.649,0.05,2.25,0.05c1.3,0,1.449,0,1.449-0.575V9.657h-7.723V1.409H226.371z M224.721,2.709h-6.099v2.125h6.099
			V2.709z M218.623,8.357h6.099V6.083h-6.099V8.357z"/>
		<path fill="#FFFFFF" d="M237.198,11.906c0,1.425-1.149,2.574-2.574,2.574s-2.574-1.149-2.574-2.574
			c0-1.424,1.149-2.574,2.574-2.574C236.098,9.332,237.198,10.531,237.198,11.906z"/>
		<path fill="#FFFFFF" d="M264.72,6.583h-10.497v5.648h7.623v11.222h-1.725v-1.249h-13.297v1.35h-1.649V12.231h7.299V6.583h-10.373
			v-1.65h10.373V0.285l2.249,0.15c-0.025,0.175-0.15,0.3-0.5,0.35v4.149h10.497V6.583z M260.122,20.58v-6.749h-13.297v6.749H260.122
			z"/>
		<path fill="#FFFFFF" d="M275.849,14.057c-0.125-0.4-0.325-0.875-0.575-1.375l-2.724,0.15v10.697h-1.525V12.906
			c-1.425,0.051-2.724,0.125-3.749,0.15c-0.024,0.199-0.175,0.274-0.35,0.324l-0.45-1.874h1.85c0.55-0.649,1.15-1.399,1.725-2.2
			c-0.774-1.124-2.124-2.574-3.324-3.624l0.85-1.1c0.25,0.2,0.5,0.425,0.75,0.675c0.875-1.475,1.899-3.499,2.475-4.949l1.824,0.775
			c-0.1,0.15-0.25,0.2-0.524,0.2c-0.7,1.45-1.85,3.499-2.8,4.899c0.65,0.65,1.225,1.3,1.625,1.875
			c1.125-1.675,2.199-3.449,2.975-4.899l1.774,0.85c-0.101,0.125-0.3,0.2-0.575,0.2c-1.3,2.125-3.349,5.098-5.148,7.274l4.648-0.076
			c-0.475-0.85-1.024-1.725-1.574-2.474l1.274-0.6c1.175,1.575,2.425,3.699,2.899,5.074L275.849,14.057z M269.951,15.181
			c-0.05,0.149-0.2,0.25-0.475,0.25c-0.351,2.124-0.925,4.524-1.7,5.999c-0.325-0.226-0.875-0.475-1.25-0.65
			c0.726-1.399,1.275-3.799,1.6-6.073L269.951,15.181z M275.3,19.854c-0.226-1.3-0.9-3.274-1.6-4.799l1.3-0.425
			c0.75,1.5,1.425,3.449,1.699,4.749L275.3,19.854z M289.996,11.582h-4.674c0.399,5.623,1.25,9.872,2.949,10.223h0.025
			c0.399,0,0.725-1.65,0.899-3.875c0.325,0.325,0.899,0.725,1.25,0.926c-0.325,3.273-1.1,4.698-2.175,4.698
			c-0.225,0-0.45-0.05-0.7-0.175c-2.399-0.725-3.349-5.398-3.799-11.797h-4.324v9.098c1.575-0.301,3.274-0.65,4.975-1l0.149,1.425
			c-2.799,0.649-5.724,1.3-7.598,1.675c-0.025,0.175-0.15,0.324-0.325,0.375l-0.774-1.825l1.974-0.35V2.659l1.075,0.375
			c3.225-0.7,6.773-1.75,8.772-2.724l1.575,1.325c-0.101,0.1-0.15,0.1-0.5,0.1c-0.9,0.375-2,0.75-3.225,1.125
			c-0.05,0.175-0.225,0.3-0.524,0.35c0.024,2.324,0.075,4.624,0.2,6.773h4.773V11.582z M279.448,9.982h4.225
			c-0.125-2.05-0.2-4.25-0.25-6.549c-1.3,0.35-2.675,0.675-3.975,0.925V9.982z"/>
	</g>
</g>
<g id="レイヤー_9">
	<g>
		<path fill="#FFFFFF" d="M181.653,2.915c-0.05,0.1-0.199,0.175-0.324,0.225c-1.35,3.199-3.5,5.974-5.924,7.998
			c-0.375-0.325-1.074-0.774-1.524-1.024c2.3-1.675,4.149-4.1,4.974-6.199h-17.896v-1.7h18.845l0.275-0.125L181.653,2.915z
			 M171.906,7.464c-0.024,0.2-0.25,0.375-0.575,0.425c-0.725,5.898-2.749,11.521-7.898,14.496c-0.35-0.299-0.999-0.875-1.475-1.148
			c5.1-2.801,6.924-8.023,7.523-14.047L171.906,7.464z"/>
		<path fill="#FFFFFF" d="M189.258,4.564c-0.024,0.225-0.25,0.375-0.575,0.425c-0.149,6.724-0.699,12.846-4.549,17.321
			c-0.399-0.301-1-0.676-1.499-0.951c3.724-4.049,4.174-10.296,4.249-17.02L189.258,4.564z M195.731,18.961
			c4.174-2.025,6.873-5.674,8.322-10.047c0.375,0.325,1.125,0.75,1.551,0.975c-1.775,5.049-4.875,8.772-10.198,11.297
			c-0.075,0.199-0.249,0.4-0.425,0.5l-1.299-1.65l0.274-0.375V1.315l2.324,0.125c-0.024,0.225-0.2,0.425-0.55,0.475V18.961z"/>
		<path fill="#FFFFFF" d="M208.984,16.662c5.499,0.625,11.922,2.049,15.847,3.598l-0.75,1.75c-3.55-1.475-10.197-3.049-15.697-3.699
			L208.984,16.662z M210.983,9.014c3.975,0.399,8.973,1.35,12.072,2.299l-0.574,1.75c-2.925-1-7.974-1.949-12.022-2.349
			L210.983,9.014z M211.084,1.291c4.249,0.45,9.697,1.45,13.146,2.674l-0.725,1.75c-3.449-1.3-8.748-2.274-12.997-2.75
			L211.084,1.291z"/>
		<path fill="#FFFFFF" d="M240.907,11.963v7.873h6.323v-6.248l2.2,0.148c-0.025,0.176-0.15,0.301-0.5,0.352v8.947h-1.7v-1.574
			h-14.122v1.699h-1.674v-9.572l2.174,0.148c-0.024,0.176-0.174,0.275-0.5,0.326v5.773h6.074v-7.873H228.71v-1.65h10.473V4.765
			h-5.249c-0.85,1.95-1.899,3.674-3.049,4.949c-0.325-0.3-0.976-0.75-1.425-0.975c1.899-1.975,3.449-5.424,4.299-8.948l2.174,0.55
			c-0.049,0.175-0.225,0.275-0.524,0.275c-0.225,0.85-0.499,1.7-0.8,2.524h14.847v1.625h-8.548v5.548h10.622v1.65H240.907z"/>
	</g>
</g>
</svg>
