<?xml version="1.0" encoding="utf-8"?>
<!-- Generator: Adobe Illustrator 14.0.0, SVG Export Plug-In . SVG Version: 6.00 Build 43363)  -->
<!DOCTYPE svg PUBLIC "-//W3C//DTD SVG 1.1 Tiny//EN" "http://www.w3.org/Graphics/SVG/1.1/DTD/svg11-tiny.dtd">
<svg version="1.1" baseProfile="tiny" xmlns="http://www.w3.org/2000/svg" xmlns:xlink="http://www.w3.org/1999/xlink" x="0px"
	 y="0px" width="595.28px" height="841.89px" viewBox="0 0 595.28 841.89" xml:space="preserve">
<g id="レイヤー_1" display="none">
	<path display="inline" fill="#F7F8F8" d="M245.793,428.876l-0.744,0.553c-0.528-1.104-1.417-2.832-2.304-4.369
		c-0.48,2.666-1.584,5.064-3.697,7.082l-0.648-0.625c2.952-2.783,3.816-6.359,3.816-10.44v-10.681h0.864v10.681
		c0,0.959-0.048,1.895-0.145,2.786C243.993,425.566,245.145,427.654,245.793,428.876z M240.657,414.98
		c-0.217,2.304-0.648,4.896-1.368,6.336l-0.769-0.24c0.792-1.464,1.248-3.984,1.393-6.192L240.657,414.98z M246.321,414.284
		c-0.504,1.56-1.319,3.792-2.184,5.737l-0.6-0.288c0.863-1.968,1.632-4.225,2.04-5.737L246.321,414.284z M248.265,426.716
		c-0.432,1.992-1.368,4.152-2.592,5.377l-0.768-0.432c1.271-1.201,2.184-3.266,2.567-5.16L248.265,426.716z M247.089,417.909
		c-0.168,0.312-0.384,0.6-0.576,0.864l-0.72-0.432c1.752-2.329,2.809-4.945,3.359-7.921l0.816,0.096
		c-0.144,0.792-0.336,1.536-0.552,2.28h2.855h0.145h0.12l0.575,0.096c-0.695,5.544-2.951,9.602-6.479,11.93l-0.624-0.625
		c1.656-1.031,3-2.447,4.056-4.201C249.273,419.301,248.29,418.604,247.089,417.909z M250.401,419.373
		c0.36-0.672,0.673-1.392,0.912-2.16c-0.744-0.624-1.704-1.2-2.88-1.776c-0.288,0.648-0.624,1.296-0.983,1.92
		C248.625,418.029,249.609,418.701,250.401,419.373z M251.554,416.493c0.264-0.912,0.48-1.896,0.648-2.929h-3.024
		c-0.144,0.432-0.312,0.864-0.479,1.272C249.826,415.388,250.786,415.94,251.554,416.493z M250.906,426.789
		c0.527,1.752,0.815,3.313,0.888,4.656l-0.888,0.168c-0.024-1.344-0.265-2.904-0.769-4.584L250.906,426.789z M260.626,424.269
		l-0.648,0.721c-1.655-1.271-2.855-3.625-3.552-7.489c-0.576,3.24-1.752,5.665-4.321,7.344l-0.647-0.625
		c2.809-1.799,3.913-4.487,4.345-8.255h-2.641v-0.816h2.735c0.12-1.44,0.192-3.024,0.217-4.752l0.84,0.024
		c-0.024,1.704-0.097,3.288-0.217,4.729h3.528v0.816H257C257.578,420.381,258.826,423.021,260.626,424.269z M254.266,426.742
		c0.816,1.727,1.32,3.264,1.561,4.607l-0.816,0.24c-0.216-1.344-0.696-2.904-1.44-4.584L254.266,426.742z M257.602,426.189
		c1.368,2.016,2.328,3.936,2.904,5.592l-0.84,0.313c-0.528-1.68-1.464-3.576-2.784-5.568L257.602,426.189z M258.346,410.756
		c0.912,1.032,1.561,2.016,1.944,2.952l-0.672,0.288c-0.385-0.912-0.984-1.872-1.824-2.904L258.346,410.756z"/>
	<path display="inline" fill="#F7F8F8" d="M269.193,418.437c-0.72-2.16-1.464-4.152-2.231-5.809l0.96-0.408
		c0.768,1.728,1.512,3.744,2.208,5.88c2.399-0.792,4.776-1.536,6.576-1.896c-0.648-1.44-1.969-3.577-2.929-4.705l0.841-0.456
		c1.031,1.224,2.399,3.6,3.048,4.993c0.384-0.048,0.72-0.072,1.032-0.072c3.647,0,5.521,1.584,5.521,4.92
		c0,2.736-1.848,4.561-5.208,4.561c-0.96,0-2.184-0.145-3.384-0.504l0.072-0.938c1.199,0.385,2.352,0.529,3.264,0.529
		c2.784,0,4.296-1.439,4.296-3.672c0-2.712-1.488-3.96-4.656-3.96c-1.656,0-4.873,0.936-8.185,2.088
		c1.368,4.175,2.544,8.689,3.216,12.312l-1.008,0.217c-0.624-3.576-1.8-8.088-3.12-12.217c-1.944,0.696-3.889,1.416-5.544,2.04
		l-0.336-0.96C265.281,419.805,267.249,419.109,269.193,418.437z"/>
	<path display="inline" fill="#F7F8F8" d="M289.425,416.108c0.792,0.024,1.632,0.048,2.568,0.048c2.52,0,5.424-0.096,8.208-0.313
		c-0.527-1.536-0.937-3.144-1.151-4.656l1.008-0.12c0.192,1.512,0.576,3.121,1.128,4.705c2.545-0.192,4.945-0.48,6.745-0.864
		l0.192,0.912c-1.801,0.36-4.129,0.624-6.625,0.84c1.08,2.88,2.616,5.543,4.344,7.202l-0.744,0.84
		c-2.903-1.176-5.688-1.824-8.544-1.824c-3.072,0-4.777,1.416-4.777,3.527c0,2.809,2.856,4.129,8.497,4.129
		c0.962,0,2.018-0.047,3.146-0.119l-0.023,0.936c-1.079,0.096-2.137,0.119-3.071,0.119c-6.361,0-9.529-1.752-9.529-5.135
		c0-2.617,2.28-4.322,5.617-4.322c2.76,0,5.4,0.553,7.873,1.441c-1.368-1.441-2.762-3.96-3.77-6.722
		c-2.928,0.216-6,0.312-8.712,0.312c-0.816,0-1.632,0-2.376-0.024v-0.913H289.425z"/>
	<path display="inline" fill="#F7F8F8" d="M318.369,414.788c0.384-1.416,0.672-2.736,0.863-3.84l1.009,0.12
		c-0.192,1.08-0.48,2.353-0.864,3.72h4.705v0.912h-4.969c-1.152,3.913-2.93,8.377-4.873,11.184l-0.889-0.525
		c1.92-2.664,3.624-6.89,4.729-10.658h-4.2v-0.912L318.369,414.788L318.369,414.788z M328.186,418.269
		c-0.022,0.504-0.022,1.368-0.022,2.328c0,1.584,0,3.576,0.022,5.064c1.656,0.672,3.289,1.656,4.584,2.688l-0.622,0.721
		c-1.152-0.984-2.546-1.85-3.962-2.473v0.936c0,2.496-1.319,3.865-4.176,3.865c-2.713,0-4.537-1.537-4.537-3.289
		c0-2.016,1.729-3.336,4.537-3.336c1.031,0,2.137,0.191,3.217,0.553c0-1.441,0-3.24,0-4.729c0-0.96,0-1.824,0-2.328L328.186,418.269
		L328.186,418.269z M324.01,425.613c-2.305,0-3.673,0.961-3.673,2.496c0,1.32,1.632,2.424,3.601,2.424c2.28,0,3.313-0.982,3.313-3
		c0-0.313,0-0.768,0-1.32C326.147,425.83,325.041,425.613,324.01,425.613z M332.746,417.909c-1.368-1.008-4.104-2.568-5.977-3.312
		l0.479-0.792c1.992,0.864,4.512,2.28,6,3.312L332.746,417.909z"/>
	<path display="inline" fill="#F7F8F8" d="M340.041,414.116c-0.145,1.848-0.217,3.696-0.217,5.208c0,5.953,2.328,9.914,4.177,9.914
		c1.224,0,2.208-1.992,2.929-4.752l0.863,0.359c-0.936,3.336-2.064,5.447-3.744,5.447c-2.399,0-5.208-4.344-5.208-10.92
		c0-1.56,0.048-3.432,0.168-5.328L340.041,414.116z M353.074,413.708c3.384,3.265,4.632,7.153,4.774,12.385l-1.056,0.098
		c-0.071-5.065-1.319-8.906-4.513-11.882L353.074,413.708z"/>
</g>
<g id="レイヤー_2" display="none">
	<g display="inline">
		<path fill="#FFFFFF" d="M216.055,414.439h15.896l0.15-0.075l1.7,1.3c-0.075,0.1-0.15,0.175-0.3,0.225
			c-2.025,9.398-6.374,14.296-14.022,17.196c-0.275-0.45-0.774-1.101-1.125-1.476c7.273-2.674,11.472-7.322,13.097-15.445h-15.396
			V414.439z M235.1,409.965c1.5,0,2.724,1.225,2.724,2.75c0,1.5-1.225,2.724-2.724,2.724c-1.525,0-2.75-1.225-2.75-2.724
			C232.351,411.14,233.626,409.965,235.1,409.965z M237,412.714c0-1.075-0.85-1.925-1.899-1.925s-1.925,0.85-1.925,1.925
			c0,1.05,0.875,1.924,1.925,1.924C236.2,414.639,237,413.714,237,412.714z"/>
		<path fill="#FFFFFF" d="M258.475,419.538c-0.05,0.1-0.175,0.2-0.325,0.25c-2.049,7.548-6.223,11.222-13.696,13.297
			c-0.225-0.45-0.7-1.075-1.05-1.45c6.798-1.699,11.022-5.198,12.597-10.997h-16.546v-1.7h17.296l0.25-0.15L258.475,419.538z
			 M256.126,414.189h-14.247v-1.65h14.247V414.189z"/>
		<path fill="#FFFFFF" d="M274.377,426.011c0.6,1.174,1.399,2.199,2.375,3.074c1.625-0.775,3.624-1.925,4.824-2.799l1.5,1.1
			c-0.1,0.125-0.325,0.174-0.55,0.125c-1.225,0.749-3.124,1.725-4.699,2.449c1.799,1.299,4.049,2.174,6.698,2.648
			c-0.35,0.325-0.75,0.95-0.975,1.375c-5.149-1.074-8.798-3.674-10.723-7.848c-1.024,0.799-2.299,1.549-3.674,2.225l0.375,0.074
			c-0.025,0.15-0.175,0.275-0.5,0.301v3.049c1.949-0.2,4.099-0.45,6.198-0.699l0.05,1.299c-3.474,0.475-7.148,0.925-9.448,1.199
			c-0.025,0.201-0.15,0.326-0.325,0.375l-0.75-1.725l2.649-0.274v-2.849c-1.725,0.699-3.549,1.273-5.224,1.648
			c-0.2-0.375-0.625-0.975-0.975-1.273c3.25-0.625,7.023-1.9,9.523-3.475h-9.123v-1.4h10.373v-1.874l2.199,0.149
			c-0.025,0.176-0.175,0.301-0.5,0.351v1.374h10.498v1.4H274.377z M267.254,418.138v-1.424h-5.749v-1.275h5.749v-1.674h-3.074
			c-0.325,0.6-0.65,1.149-0.975,1.6c-0.275-0.175-0.775-0.45-1.149-0.6c0.75-0.975,1.424-2.5,1.875-3.974l1.674,0.525
			c-0.075,0.175-0.25,0.225-0.475,0.2c-0.125,0.325-0.25,0.675-0.4,1.024h2.524v-1.849l1.949,0.125
			c-0.025,0.175-0.15,0.3-0.475,0.35v1.375h4.599v1.225h-4.599v1.674h5.573v1.275h-5.573v1.424h4.749v3.149
			c0,1.4-0.775,1.425-2.999,1.425c-0.075-0.375-0.325-0.825-0.475-1.15h1.35c0.575,0,0.625,0,0.625-0.275v-1.975h-3.249v4.199
			h-1.475v-4.199h-3.074v3.525h-1.375v-4.7H267.254z M277.677,411.989c-0.025,0.15-0.15,0.275-0.475,0.325v8.473h-1.549v-8.948
			L277.677,411.989z M283.625,411.064c-0.025,0.175-0.15,0.3-0.475,0.35v10.073c0,1.699-0.475,1.849-4.524,1.849
			c-0.075-0.425-0.325-1.024-0.55-1.425c0.825,0.025,1.6,0.051,2.174,0.051c1.2,0,1.35,0,1.35-0.475v-10.523L283.625,411.064z"/>
		<path fill="#FFFFFF" d="M290.905,426.511c-1.175,0.75-2.399,1.449-3.624,2.049c-0.225-0.399-0.649-1.024-0.975-1.375
			c4.324-1.999,8.647-5.423,10.647-8.373l2.475,0.15c-0.05,0.175-0.25,0.3-0.5,0.325c2.424,2.874,6.898,5.999,10.747,7.599
			c-0.375,0.399-0.8,1.024-1.074,1.499c-1.2-0.575-2.475-1.274-3.725-2.074v7.522h-1.699v-0.774h-10.623v0.899h-1.649V426.511z
			 M289.055,414.789v2.924h-1.624v-4.474h9.522v-2.549l2.225,0.15c-0.025,0.175-0.175,0.3-0.5,0.325v2.075h9.673v4.474h-1.7v-2.924
			H289.055z M295.604,416.888c-0.101,0.15-0.275,0.225-0.55,0.225c-1.625,1.924-4.149,3.924-6.424,5.173
			c-0.25-0.324-0.774-0.95-1.1-1.225c2.175-1.125,4.648-2.999,6.148-4.924L295.604,416.888z M303.626,425.486
			c-2.274-1.574-4.398-3.35-5.773-5.023c-1.225,1.6-3.174,3.398-5.448,5.023H303.626z M292.554,431.535h10.623v-4.523h-10.623
			V431.535z M306.825,422.237c-1.374-1.475-4.248-3.649-6.623-5.124l1.125-1c2.374,1.4,5.299,3.499,6.748,4.974L306.825,422.237z"/>
		<path fill="#FFFFFF" d="M334.225,422.312h-7.298c1.975,1.824,5.023,3.324,7.998,4.049c-0.375,0.35-0.825,0.949-1.074,1.375
			c-0.601-0.176-1.175-0.35-1.775-0.575v6.749h-1.549v-0.9h-4.924v1h-1.5v-8.248h5.023c-1.674-0.949-3.174-2.15-4.299-3.449h-3.898
			c-1.2,1.324-2.675,2.475-4.399,3.449h5.099v8.148h-1.574v-0.9h-4.824v1h-1.499v-6.898c-0.55,0.225-1.101,0.449-1.675,0.65
			c-0.2-0.351-0.725-0.976-1.05-1.25c3.049-1.025,5.674-2.425,7.648-4.199h-7.099v-1.525h8.548c0.524-0.625,0.95-1.299,1.324-2
			h-8.048v-6.923h8.123v6.773l0.226-0.5l1.999,0.575c-0.05,0.15-0.25,0.25-0.575,0.275c-0.3,0.625-0.624,1.225-1.024,1.799h12.097
			V422.312z M319.879,417.388v-4.124h-4.949v4.124H319.879z M320.054,431.535v-4.299h-4.824v4.299H320.054z M332.526,411.864v6.923
			h-8.173v-6.923H332.526z M325.603,431.535h4.924v-4.299h-4.924V431.535z M330.901,417.388v-4.124h-4.998v4.124H330.901z"/>
		<path fill="#FFFFFF" d="M341.504,430.735c0,1.05,0.525,1.3,3.274,1.3h9.873c2.324,0,2.699-0.55,2.924-3.5
			c0.45,0.25,1.15,0.525,1.625,0.601c-0.35,3.624-1.05,4.499-4.549,4.499h-9.748c-3.898,0-5.049-0.525-5.049-2.875v-6.598h8.848
			v-4.549h-8.572v-1.199c-0.85,1.149-1.75,2.174-2.675,3.049c-0.3-0.325-0.925-0.85-1.35-1.125c2.524-2.2,4.974-5.974,6.424-9.772
			l2.1,0.7c-0.05,0.175-0.275,0.275-0.55,0.25c-0.301,0.725-0.65,1.475-1.025,2.199h13.622l0.949,0.05
			c-0.199,1.375-0.05,11.847-1.324,13.372c-0.524,0.699-1.075,0.85-2.824,0.85c-0.65,0-1.425-0.025-2.225-0.075
			c-0.025-0.5-0.2-1.175-0.475-1.6c1.374,0.101,2.624,0.125,3.099,0.125c0.45,0,0.726-0.05,0.925-0.325
			c0.575-0.675,0.825-3.324,1.05-10.772h-13.696c-0.55,0.95-1.125,1.875-1.75,2.725h9.998v7.623h-8.898V430.735z"/>
		<path fill="#FFFFFF" d="M374.378,425.636c0.675,1.199,1.549,2.299,2.599,3.225c1.524-0.726,3.425-1.85,4.549-2.699l1.5,1.1
			c-0.1,0.125-0.3,0.174-0.525,0.125c-1.149,0.674-2.974,1.648-4.474,2.349c1.825,1.351,4.049,2.35,6.549,2.899
			c-0.351,0.35-0.775,0.975-0.975,1.4c-4.949-1.301-8.773-4.225-10.873-8.398h-0.05c-1.024,0.925-2.324,1.799-3.749,2.574l0.525,0.1
			c-0.025,0.176-0.176,0.301-0.5,0.35v3l6.473-0.8l0.051,1.3c-3.824,0.55-7.924,1.125-10.473,1.449c0,0.2-0.15,0.301-0.325,0.35
			l-0.649-1.725c0.949-0.1,2.074-0.225,3.299-0.375v-2.849c-1.699,0.8-3.499,1.425-5.148,1.85c-0.226-0.399-0.65-0.975-0.975-1.274
			c3.199-0.725,6.897-2.199,9.322-3.949h-8.973v-1.375h10.422v-2.225l2.175,0.15c-0.024,0.175-0.149,0.3-0.475,0.35v1.725h10.547
			v1.375H374.378z M361.281,419.763c1.325-0.45,3.175-1.175,5.1-1.925l0.3,1.3c-1.625,0.675-3.25,1.35-4.324,1.774
			c0,0.2-0.1,0.325-0.25,0.4L361.281,419.763z M363.08,412.264c1.125,0.725,2.499,1.8,3.124,2.625l-1.024,1.025
			c-0.625-0.8-1.975-1.95-3.1-2.725L363.08,412.264z M369.204,410.84c-0.025,0.15-0.15,0.275-0.5,0.325v11.423h-1.575V410.69
			L369.204,410.84z M376.227,420.188v-4.349h-6.273v-1.375h6.273v-3.774l2.175,0.15c-0.025,0.175-0.175,0.3-0.5,0.35v3.274h6.398
			v1.375h-6.398v4.349h5.599v1.375h-12.747v-1.375H376.227z"/>
	</g>
</g>
<g id="レイヤー_3" display="none">
	<g display="inline">
		<path fill="#FFFFFF" d="M238.807,423.687c1.899-2,5.849-6.398,7.273-7.923c0.649-0.65,1.299-0.95,1.949-0.95
			c0.675,0,1.35,0.35,2.024,0.95c3.225,2.949,8.423,8.723,12.197,13.622l-1.5,1.375c-3.549-4.924-8.773-10.848-11.572-13.447
			c-0.425-0.4-0.75-0.625-1.075-0.625c-0.325,0-0.625,0.25-1.025,0.625c-1.175,1.274-4.824,5.473-6.499,7.273
			c0.025,0.05,0.025,0.125,0.025,0.175c0,0.2-0.1,0.4-0.25,0.525L238.807,423.687z M257.753,411.015c1.525,0,2.774,1.25,2.774,2.799
			c0,1.549-1.25,2.799-2.774,2.799c-1.575,0-2.824-1.25-2.824-2.799C254.928,412.215,256.228,411.015,257.753,411.015z
			 M259.702,413.814c0-1.1-0.875-2-1.95-2c-1.1,0-2,0.899-2,2c0,1.075,0.9,1.974,2,1.974
			C258.878,415.789,259.702,414.839,259.702,413.814z"/>
		<path fill="#FFFFFF" d="M266.656,418.038c0.75,1.525,1.575,3.924,1.875,5.374l-1.399,0.375c-0.3-1.449-1.075-3.724-1.825-5.324
			L266.656,418.038z M281.578,418.213c-0.05,0.225-0.3,0.275-0.525,0.25c-1.949,7.298-5.624,11.773-11.672,14.222
			c-0.2-0.301-0.65-0.875-0.975-1.15c5.974-2.35,9.398-6.448,11.223-13.896L281.578,418.213z M272.73,416.838
			c0.525,1.675,1,4.074,1.175,5.674l-1.475,0.274c-0.15-1.599-0.625-3.898-1.175-5.623L272.73,416.838z"/>
		<path fill="#FFFFFF" d="M299.803,424.636c-2.549-1.375-6.049-2.999-8.773-4.074v12.498h-1.875v-21.72l2.524,0.15
			c-0.025,0.275-0.225,0.45-0.65,0.525v7.298l0.375-0.525c2.924,1.075,6.798,2.799,9.397,4.174L299.803,424.636z"/>
		<path fill="#FFFFFF" d="M311.556,422.312c-1.125,2.924-2.773,5.499-4.699,7.398l-1.449-0.949c1.875-1.75,3.5-4.149,4.523-7.049
			L311.556,422.312z M316.906,418.463v11.822c0,2.725-1.926,2.725-5.924,2.725c-0.101-0.449-0.301-1.174-0.551-1.674
			c0.725,0.024,1.525,0.024,2.199,0.024h1.45c0.7,0,1.024-0.45,1.024-1.05v-11.847h-8.498v-1.674h8.498v-5.199l2.375,0.125
			c-0.025,0.25-0.2,0.425-0.574,0.475v4.599h8.447v1.674H316.906z M321.378,421.538c1.824,2.024,3.924,4.948,5.273,7.272l-1.6,0.926
			c-1.225-2.3-3.424-5.499-5.098-7.424L321.378,421.538z M321.079,411.365c1.125,1,2.398,2.524,3.123,3.649l-0.949,0.725
			c-0.725-1.1-2.049-2.724-3.125-3.624L321.079,411.365z M324.677,410.24c1.15,1.024,2.451,2.524,3.15,3.624l-0.949,0.75
			c-0.727-1.1-2.076-2.674-3.125-3.625L324.677,410.24z"/>
		<path fill="#FFFFFF" d="M344.552,424.636c-2.549-1.375-6.047-2.999-8.771-4.074v12.498h-1.875v-21.72l2.523,0.15
			c-0.023,0.275-0.225,0.45-0.648,0.525v7.298l0.375-0.525c2.924,1.075,6.797,2.799,9.396,4.174L344.552,424.636z"/>
		<path fill="#FFFFFF" d="M355.906,415.264c-0.025,0.225-0.25,0.375-0.574,0.425c-0.15,6.723-0.701,12.847-4.549,17.32
			c-0.4-0.3-1-0.675-1.5-0.949c3.725-4.049,4.174-10.298,4.248-17.021L355.906,415.264z M362.378,429.66
			c4.176-2.023,6.875-5.673,8.324-10.047c0.375,0.325,1.125,0.75,1.549,0.975c-1.773,5.049-4.873,8.773-10.197,11.297
			c-0.074,0.201-0.25,0.4-0.424,0.5l-1.301-1.649l0.275-0.374v-18.346l2.324,0.125c-0.025,0.225-0.199,0.425-0.551,0.475V429.66z"/>
	</g>
</g>
<g id="レイヤー_4" display="none">
	<g display="inline">
		<path fill="#FFFFFF" d="M257.441,425.949l2.999-1.074c0.075,0.324,0.15,0.675,0.3,1.475c-2.649,1.074-5.423,2.174-7.198,2.85
			c-0.025,0.199-0.15,0.35-0.3,0.399l-0.85-1.899c0.95-0.301,2.149-0.725,3.449-1.175v-8.348h-3.024v-1.6h3.024v-5.974l2.099,0.15
			c-0.025,0.175-0.175,0.275-0.5,0.325v5.499h2.824v1.6h-2.824V425.949z M268.588,431.198h7.198v1.55h-16.771v-1.55h7.923v-3.724
			h-5.999v-1.575h5.999v-2.849h-5.674v-11.473h13.197v11.473h-5.874v2.849h6.199v1.575h-6.199V431.198z M262.865,413.052v3.524
			h4.074v-3.524H262.865z M262.865,421.576h4.074v-3.6h-4.074V421.576z M272.812,416.576v-3.524h-4.224v3.524H272.812z
			 M272.812,421.576v-3.6h-4.224v3.6H272.812z"/>
		<path fill="#FFFFFF" d="M277.817,430.798h22.669v1.674h-22.669V430.798z M299.786,415.477v1.649h-21.095v-1.649h9.523v-5.099
			l2.225,0.15c-0.025,0.175-0.15,0.3-0.5,0.35v4.599H299.786z M283.666,418.501c1.299,3.374,2.199,7.672,2.349,10.547
			c-0.175,0-0.35,0.025-1.725,0.375c-0.1-2.824-1-7.174-2.224-10.522L283.666,418.501z M296.838,418.826
			c-0.075,0.175-0.3,0.325-0.625,0.35c-0.75,3.298-2.149,8.173-3.324,10.922l-1.5-0.425c1.1-2.85,2.374-7.873,3.024-11.373
			L296.838,418.826z"/>
		<path fill="#FFFFFF" d="M320.863,431.073c-2.199,0.399-5.124,0.575-7.674,0.575c-2.049,0-3.849-0.125-4.823-0.325
			c-3.024-0.675-4.324-2.574-4.324-4.774c0-1.874,1.05-3.824,2.55-5.323l1.449,0.75c-1.399,1.425-2.199,3.05-2.199,4.424
			c0,1.475,0.975,2.774,3.124,3.274c0.851,0.175,2.3,0.275,3.999,0.275c2.424,0,5.373-0.201,7.773-0.676L320.863,431.073z
			 M309.64,418.476c1.3-1.024,3.074-2.224,4.424-2.899v-0.025c-1.899,0.225-6.248,0.3-9.022,0.3c0-0.475,0-1.3-0.024-1.75h1.35
			c3.199,0,9.747-0.05,12.896-0.8l0.199,1.824c-0.824,0.125-1.424,0.25-2.624,0.75c-1.399,0.575-3.823,1.924-5.773,3.499
			L309.64,418.476z M320.837,422.025c-0.725-1.1-2.274-2.599-3.35-3.399l0.825-0.775c1.2,0.875,2.649,2.324,3.425,3.374
			L320.837,422.025z M323.462,419.65c-0.7-1-2.175-2.499-3.35-3.374l0.824-0.8c1.225,0.925,2.675,2.35,3.425,3.399L323.462,419.65z"
			/>
		<path fill="#FFFFFF" d="M346.837,417.601c-0.074,0.275-0.35,0.45-0.725,0.45c-0.275,1.725-0.676,3.549-1.1,5.099
			c1.35,0.574,2.773,1.225,4.199,1.949l-0.801,1.675c-1.35-0.675-2.648-1.325-3.924-1.874c-1.199,3.599-2.924,6.223-5.574,7.973
			c-0.35-0.35-0.975-0.775-1.424-1.05c2.625-1.725,4.248-4.074,5.398-7.648c-2.523-0.999-4.824-1.7-6.674-1.85
			c-1.725,6.299-3.273,7.948-6.273,7.948c-2.998,0-3.574-2.399-3.574-3.924c0-3.875,4.025-5.674,8.498-5.699
			c0.525-2,1-4.449,1.35-7.048c-1.174,0.1-5.174,0.375-7.072,0.5c-0.1,0.175-0.301,0.3-0.525,0.35l-0.225-2.024
			c2.148-0.075,6.799-0.375,8.297-0.525c0.275-0.025,0.375-0.15,0.551-0.275l1.549,0.925c-0.125,0.2-0.324,0.3-0.625,0.4
			c-0.398,2.774-0.998,5.648-1.549,7.798c1.924,0.15,4.225,0.825,6.723,1.774c0.426-1.5,0.801-3.424,1.076-5.449L346.837,417.601z
			 M334.464,422.225c-3.598,0.05-6.473,1.475-6.473,4.124c0,1.399,0.676,2.35,1.85,2.35
			C331.665,428.699,332.865,428.074,334.464,422.225z"/>
	</g>
</g>
<g id="レイヤー_5" display="none">
	<g display="inline">
		<path fill="#FFFFFF" d="M194.112,411.778c-0.05,0.175-0.25,0.3-0.5,0.35c2.475,2.899,6.999,5.924,10.822,7.448
			c-0.375,0.4-0.775,1-1.05,1.475c-3.874-1.75-8.373-4.874-10.847-7.773c-2.149,2.724-6.349,5.898-10.623,7.948
			c-0.225-0.375-0.65-1-0.975-1.35c4.349-1.949,8.673-5.273,10.722-8.223L194.112,411.778z M193.087,427.649
			c0.625,0.975,1.425,1.824,2.375,2.574c1.95-1.05,4.399-2.574,5.849-3.749l1.549,1.175c-0.125,0.125-0.325,0.175-0.55,0.125
			c-1.45,1.024-3.674,2.324-5.599,3.299c2.025,1.226,4.524,2.024,7.398,2.45c-0.375,0.35-0.825,1.024-1.05,1.475
			c-5.399-0.975-9.523-3.35-11.697-7.349h-3.974v5.148c2.05-0.175,4.324-0.399,6.549-0.6v1.425
			c-3.824,0.425-7.923,0.85-10.397,1.074c-0.05,0.2-0.175,0.325-0.375,0.35l-0.625-1.85l3.199-0.274v-13.821h5.949v-3.049
			l2.199,0.125c-0.025,0.175-0.15,0.3-0.5,0.35v2.575h6.149v8.548H193.087z M197.861,420.476h-10.473v2.2h10.473V420.476z
			 M187.388,423.974v2.3h10.473v-2.3H187.388z"/>
		<path fill="#FFFFFF" d="M207.189,434.972v-10.873h9.073v10.648h-1.674v-1.025h-5.799v1.25H207.189z M214.588,425.724h-5.799v6.373
			h5.799V425.724z M224.16,412.652v8.798h-12.947v-8.798H224.16z M222.461,419.851v-5.574h-9.623v5.574H222.461z M218.937,424.099
			h9.372v10.673h-1.674v-1.075h-6.073v1.25h-1.625V424.099z M220.561,432.097h6.073v-6.373h-6.073V432.097z"/>
		<path fill="#FFFFFF" d="M252.384,413.577v18.996c0,2.3-1.1,2.324-5.823,2.274c-0.075-0.425-0.35-1.175-0.6-1.625
			c0.925,0.025,1.824,0.051,2.549,0.051c2.075,0,2.2,0,2.2-0.7v-5.424h-7.198v7.599h-1.625v-7.599h-6.573
			c-0.375,2.849-1.225,5.773-3.199,7.974c-0.25-0.326-0.899-0.9-1.274-1.125c2.799-3.149,3.074-7.648,3.074-11.223v-9.198H252.384z
			 M235.564,422.775c0,0.875-0.025,1.8-0.101,2.774h6.424v-4.374h-6.323V422.775z M241.887,415.177h-6.323v4.424h6.323V415.177z
			 M250.71,419.601v-4.424h-7.198v4.424H250.71z M243.512,425.549h7.198v-4.374h-7.198V425.549z"/>
		<path fill="#FFFFFF" d="M271.161,431.548c0.999-0.025,3.674-0.125,5.248-0.375c0.025,0.549,0.05,1.25,0.101,1.799
			c-1.65,0.176-4.149,0.275-5.174,0.275h-6.249c-3.773,0-5.599-1.65-5.599-5.224v-14.572l2.449,0.15
			c-0.05,0.25-0.225,0.4-0.675,0.45v8.148c3.824-1.2,9.148-3.2,12.397-4.949l1.274,1.725c-0.075,0.05-0.2,0.075-0.3,0.075
			c-0.125,0-0.225-0.025-0.35-0.075c-3.024,1.524-8.723,3.624-13.022,4.924v4.174c0,2.524,1.225,3.475,3.8,3.475H271.161z
			 M273.51,412.728c1.15,1.025,2.399,2.574,3.1,3.674l-0.95,0.725c-0.699-1.1-1.999-2.725-3.049-3.674L273.51,412.728z
			 M276.584,411.228c1.125,1.024,2.399,2.549,3.1,3.649l-0.95,0.725c-0.699-1.1-2.024-2.699-3.049-3.649L276.584,411.228z"/>
		<path fill="#FFFFFF" d="M282.265,414.502c2.6,0.825,5.599,2.125,7.448,3.399l-0.95,1.575c-1.799-1.275-4.748-2.6-7.298-3.475
			L282.265,414.502z M282.165,431.823c8.872-2.749,14.771-7.724,17.771-14.646c0.524,0.425,1.1,0.75,1.624,1.025
			c-3.124,6.848-9.223,12.171-17.695,14.996c-0.025,0.226-0.175,0.476-0.35,0.576L282.165,431.823z"/>
		<path fill="#FFFFFF" d="M311.711,423.375c0,1.425-1.149,2.574-2.574,2.574s-2.574-1.149-2.574-2.574
			c0-1.424,1.149-2.574,2.574-2.574C310.612,420.8,311.711,422,311.711,423.375z"/>
		<path fill="#FFFFFF" d="M333.636,415.052c-0.05,0.125-0.175,0.225-0.325,0.275c-1.35,3.174-2.949,5.924-4.998,8.599
			c2.724,2.174,6.823,5.898,9.147,8.473l-1.524,1.324c-2.199-2.549-6.224-6.348-8.773-8.398c-2.199,2.675-5.998,6.324-9.622,8.398
			c-0.275-0.375-0.875-1-1.3-1.35c6.923-3.799,12.396-10.897,14.646-16.321h-12.272v-1.7h13.247l0.325-0.125L333.636,415.052z"/>
		<path fill="#FFFFFF" d="M361.21,423.225h-8.723c-0.55,4.799-2.175,8.397-7.023,11.147c-0.375-0.4-0.975-0.875-1.399-1.2
			c4.499-2.449,6.123-5.548,6.648-9.947h-10.198v-1.649h10.323c0.125-1.65,0.125-3.35,0.149-5.349
			c-2.549,0.575-5.849,1.125-8.598,1.425c-0.125-0.475-0.3-0.975-0.524-1.45c8.772-1.05,13.946-2.774,15.496-3.449l1.324,1.475
			c-0.1,0.05-0.2,0.075-0.325,0.075c-0.1,0-0.175,0-0.274-0.025c-1.399,0.525-3.624,1.175-5.599,1.65l0.824,0.075
			c-0.024,0.225-0.199,0.375-0.524,0.425c-0.025,1.875-0.05,3.574-0.15,5.149h8.573V423.225z"/>
		<path fill="#FFFFFF" d="M364.816,422.05h20.869v1.774h-19.92c-0.149,0.25-0.475,0.425-0.8,0.476L364.816,422.05z"/>
		<path fill="#FFFFFF" d="M395.289,416.401c-0.025,0.225-0.25,0.375-0.575,0.425c-0.15,6.724-0.7,12.847-4.549,17.321
			c-0.4-0.301-1-0.676-1.5-0.951c3.725-4.049,4.174-10.297,4.249-17.02L395.289,416.401z M401.762,430.798
			c4.175-2.025,6.874-5.674,8.323-10.048c0.375,0.325,1.125,0.75,1.55,0.975c-1.774,5.049-4.874,8.772-10.197,11.298
			c-0.075,0.199-0.25,0.399-0.425,0.5l-1.3-1.65l0.274-0.375v-18.345l2.325,0.125c-0.025,0.225-0.2,0.425-0.551,0.475V430.798z"/>
		<path fill="#FFFFFF" d="M425.938,423.8v7.873h6.323v-6.249l2.199,0.149c-0.024,0.176-0.149,0.301-0.5,0.351v8.948h-1.699v-1.575
			H418.14v1.7h-1.675v-9.573l2.175,0.149c-0.025,0.176-0.176,0.275-0.5,0.326v5.773h6.073V423.8H413.74v-1.65h10.473v-5.548h-5.249
			c-0.85,1.95-1.899,3.674-3.049,4.949c-0.325-0.3-0.975-0.75-1.425-0.975c1.899-1.975,3.449-5.424,4.299-8.948l2.175,0.55
			c-0.05,0.175-0.226,0.275-0.525,0.275c-0.225,0.85-0.5,1.7-0.8,2.524h14.847v1.625h-8.548v5.548h10.622v1.65H425.938z"/>
	</g>
</g>
<g id="レイヤー_6">
	<g>
		<path fill="#FFFFFF" d="M237.857,432.023h-4.899v2.125h-1.475v-8.849c-0.525,1.125-1.15,2.124-1.825,2.999
			c-0.2-0.375-0.625-1.125-0.9-1.475c1.95-2.523,3.25-6.898,3.974-11.597h-3.324v-1.55h9.423v1.55h-4.499
			c-0.325,2.049-0.75,4.074-1.3,5.948h4.824V432.023z M236.357,430.523v-7.848h-3.399v7.848H236.357z M250.328,421.826l1.05,0.425
			c-0.05,0.149-0.125,0.225-0.2,0.3c-0.75,3.273-2.1,5.974-3.849,8.123c1.5,1.524,3.299,2.699,5.398,3.374
			c-0.4,0.325-0.85,0.95-1.1,1.374c-2.075-0.774-3.874-1.999-5.349-3.573c-1.475,1.524-3.149,2.699-4.949,3.549
			c-0.2-0.425-0.65-1.05-1-1.374c1.75-0.75,3.424-1.9,4.874-3.425c-1.425-1.874-2.524-4.124-3.299-6.624l1.399-0.374
			c0.65,2.149,1.625,4.149,2.95,5.823c1.325-1.674,2.374-3.699,3.024-6.023h-7.998c-0.1,3.749-0.675,8.648-3.199,11.997
			c-0.25-0.325-0.925-0.874-1.274-1.05c2.599-3.499,2.874-8.423,2.874-12.021v-6.574h5.249v-3.599l2.099,0.125
			c-0.025,0.175-0.15,0.3-0.5,0.35v3.125h4.949l0.9,0.05c0,0.15-0.65,3.199-1.375,5.174l-1.399-0.4
			c0.275-0.875,0.575-2.1,0.825-3.274h-3.899v4.599h3.524L250.328,421.826z M244.93,417.301h-3.649v4.599h3.649V417.301z"/>
		<path fill="#FFFFFF" d="M263.756,415.027h-4.599c-0.325,2.075-0.725,4.124-1.25,6.049h4.824v10.697h-4.924v2.199h-1.5V425.5
			c-0.399,0.85-0.85,1.625-1.35,2.324c-0.225-0.375-0.675-1.074-0.975-1.375c1.774-2.523,2.899-6.873,3.549-11.422h-3.199v-1.574
			h9.422V415.027z M261.207,430.249V422.6h-3.399v7.648H261.207z M272.404,416.901h-3.149c-0.475,3.625-1.7,6.098-5.099,7.624
			c-0.2-0.375-0.65-0.925-0.975-1.199c2.924-1.275,4.049-3.3,4.524-6.424h-3.599v-1.524h3.774c0.075-0.975,0.125-2.075,0.15-3.249
			l2.025,0.15c0,0.175-0.175,0.3-0.475,0.35c-0.025,0.975-0.075,1.9-0.15,2.75h4.549v5.499c0,0.774,0,0.925,0.575,0.925h0.825
			c0.924,0,0.924-0.074,1-2.774c0.3,0.25,0.8,0.525,1.2,0.65c-0.075,2.75-0.275,3.449-2.075,3.449h-1.274
			c-1.825,0-1.825-0.999-1.825-2.374V416.901z M271.405,422.85c-0.025,0.149-0.175,0.274-0.5,0.325v3.898h6.523v1.575h-6.523v6.724
			h-1.649v-6.724h-5.924v-1.575h5.924v-4.373L271.405,422.85z"/>
		<path fill="#FFFFFF" d="M284.133,422.15v8.248c1.949,3,5.648,3,9.947,3c2.875,0,6.374-0.075,8.449-0.2
			c-0.226,0.374-0.476,1.124-0.551,1.6c-1.725,0.05-4.499,0.1-7.023,0.1c-5.574,0-9.048,0-11.522-3.099
			c-1.1,1.125-2.274,2.225-3.199,3.099c0,0.2-0.05,0.274-0.225,0.375l-0.95-1.7c1.05-0.824,2.349-1.924,3.474-2.998v-6.824h-3.224
			v-1.6H284.133z M280.808,412.752c1.524,1.2,3.224,2.949,3.949,4.224l-1.399,0.975c-0.675-1.299-2.35-3.124-3.849-4.349
			L280.808,412.752z M302.154,426.824v1.35h-16.896v-1.35h4.674v-2.499h-3.649v-1.35h3.649v-2l2.1,0.15
			c-0.025,0.175-0.175,0.3-0.5,0.325v1.524h4.224v-2l2.1,0.15c-0.025,0.175-0.175,0.3-0.5,0.351v1.499h3.774v1.35h-3.774v2.499
			H302.154z M290.656,416.152v-1.75h-5.049v-1.225h6.523v4.199h-4.449v1.375c0,0.475,0.125,0.575,0.925,0.575h2.85
			c0.6,0,0.725-0.15,0.774-1.3c0.3,0.225,0.875,0.375,1.275,0.475c-0.15,1.65-0.575,2.05-1.85,2.05h-3.174
			c-1.774,0-2.25-0.325-2.25-1.775v-2.624H290.656z M292.781,429.074c-0.125,0.199-0.325,0.225-0.525,0.175
			c-1.375,1.149-3.449,2.374-5.224,3.149c-0.275-0.301-0.8-0.775-1.149-1.025c1.75-0.674,3.824-1.824,5.099-3.023L292.781,429.074z
			 M291.531,424.325v2.499h4.224v-2.499H291.531z M299.229,416.152v-1.75h-5.374v-1.225h6.873v4.199h-4.723v1.375
			c0,0.475,0.15,0.575,1.05,0.575h3.125c0.649,0,0.774-0.15,0.824-1.4c0.325,0.2,0.9,0.375,1.3,0.475
			c-0.175,1.725-0.6,2.149-1.925,2.149h-3.449c-1.875,0-2.375-0.325-2.375-1.8v-2.599H299.229z M296.179,428.349
			c2.099,0.949,4.399,2.225,5.749,3.273l-1.649,0.775c-1.175-1.025-3.274-2.3-5.299-3.274L296.179,428.349z"/>
		<path fill="#FFFFFF" d="M314.381,424.525l0.351-0.025l0.874,0.1c0,0.176-0.024,0.351-0.024,0.551
			c-0.301,6.448-0.575,8.723-1.225,9.497c-0.551,0.625-0.975,0.7-2.775,0.7c-0.6,0-1.274,0-1.975-0.051
			c-0.049-0.475-0.225-1.1-0.449-1.499c1.274,0.125,2.524,0.125,2.949,0.125c0.449,0,0.675-0.05,0.875-0.274
			c0.475-0.5,0.75-2.449,0.975-7.599h-4.374c-0.575,3.425-1.7,6.998-4.249,9.272c-0.25-0.35-0.775-0.824-1.175-1.1
			c3.3-2.85,4.024-8.447,4.3-12.697h-2.85v-8.223h9.947v8.223h-5.424c-0.1,0.926-0.175,1.95-0.324,3H314.381z M307.157,414.852
			v5.149h6.773v-5.149H307.157z M318.255,415.202l2.125,0.125c-0.025,0.175-0.15,0.3-0.476,0.35v13.497h-1.649V415.202z
			 M324.529,412.627l2.149,0.125c-0.024,0.2-0.149,0.3-0.475,0.35v19.97c0,1.2-0.351,1.725-1.1,1.999
			c-0.8,0.301-2.175,0.325-4.499,0.325c-0.1-0.45-0.375-1.225-0.65-1.7c0.926,0.025,1.775,0.025,2.475,0.025c2,0,2.1,0,2.1-0.649
			V412.627z"/>
		<path fill="#FFFFFF" d="M347.529,432.847c-2.199,0.4-5.123,0.575-7.673,0.575c-2.05,0-3.849-0.125-4.823-0.325
			c-3.025-0.674-4.324-2.574-4.324-4.773c0-1.875,1.049-3.824,2.549-5.324l1.449,0.75c-1.398,1.425-2.199,3.05-2.199,4.424
			c0,1.475,0.975,2.775,3.125,3.274c0.85,0.175,2.299,0.275,3.998,0.275c2.425,0,5.374-0.2,7.773-0.675L347.529,432.847z
			 M336.306,420.25c1.301-1.024,3.074-2.224,4.424-2.899v-0.025c-1.898,0.225-6.248,0.3-9.021,0.3c0-0.475,0-1.3-0.025-1.75h1.35
			c3.199,0,9.748-0.05,12.896-0.8l0.2,1.824c-0.825,0.125-1.425,0.25-2.624,0.75c-1.4,0.575-3.824,1.924-5.773,3.499L336.306,420.25
			z M347.503,423.8c-0.725-1.1-2.273-2.6-3.349-3.399l0.825-0.775c1.199,0.875,2.648,2.325,3.424,3.374L347.503,423.8z
			 M350.128,421.425c-0.699-1-2.174-2.499-3.35-3.374l0.825-0.8c1.225,0.925,2.675,2.35,3.424,3.399L350.128,421.425z"/>
		<path fill="#FFFFFF" d="M373.503,419.376c-0.074,0.275-0.35,0.45-0.725,0.45c-0.274,1.725-0.675,3.549-1.1,5.1
			c1.35,0.574,2.774,1.225,4.199,1.949l-0.8,1.674c-1.35-0.674-2.649-1.324-3.924-1.874c-1.2,3.599-2.925,6.224-5.574,7.973
			c-0.35-0.35-0.975-0.774-1.425-1.05c2.625-1.725,4.249-4.074,5.399-7.648c-2.524-0.999-4.824-1.699-6.674-1.85
			c-1.725,6.299-3.274,7.949-6.273,7.949s-3.574-2.4-3.574-3.924c0-3.875,4.024-5.674,8.498-5.699c0.524-2,1-4.449,1.35-7.048
			c-1.175,0.1-5.174,0.375-7.073,0.5c-0.1,0.175-0.3,0.3-0.524,0.35l-0.226-2.024c2.149-0.075,6.799-0.375,8.298-0.525
			c0.275-0.025,0.375-0.15,0.55-0.275l1.55,0.925c-0.125,0.2-0.325,0.3-0.625,0.4c-0.399,2.774-0.999,5.648-1.549,7.798
			c1.924,0.15,4.224,0.825,6.723,1.775c0.425-1.5,0.8-3.425,1.075-5.449L373.503,419.376z M361.131,424
			c-3.599,0.051-6.473,1.475-6.473,4.125c0,1.398,0.675,2.349,1.85,2.349C358.332,430.473,359.531,429.848,361.131,424z"/>
	</g>
</g>
</svg>
