<?xml version="1.0" encoding="utf-8"?>
<!-- Generator: Adobe Illustrator 14.0.0, SVG Export Plug-In . SVG Version: 6.00 Build 43363)  -->
<!DOCTYPE svg PUBLIC "-//W3C//DTD SVG 1.1//EN" "http://www.w3.org/Graphics/SVG/1.1/DTD/svg11.dtd">
<svg version="1.1" id="レイヤー_1" xmlns="http://www.w3.org/2000/svg" xmlns:xlink="http://www.w3.org/1999/xlink" x="0px"
	 y="0px" width="595.28px" height="841.89px" viewBox="0 0 595.28 841.89" enable-background="new 0 0 595.28 841.89"
	 xml:space="preserve">
<g id="レイヤー_1_1_" display="none">
	<path display="inline" fill="#F7F8F8" d="M245.793,428.876l-0.744,0.553c-0.528-1.104-1.417-2.832-2.304-4.369
		c-0.48,2.666-1.584,5.064-3.697,7.082l-0.648-0.625c2.952-2.783,3.816-6.359,3.816-10.44v-10.681h0.864v10.681
		c0,0.959-0.048,1.895-0.146,2.786C243.993,425.566,245.145,427.654,245.793,428.876z M240.657,414.98
		c-0.218,2.304-0.648,4.896-1.368,6.336l-0.77-0.24c0.792-1.464,1.248-3.984,1.394-6.192L240.657,414.98z M246.321,414.284
		c-0.504,1.56-1.318,3.792-2.184,5.737l-0.6-0.288c0.862-1.968,1.632-4.225,2.04-5.737L246.321,414.284z M248.265,426.716
		c-0.432,1.992-1.368,4.152-2.592,5.377l-0.768-0.432c1.271-1.201,2.184-3.268,2.566-5.16L248.265,426.716z M247.089,417.909
		c-0.168,0.312-0.384,0.6-0.576,0.864l-0.72-0.432c1.752-2.329,2.809-4.945,3.358-7.921l0.816,0.096
		c-0.144,0.792-0.336,1.536-0.552,2.28h2.854h0.146h0.12l0.574,0.096c-0.694,5.544-2.95,9.602-6.479,11.93l-0.624-0.625
		c1.656-1.031,3-2.447,4.056-4.201C249.273,419.301,248.29,418.604,247.089,417.909z M250.401,419.373
		c0.36-0.672,0.674-1.392,0.912-2.16c-0.744-0.624-1.704-1.2-2.88-1.776c-0.288,0.648-0.624,1.296-0.982,1.92
		C248.625,418.029,249.609,418.701,250.401,419.373z M251.554,416.493c0.264-0.912,0.48-1.896,0.648-2.929h-3.024
		c-0.144,0.432-0.312,0.864-0.479,1.272C249.826,415.388,250.786,415.94,251.554,416.493z M250.906,426.789
		c0.526,1.752,0.814,3.313,0.888,4.656l-0.888,0.168c-0.024-1.344-0.266-2.904-0.77-4.584L250.906,426.789z M260.626,424.269
		l-0.648,0.721c-1.654-1.271-2.854-3.625-3.552-7.489c-0.576,3.24-1.752,5.665-4.321,7.344l-0.646-0.625
		c2.809-1.799,3.913-4.487,4.345-8.255h-2.641v-0.816h2.734c0.12-1.44,0.192-3.024,0.218-4.752l0.84,0.024
		c-0.024,1.704-0.098,3.288-0.218,4.729h3.528v0.816H257C257.578,420.381,258.826,423.021,260.626,424.269z M254.266,426.742
		c0.816,1.727,1.32,3.264,1.562,4.607l-0.816,0.24c-0.216-1.344-0.696-2.904-1.439-4.584L254.266,426.742z M257.602,426.189
		c1.368,2.016,2.328,3.936,2.904,5.592l-0.84,0.313c-0.528-1.68-1.464-3.576-2.784-5.566L257.602,426.189z M258.346,410.756
		c0.912,1.032,1.562,2.016,1.944,2.952l-0.672,0.288c-0.386-0.912-0.984-1.872-1.824-2.904L258.346,410.756z"/>
	<path display="inline" fill="#F7F8F8" d="M269.193,418.437c-0.72-2.16-1.464-4.152-2.23-5.809l0.96-0.408
		c0.768,1.728,1.512,3.744,2.208,5.88c2.398-0.792,4.776-1.536,6.576-1.896c-0.648-1.44-1.97-3.577-2.93-4.705l0.842-0.456
		c1.03,1.224,2.398,3.6,3.048,4.993c0.384-0.048,0.72-0.072,1.032-0.072c3.646,0,5.521,1.584,5.521,4.92
		c0,2.736-1.848,4.561-5.208,4.561c-0.96,0-2.184-0.145-3.384-0.504l0.072-0.938c1.198,0.385,2.352,0.529,3.264,0.529
		c2.784,0,4.296-1.439,4.296-3.672c0-2.712-1.488-3.96-4.656-3.96c-1.655,0-4.873,0.936-8.185,2.088
		c1.368,4.175,2.544,8.689,3.216,12.312l-1.008,0.217c-0.624-3.576-1.8-8.088-3.12-12.217c-1.944,0.696-3.889,1.416-5.544,2.04
		l-0.336-0.96C265.281,419.805,267.249,419.109,269.193,418.437z"/>
	<path display="inline" fill="#F7F8F8" d="M289.425,416.108c0.792,0.024,1.632,0.048,2.568,0.048c2.52,0,5.424-0.096,8.208-0.313
		c-0.527-1.536-0.938-3.144-1.151-4.656l1.008-0.12c0.192,1.512,0.576,3.121,1.128,4.705c2.545-0.192,4.945-0.48,6.745-0.864
		l0.192,0.912c-1.801,0.36-4.129,0.624-6.625,0.84c1.08,2.88,2.616,5.542,4.344,7.203l-0.744,0.84
		c-2.902-1.176-5.688-1.824-8.544-1.824c-3.072,0-4.777,1.416-4.777,3.527c0,2.809,2.856,4.129,8.497,4.129
		c0.963,0,2.019-0.047,3.146-0.119l-0.023,0.936c-1.078,0.096-2.137,0.119-3.07,0.119c-6.361,0-9.529-1.752-9.529-5.135
		c0-2.617,2.28-4.322,5.617-4.322c2.76,0,5.4,0.553,7.873,1.441c-1.368-1.441-2.762-3.96-3.771-6.723
		c-2.928,0.216-6,0.312-8.712,0.312c-0.816,0-1.632,0-2.376-0.024v-0.913L289.425,416.108L289.425,416.108z"/>
	<path display="inline" fill="#F7F8F8" d="M318.369,414.788c0.384-1.416,0.672-2.736,0.863-3.84l1.009,0.12
		c-0.192,1.08-0.48,2.353-0.864,3.72h4.705v0.912h-4.969c-1.152,3.913-2.931,8.377-4.873,11.184l-0.89-0.525
		c1.921-2.664,3.624-6.89,4.729-10.658h-4.2v-0.912L318.369,414.788L318.369,414.788z M328.186,418.269
		c-0.021,0.504-0.021,1.368-0.021,2.328c0,1.584,0,3.576,0.021,5.064c1.656,0.672,3.289,1.656,4.584,2.688l-0.621,0.721
		c-1.152-0.984-2.547-1.85-3.963-2.473v0.936c0,2.496-1.318,3.865-4.176,3.865c-2.713,0-4.537-1.537-4.537-3.289
		c0-2.016,1.729-3.336,4.537-3.336c1.031,0,2.137,0.191,3.217,0.553c0-1.441,0-3.24,0-4.729c0-0.96,0-1.824,0-2.328H328.186
		L328.186,418.269z M324.01,425.613c-2.305,0-3.673,0.961-3.673,2.496c0,1.32,1.632,2.424,3.601,2.424c2.28,0,3.313-0.982,3.313-3
		c0-0.313,0-0.768,0-1.32C326.147,425.83,325.041,425.613,324.01,425.613z M332.746,417.909c-1.368-1.008-4.104-2.568-5.977-3.312
		l0.479-0.792c1.992,0.864,4.512,2.28,6,3.312L332.746,417.909z"/>
	<path display="inline" fill="#F7F8F8" d="M340.041,414.116c-0.145,1.848-0.217,3.696-0.217,5.208c0,5.953,2.328,9.914,4.177,9.914
		c1.224,0,2.208-1.992,2.929-4.752l0.863,0.359c-0.936,3.336-2.064,5.447-3.744,5.447c-2.398,0-5.208-4.344-5.208-10.92
		c0-1.56,0.048-3.432,0.168-5.328L340.041,414.116z M353.074,413.708c3.384,3.265,4.632,7.153,4.773,12.385l-1.056,0.098
		c-0.071-5.065-1.319-8.906-4.513-11.882L353.074,413.708z"/>
</g>
<g id="レイヤー_2">
	<g>
		<path fill="#FFFFFF" d="M263.823,412.19v1.7h-3.175v17.195c0,1.275-0.325,1.875-1.25,2.174c-0.975,0.301-2.725,0.301-5.198,0.301
			c-0.125-0.5-0.476-1.322-0.726-1.822c1.15,0.049,2.274,0.072,3.174,0.072c2.176,0,2.275,0,2.275-0.75v-17.169h-17.646v-1.7
			L263.823,412.19L263.823,412.19z M254.199,427.162h-8.873v2.074h-1.648v-11.447h10.521V427.162z M252.526,419.388h-7.198v6.174
			h7.198V419.388z"/>
		<path fill="#FFFFFF" d="M270.802,419.138c0,1.95-0.05,3.898-0.325,5.799c0.699,0.875,2.5,3.475,2.924,4.123l-1.148,1.176
			c-0.425-0.801-1.325-2.273-2.1-3.449c-0.524,2.475-1.524,4.799-3.274,6.873c-0.25-0.35-0.774-0.875-1.124-1.1
			c3.199-3.85,3.549-8.697,3.549-13.422v-8.748l1.999,0.125c-0.023,0.15-0.174,0.275-0.499,0.325L270.802,419.138L270.802,419.138z
			 M265.778,421.664c0.95-1.351,1.375-3.825,1.426-6.099l1.175,0.175c-0.05,2.399-0.425,5.074-1.524,6.625L265.778,421.664z
			 M274.301,414.89c-0.051,0.15-0.225,0.225-0.5,0.225c-0.449,1.475-1.3,3.724-1.975,5.099l-0.976-0.45
			c0.625-1.45,1.399-3.849,1.799-5.499L274.301,414.89z M276.7,428.011c-0.602,2.049-1.524,4.273-3.176,5.623l-1.249-0.85
			c1.551-1.199,2.574-3.299,3.1-5.225L276.7,428.011z M288.997,417.314h-3.524c0.601,3.649,1.824,7.049,3.851,8.598
			c-0.351,0.301-0.875,0.85-1.101,1.25c-1.6-1.375-2.675-3.725-3.375-6.474c-0.6,2.323-1.874,4.55-4.522,6.423
			c-0.226-0.324-0.699-0.85-1.051-1.074c3.524-2.5,4.399-5.647,4.573-8.723h-2.824v-0.2c-1.174,4.848-3.373,8.198-6.223,10.047
			c-0.2-0.375-0.6-0.875-0.95-1.174c1.425-0.852,2.7-2.201,3.749-3.975c-0.625-0.625-1.648-1.4-2.522-1.925l0.749-0.899
			c0.8,0.45,1.749,1.125,2.374,1.674c0.324-0.675,0.625-1.375,0.875-2.125c-0.649-0.525-1.675-1.149-2.523-1.574l0.624-1.025
			c0.774,0.35,1.649,0.825,2.3,1.3c0.25-0.925,0.476-1.9,0.625-2.924h-2.875c-0.799,2.424-1.898,4.624-3.199,6.173
			c-0.25-0.275-0.773-0.7-1.1-0.925c1.8-2.049,3.174-5.673,3.924-9.423l1.851,0.425c-0.051,0.2-0.226,0.3-0.524,0.3
			c-0.149,0.7-0.325,1.399-0.524,2.074h2.998l0.275-0.05l0.875,0.275c-0.025,0.15-0.1,0.225-0.15,0.3c-0.1,0.75-0.225,1.5-0.35,2.2
			h2.6v-5.449l1.925,0.125c-0.024,0.175-0.149,0.3-0.476,0.325v4.999h3.649v1.45H288.997z M278.675,433.259
			c0.024-1.299-0.226-3.324-0.575-4.898l1.375-0.199c0.425,1.549,0.675,3.574,0.675,4.873L278.675,433.259z M283.149,433.31
			c-0.198-1.35-0.899-3.375-1.648-4.924l1.325-0.4c0.799,1.525,1.522,3.574,1.772,4.898L283.149,433.31z M287.922,433.66
			c-0.5-1.475-1.773-3.85-2.974-5.6l1.324-0.523c1.249,1.725,2.55,4.049,3.074,5.523L287.922,433.66z M287.148,410.99
			c0.75,1.175,1.499,2.699,1.801,3.699l-1.226,0.525c-0.274-1.05-1-2.6-1.699-3.774L287.148,410.99z"/>
		<path fill="#FFFFFF" d="M309.223,431.085c-2.198,0.4-5.124,0.574-7.673,0.574c-2.05,0-3.849-0.125-4.823-0.324
			c-3.024-0.676-4.324-2.574-4.324-4.773c0-1.875,1.05-3.824,2.55-5.324l1.448,0.75c-1.397,1.424-2.198,3.049-2.198,4.424
			c0,1.475,0.975,2.773,3.125,3.273c0.85,0.176,2.299,0.275,3.998,0.275c2.425,0,5.374-0.199,7.772-0.674L309.223,431.085z
			 M298,418.488c1.301-1.024,3.074-2.224,4.425-2.899v-0.025c-1.898,0.225-6.249,0.3-9.022,0.3c0-0.475,0-1.3-0.024-1.75h1.35
			c3.199,0,9.747-0.05,12.896-0.8l0.2,1.824c-0.825,0.125-1.425,0.25-2.624,0.75c-1.4,0.575-3.824,1.924-5.773,3.499L298,418.488z
			 M309.198,422.039c-0.727-1.101-2.274-2.6-3.351-3.399l0.825-0.775c1.199,0.875,2.649,2.324,3.424,3.374L309.198,422.039z
			 M311.823,419.663c-0.7-1-2.175-2.499-3.351-3.374l0.825-0.8c1.226,0.925,2.675,2.35,3.424,3.399L311.823,419.663z"/>
		<path fill="#FFFFFF" d="M335.198,417.614c-0.074,0.275-0.351,0.45-0.726,0.45c-0.273,1.725-0.675,3.549-1.1,5.1
			c1.35,0.574,2.773,1.225,4.199,1.949l-0.801,1.674c-1.35-0.674-2.648-1.324-3.924-1.875c-1.199,3.6-2.925,6.225-5.573,7.973
			c-0.351-0.35-0.976-0.771-1.426-1.049c2.625-1.725,4.249-4.074,5.399-7.648c-2.524-1-4.824-1.697-6.674-1.85
			c-1.726,6.299-3.274,7.949-6.273,7.949s-3.574-2.4-3.574-3.924c0-3.875,4.024-5.675,8.498-5.7c0.524-2,1-4.449,1.351-7.048
			c-1.175,0.1-5.174,0.375-7.073,0.5c-0.1,0.175-0.3,0.3-0.524,0.35l-0.226-2.024c2.149-0.075,6.799-0.375,8.298-0.525
			c0.275-0.025,0.375-0.15,0.55-0.275l1.551,0.925c-0.125,0.2-0.325,0.3-0.625,0.4c-0.399,2.774-0.999,5.648-1.55,7.798
			c1.925,0.15,4.225,0.823,6.724,1.774c0.425-1.5,0.8-3.425,1.074-5.45L335.198,417.614z M322.825,422.238
			c-3.6,0.051-6.474,1.475-6.474,4.125c0,1.398,0.676,2.348,1.851,2.348C320.028,428.71,321.226,428.085,322.825,422.238z"/>
	</g>
</g>
</svg>
