<?xml version="1.0" encoding="utf-8"?>
<!-- Generator: Adobe Illustrator 14.0.0, SVG Export Plug-In . SVG Version: 6.00 Build 43363)  -->
<!DOCTYPE svg PUBLIC "-//W3C//DTD SVG 1.1//EN" "http://www.w3.org/Graphics/SVG/1.1/DTD/svg11.dtd">
<svg version="1.1" id="レイヤー_1" xmlns="http://www.w3.org/2000/svg" xmlns:xlink="http://www.w3.org/1999/xlink" x="0px"
	 y="0px" width="253.024px" height="23.895px" viewBox="10.986 0 253.024 23.895" enable-background="new 10.986 0 253.024 23.895"
	 xml:space="preserve">
<g id="レイヤー_1_1_" display="none">
	<path display="inline" fill="#F7F9F9" d="M7.669,19.107L6.925,19.66c-0.527-1.104-1.417-2.832-2.304-4.369
		c-0.479,2.666-1.584,5.063-3.697,7.082l-0.647-0.625c2.952-2.783,3.815-6.359,3.815-10.44V0.627h0.864v10.681
		c0,0.959-0.049,1.896-0.146,2.786C5.869,15.797,7.021,17.885,7.669,19.107z M2.533,5.211c-0.218,2.304-0.648,4.896-1.368,6.336
		l-0.77-0.24c0.792-1.464,1.248-3.983,1.394-6.191L2.533,5.211z M8.196,4.515c-0.504,1.561-1.318,3.792-2.184,5.737l-0.6-0.288
		c0.862-1.968,1.632-4.225,2.04-5.737L8.196,4.515z M10.141,16.948c-0.433,1.991-1.368,4.151-2.593,5.377L6.78,21.893
		c1.271-1.201,2.186-3.264,2.568-5.16L10.141,16.948z M8.965,8.14C8.797,8.452,8.581,8.74,8.39,9.004L7.669,8.573
		c1.752-2.329,2.81-4.945,3.358-7.922l0.815,0.097c-0.144,0.792-0.336,1.536-0.552,2.279h2.854h0.146h0.12l0.574,0.097
		c-0.694,5.544-2.95,9.602-6.479,11.93l-0.624-0.625c1.656-1.031,3-2.447,4.057-4.201C11.148,9.532,10.166,8.835,8.965,8.14z
		 M12.276,9.604c0.359-0.672,0.673-1.392,0.912-2.16c-0.744-0.624-1.704-1.199-2.88-1.775c-0.288,0.647-0.624,1.296-0.982,1.92
		C10.501,8.26,11.484,8.932,12.276,9.604z M13.43,6.724c0.264-0.912,0.479-1.896,0.647-2.929h-3.023
		c-0.145,0.432-0.313,0.864-0.479,1.271C11.702,5.619,12.662,6.171,13.43,6.724z M12.781,17.02c0.527,1.752,0.815,3.313,0.889,4.656
		l-0.889,0.168c-0.023-1.344-0.265-2.904-0.769-4.584L12.781,17.02z M22.502,14.5l-0.647,0.721C20.199,13.95,19,11.596,18.302,7.732
		c-0.575,3.24-1.752,5.665-4.32,7.345l-0.646-0.625c2.81-1.8,3.913-4.487,4.346-8.255h-2.642V5.38h2.734
		c0.12-1.44,0.191-3.024,0.217-4.752l0.841,0.023c-0.023,1.704-0.098,3.288-0.217,4.729h3.527v0.816h-3.266
		C19.454,10.613,20.702,13.252,22.502,14.5z M16.142,16.973c0.815,1.729,1.319,3.266,1.562,4.607l-0.815,0.239
		c-0.217-1.344-0.696-2.903-1.439-4.584L16.142,16.973z M19.478,16.42c1.368,2.016,2.328,3.936,2.903,5.592l-0.84,0.313
		c-0.527-1.681-1.464-3.576-2.784-5.568L19.478,16.42z M20.222,0.988c0.911,1.031,1.561,2.016,1.943,2.951l-0.672,0.288
		c-0.386-0.912-0.984-1.872-1.824-2.903L20.222,0.988z"/>
	<path display="inline" fill="#F7F9F9" d="M31.068,8.668c-0.72-2.16-1.464-4.152-2.23-5.81l0.96-0.407
		c0.769,1.728,1.513,3.743,2.208,5.88c2.398-0.792,4.774-1.536,6.576-1.896c-0.647-1.439-1.97-3.577-2.93-4.705l0.842-0.456
		c1.03,1.225,2.398,3.601,3.048,4.993c0.384-0.048,0.72-0.072,1.03-0.072c3.648,0,5.521,1.585,5.521,4.921
		c0,2.735-1.848,4.561-5.208,4.561c-0.96,0-2.184-0.145-3.384-0.504l0.07-0.938c1.2,0.386,2.354,0.529,3.266,0.529
		c2.784,0,4.296-1.438,4.296-3.673c0-2.712-1.487-3.96-4.655-3.96c-1.656,0-4.873,0.936-8.186,2.088
		c1.368,4.176,2.544,8.689,3.216,12.313L34.5,21.748c-0.624-3.576-1.8-8.088-3.12-12.217c-1.943,0.695-3.89,1.416-5.544,2.04
		L25.5,10.611C27.156,10.036,29.125,9.34,31.068,8.668z"/>
	<path display="inline" fill="#F7F9F9" d="M51.301,6.339c0.792,0.024,1.633,0.048,2.568,0.048c2.521,0,5.424-0.096,8.207-0.312
		c-0.526-1.536-0.937-3.145-1.15-4.656l1.009-0.12c0.19,1.512,0.575,3.121,1.128,4.705c2.545-0.192,4.944-0.48,6.745-0.864
		l0.19,0.912c-1.802,0.36-4.129,0.624-6.625,0.84c1.08,2.88,2.616,5.543,4.345,7.202l-0.743,0.84
		c-2.904-1.176-5.688-1.824-8.544-1.824c-3.072,0-4.777,1.416-4.777,3.527c0,2.811,2.855,4.129,8.497,4.129
		c0.961,0,2.018-0.047,3.146-0.119l-0.021,0.938c-1.08,0.096-2.138,0.119-3.071,0.119c-6.36,0-9.528-1.752-9.528-5.137
		c0-2.615,2.279-4.32,5.617-4.32c2.76,0,5.399,0.553,7.872,1.439c-1.368-1.439-2.762-3.959-3.77-6.722
		c-2.929,0.216-6,0.312-8.712,0.312c-0.815,0-1.633,0-2.376-0.023V6.339H51.301z"/>
	<path display="inline" fill="#F7F9F9" d="M80.244,5.019c0.385-1.416,0.672-2.735,0.862-3.84l1.01,0.12
		c-0.191,1.08-0.479,2.353-0.863,3.72h4.704v0.912h-4.97c-1.15,3.913-2.929,8.377-4.872,11.185l-0.889-0.525
		c1.92-2.664,3.624-6.89,4.729-10.658h-4.199V5.02L80.244,5.019L80.244,5.019z M90.062,8.5c-0.022,0.504-0.022,1.368-0.022,2.328
		c0,1.584,0,3.576,0.022,5.063c1.655,0.672,3.289,1.655,4.584,2.688l-0.623,0.721c-1.151-0.984-2.545-1.85-3.961-2.473v0.936
		c0,2.496-1.319,3.865-4.177,3.865c-2.713,0-4.536-1.537-4.536-3.289c0-2.016,1.729-3.336,4.536-3.336
		c1.031,0,2.137,0.19,3.217,0.553c0-1.439,0-3.24,0-4.729c0-0.96,0-1.824,0-2.328H90.062L90.062,8.5z M85.885,15.844
		c-2.306,0-3.673,0.961-3.673,2.496c0,1.32,1.633,2.424,3.602,2.424c2.279,0,3.313-0.98,3.313-3c0-0.312,0-0.768,0-1.32
		C88.021,16.061,86.916,15.844,85.885,15.844z M94.621,8.14c-1.367-1.008-4.104-2.567-5.978-3.312l0.479-0.792
		c1.992,0.863,4.513,2.279,6,3.312L94.621,8.14z"/>
	<path display="inline" fill="#F7F9F9" d="M101.916,4.347c-0.146,1.848-0.217,3.696-0.217,5.208c0,5.953,2.327,9.914,4.177,9.914
		c1.226,0,2.209-1.992,2.931-4.752l0.862,0.359c-0.938,3.336-2.063,5.446-3.744,5.446c-2.399,0-5.208-4.345-5.208-10.92
		c0-1.56,0.049-3.432,0.168-5.328L101.916,4.347z M114.949,3.939c3.384,3.266,4.632,7.153,4.774,12.386l-1.057,0.098
		c-0.07-5.065-1.318-8.906-4.515-11.882L114.949,3.939z"/>
</g>
<g id="レイヤー_2" display="none">
	<g display="inline">
		<path fill="#FFFFFF" d="M-7.377,2.604H8.519l0.15-0.074l1.7,1.3c-0.075,0.1-0.15,0.175-0.301,0.225
			C8.044,13.451,3.696,18.35-3.953,21.248c-0.275-0.449-0.774-1.101-1.125-1.476C2.196,17.1,6.395,12.451,8.019,4.329H-7.377V2.604z
			 M11.669-1.871c1.5,0,2.724,1.225,2.724,2.75c0,1.5-1.225,2.725-2.724,2.725c-1.525,0-2.75-1.225-2.75-2.725
			C8.919-0.695,10.194-1.871,11.669-1.871z M13.568,0.879c0-1.074-0.85-1.925-1.898-1.925S9.744-0.195,9.744,0.879
			c0,1.05,0.875,1.924,1.925,1.924C12.768,2.803,13.568,1.879,13.568,0.879z"/>
		<path fill="#FFFFFF" d="M35.044,7.703c-0.05,0.101-0.175,0.199-0.325,0.25C32.67,15.5,28.496,19.174,21.023,21.248
			c-0.225-0.449-0.699-1.074-1.05-1.449C26.771,18.1,30.994,14.6,32.569,8.802H16.023v-1.7h17.296l0.25-0.148L35.044,7.703z
			 M32.694,2.354H18.448V0.704h14.246L32.694,2.354L32.694,2.354z"/>
		<path fill="#FFFFFF" d="M50.946,14.176c0.601,1.174,1.399,2.199,2.374,3.074c1.625-0.775,3.625-1.926,4.824-2.799l1.5,1.1
			c-0.101,0.125-0.325,0.174-0.551,0.125c-1.225,0.748-3.123,1.725-4.698,2.449c1.8,1.299,4.049,2.174,6.698,2.647
			c-0.349,0.324-0.75,0.949-0.974,1.375c-5.148-1.073-8.799-3.674-10.724-7.848c-1.023,0.799-2.299,1.549-3.674,2.225l0.375,0.074
			c-0.025,0.15-0.176,0.275-0.5,0.301v3.05c1.949-0.201,4.1-0.451,6.198-0.699l0.05,1.299c-3.474,0.475-7.147,0.924-9.447,1.199
			c-0.024,0.201-0.149,0.326-0.324,0.375l-0.75-1.726l2.648-0.274v-2.849c-1.724,0.699-3.549,1.273-5.224,1.648
			c-0.2-0.375-0.625-0.975-0.976-1.273c3.25-0.625,7.023-1.899,9.522-3.475h-9.123v-1.4h10.373v-1.874l2.199,0.15
			c-0.025,0.176-0.176,0.301-0.5,0.35v1.374h10.499v1.4L50.946,14.176L50.946,14.176z M43.823,6.303V4.878h-5.749V3.604h5.749V1.929
			h-3.074c-0.325,0.601-0.65,1.149-0.976,1.601c-0.274-0.176-0.774-0.45-1.148-0.602c0.75-0.975,1.424-2.499,1.875-3.974
			l1.674,0.523c-0.075,0.177-0.25,0.227-0.475,0.201c-0.125,0.324-0.25,0.674-0.4,1.023h2.524v-1.85l1.948,0.124
			c-0.023,0.176-0.148,0.301-0.475,0.352v1.374h4.599v1.226h-4.599v1.675h5.573v1.274h-5.573v1.425h4.749V9.45
			c0,1.4-0.775,1.426-3,1.426c-0.074-0.375-0.324-0.826-0.476-1.151h1.351c0.575,0,0.625,0,0.625-0.274V7.477h-3.249v4.2h-1.475
			v-4.2h-3.074v3.526h-1.375v-4.7H43.823z M54.245,0.156c-0.025,0.148-0.15,0.273-0.477,0.323v8.474h-1.55V0.004L54.245,0.156z
			 M60.193-0.771c-0.023,0.177-0.148,0.302-0.475,0.352V9.653c0,1.7-0.475,1.849-4.523,1.849c-0.074-0.424-0.324-1.024-0.55-1.424
			c0.825,0.024,1.601,0.051,2.175,0.051c1.199,0,1.351,0,1.351-0.476V-0.871L60.193-0.771z"/>
		<path fill="#FFFFFF" d="M67.472,14.676c-1.175,0.75-2.398,1.449-3.624,2.049c-0.225-0.399-0.647-1.024-0.975-1.375
			c4.325-2,8.646-5.422,10.646-8.373l2.477,0.15c-0.052,0.176-0.25,0.301-0.5,0.325c2.424,2.874,6.896,5.999,10.747,7.598
			c-0.375,0.398-0.802,1.023-1.074,1.498c-1.201-0.574-2.476-1.273-3.727-2.074v7.523h-1.698v-0.775H69.123v0.9h-1.65L67.472,14.676
			L67.472,14.676z M65.624,2.954v2.924h-1.625V1.406h9.521v-2.551l2.227,0.149c-0.025,0.176-0.177,0.301-0.5,0.325v2.075h9.673
			v4.473h-1.701V2.954H65.624z M72.173,5.053c-0.103,0.15-0.276,0.225-0.55,0.225c-1.625,1.926-4.15,3.925-6.425,5.175
			c-0.25-0.324-0.773-0.949-1.101-1.226c2.176-1.125,4.649-2.999,6.149-4.924L72.173,5.053z M80.194,13.65
			c-2.272-1.573-4.397-3.349-5.772-5.022c-1.225,1.6-3.173,3.397-5.448,5.022H80.194z M69.123,19.699h10.622v-4.523H69.123V19.699z
			 M83.394,10.402c-1.375-1.475-4.249-3.648-6.624-5.124l1.125-1c2.375,1.4,5.3,3.5,6.749,4.976L83.394,10.402z"/>
		<path fill="#FFFFFF" d="M110.793,10.477h-7.297c1.975,1.824,5.022,3.324,7.998,4.048c-0.375,0.351-0.826,0.949-1.074,1.375
			c-0.603-0.176-1.176-0.35-1.775-0.575v6.75h-1.549v-0.9h-4.924v1h-1.5v-8.248h5.022c-1.674-0.949-3.174-2.15-4.299-3.449h-3.897
			c-1.201,1.324-2.677,2.475-4.4,3.449h5.101v8.148h-1.574v-0.9H91.8v1h-1.5v-6.898c-0.549,0.226-1.1,0.449-1.674,0.65
			c-0.201-0.352-0.726-0.977-1.051-1.25c3.049-1.025,5.674-2.426,7.647-4.199h-7.098V8.952h8.547c0.524-0.624,0.951-1.3,1.324-1.999
			h-8.047V0.031h8.122v6.772l0.226-0.5l2,0.574c-0.051,0.149-0.25,0.25-0.576,0.274c-0.299,0.625-0.623,1.226-1.022,1.8h12.096
			L110.793,10.477L110.793,10.477z M96.447,5.553V1.429h-4.948v4.124H96.447z M96.623,19.699v-4.3h-4.824v4.3H96.623z
			 M109.094,0.031v6.923h-8.172V0.031H109.094z M102.172,19.699h4.924v-4.3h-4.924V19.699z M107.469,5.553V1.429h-4.998v4.124
			H107.469z"/>
		<path fill="#FFFFFF" d="M118.072,18.898c0,1.052,0.525,1.302,3.275,1.302h9.873c2.324,0,2.699-0.552,2.924-3.5
			c0.449,0.25,1.15,0.524,1.625,0.6c-0.35,3.625-1.051,4.5-4.549,4.5h-9.748c-3.897,0-5.049-0.525-5.049-2.875v-6.598h8.848V7.778
			h-8.571V6.579c-0.851,1.147-1.75,2.174-2.677,3.049c-0.299-0.325-0.924-0.851-1.35-1.125c2.525-2.199,4.975-5.974,6.424-9.772
			l2.1,0.7c-0.049,0.174-0.274,0.274-0.549,0.25c-0.301,0.726-0.649,1.476-1.024,2.199h13.621l0.948,0.05
			c-0.198,1.374-0.049,11.846-1.323,13.372c-0.523,0.699-1.074,0.85-2.824,0.85c-0.65,0-1.424-0.024-2.226-0.075
			c-0.024-0.5-0.198-1.175-0.475-1.601c1.375,0.103,2.625,0.125,3.1,0.125c0.449,0,0.726-0.049,0.925-0.324
			c0.575-0.676,0.825-3.322,1.051-10.771h-13.697c-0.549,0.95-1.125,1.874-1.75,2.725h9.998v7.622h-8.897v5.046H118.072z"/>
		<path fill="#FFFFFF" d="M150.948,13.801c0.674,1.199,1.549,2.299,2.598,3.225c1.524-0.727,3.426-1.85,4.549-2.698l1.5,1.1
			c-0.1,0.125-0.299,0.174-0.525,0.125c-1.147,0.674-2.973,1.648-4.473,2.348c1.824,1.353,4.049,2.351,6.549,2.9
			c-0.352,0.35-0.774,0.975-0.975,1.4c-4.949-1.302-8.773-4.226-10.873-8.398h-0.051c-1.023,0.924-2.324,1.799-3.748,2.574
			l0.524,0.1c-0.024,0.176-0.176,0.301-0.5,0.351v3l6.474-0.802l0.051,1.302c-3.824,0.549-7.924,1.125-10.473,1.448
			c0,0.199-0.15,0.302-0.326,0.351L140.6,20.4c0.949-0.1,2.074-0.225,3.299-0.375v-2.85c-1.698,0.801-3.5,1.426-5.147,1.85
			c-0.228-0.397-0.65-0.975-0.976-1.272c3.199-0.726,6.896-2.199,9.322-3.949h-8.973v-1.375h10.422v-2.224l2.174,0.149
			c-0.022,0.176-0.147,0.301-0.475,0.351v1.724h10.547v1.375h-9.846V13.801z M137.849,7.928c1.324-0.451,3.174-1.176,5.101-1.926
			l0.299,1.301c-1.625,0.674-3.25,1.35-4.324,1.773c0,0.2-0.1,0.325-0.25,0.399L137.849,7.928z M139.648,0.429
			c1.125,0.727,2.5,1.8,3.125,2.624l-1.024,1.025c-0.625-0.801-1.976-1.949-3.101-2.726L139.648,0.429z M145.773-0.996
			c-0.024,0.15-0.149,0.275-0.5,0.325v11.423h-1.576V-1.145L145.773-0.996z M152.795,8.352V4.003h-6.273V2.629h6.273v-3.774
			l2.176,0.149c-0.025,0.176-0.176,0.301-0.5,0.35v3.275h6.398v1.374h-6.398v4.349h5.598v1.375h-12.745V8.352H152.795z"/>
	</g>
</g>
<g id="レイヤー_3" display="none">
	<g display="inline">
		<path fill="#FFFFFF" d="M10.457,12.826c1.898-2,5.849-6.398,7.272-7.924c0.649-0.648,1.299-0.948,1.949-0.948
			c0.675,0,1.35,0.35,2.024,0.948c3.225,2.949,8.423,8.725,12.196,13.623l-1.5,1.375C28.853,14.977,23.629,9.052,20.83,6.454
			c-0.426-0.4-0.75-0.625-1.075-0.625s-0.625,0.25-1.025,0.625c-1.175,1.272-4.823,5.473-6.499,7.272
			c0.025,0.049,0.025,0.125,0.025,0.174c0,0.201-0.1,0.4-0.25,0.525L10.457,12.826z M29.403,0.156c1.525,0,2.774,1.25,2.774,2.799
			c0,1.55-1.25,2.8-2.774,2.8c-1.574,0-2.823-1.25-2.823-2.8C26.578,1.354,27.878,0.156,29.403,0.156z M31.352,2.954
			c0-1.101-0.875-1.999-1.95-1.999c-1.1,0-2,0.898-2,1.999c0,1.075,0.9,1.975,2,1.975C30.528,4.928,31.352,3.979,31.352,2.954z"/>
		<path fill="#FFFFFF" d="M38.306,7.178c0.75,1.524,1.575,3.924,1.875,5.373l-1.398,0.375c-0.301-1.449-1.075-3.724-1.825-5.324
			L38.306,7.178z M53.227,7.353c-0.049,0.226-0.299,0.274-0.523,0.249c-1.949,7.298-5.624,11.773-11.672,14.223
			c-0.2-0.302-0.65-0.875-0.976-1.15c5.974-2.35,9.398-6.447,11.222-13.896L53.227,7.353z M44.38,5.978
			c0.524,1.675,1,4.074,1.175,5.674l-1.475,0.274c-0.15-1.6-0.625-3.898-1.176-5.623L44.38,5.978z"/>
		<path fill="#FFFFFF" d="M71.453,13.775c-2.551-1.375-6.05-2.999-8.772-4.073v12.498h-1.875V0.479l2.524,0.15
			c-0.024,0.275-0.227,0.45-0.649,0.525v7.298l0.375-0.524c2.924,1.074,6.798,2.799,9.396,4.173L71.453,13.775z"/>
		<path fill="#FFFFFF" d="M83.206,11.452c-1.125,2.923-2.773,5.5-4.699,7.397l-1.45-0.95c1.875-1.75,3.5-4.147,4.523-7.048
			L83.206,11.452z M88.555,7.602v11.822c0,2.725-1.926,2.725-5.924,2.725c-0.102-0.448-0.301-1.174-0.551-1.674
			C82.805,20.5,83.606,20.5,84.28,20.5h1.45c0.7,0,1.024-0.451,1.024-1.051V7.602h-8.498V5.928h8.498V0.729l2.375,0.125
			c-0.025,0.25-0.2,0.427-0.574,0.476v4.6h8.447v1.674L88.555,7.602L88.555,7.602z M93.028,10.677
			c1.824,2.024,3.925,4.948,5.273,7.272l-1.6,0.926c-1.226-2.299-3.425-5.498-5.099-7.423L93.028,10.677z M92.729,0.504
			c1.125,1,2.398,2.523,3.123,3.648l-0.949,0.726c-0.725-1.101-2.049-2.724-3.125-3.624L92.729,0.504z M96.327-0.621
			c1.149,1.025,2.45,2.525,3.149,3.625l-0.949,0.75c-0.727-1.102-2.075-2.675-3.125-3.625L96.327-0.621z"/>
		<path fill="#FFFFFF" d="M116.202,13.775c-2.55-1.375-6.048-2.999-8.771-4.073v12.498h-1.875V0.479l2.523,0.15
			c-0.023,0.275-0.226,0.45-0.648,0.525v7.298l0.375-0.524c2.924,1.074,6.797,2.799,9.396,4.173L116.202,13.775z"/>
		<path fill="#FFFFFF" d="M127.555,4.403c-0.025,0.227-0.25,0.375-0.574,0.427c-0.149,6.723-0.701,12.847-4.549,17.319
			c-0.399-0.299-1-0.674-1.5-0.948c3.726-4.05,4.174-10.298,4.248-17.021L127.555,4.403z M134.028,18.799
			c4.177-2.023,6.875-5.672,8.324-10.046c0.375,0.325,1.125,0.75,1.549,0.975c-1.772,5.048-4.873,8.773-10.196,11.296
			c-0.074,0.201-0.25,0.4-0.425,0.5l-1.301-1.647l0.275-0.375V1.156l2.324,0.125c-0.025,0.225-0.199,0.424-0.552,0.475
			L134.028,18.799L134.028,18.799z"/>
	</g>
</g>
<g id="レイヤー_4" display="none">
	<g display="inline">
		<path fill="#FFFFFF" d="M30.968,15.275l2.999-1.073c0.075,0.323,0.15,0.675,0.3,1.475c-2.648,1.074-5.423,2.174-7.198,2.85
			c-0.024,0.199-0.149,0.351-0.3,0.399l-0.85-1.899c0.95-0.301,2.148-0.725,3.449-1.175V7.502h-3.024V5.902h3.024V-0.07l2.099,0.15
			c-0.025,0.174-0.175,0.273-0.5,0.324v5.497h2.824v1.601h-2.824L30.968,15.275L30.968,15.275z M42.115,20.524h7.197v1.551H32.542
			v-1.551h7.923V16.8h-5.999v-1.575h5.999v-2.849h-5.674V0.905h13.196v11.473h-5.873v2.849h6.197v1.575h-6.197L42.115,20.524
			L42.115,20.524z M36.391,2.379v3.522h4.074V2.379H36.391z M36.391,10.902h4.074v-3.6h-4.074V10.902z M46.339,5.902V2.379h-4.224
			v3.522H46.339z M46.339,10.902v-3.6h-4.224v3.6H46.339z"/>
		<path fill="#FFFFFF" d="M51.344,20.125h22.669v1.674H51.344V20.125z M73.313,4.803v1.65H52.219v-1.65h9.522v-5.098l2.225,0.148
			c-0.025,0.176-0.15,0.301-0.5,0.352v4.598H73.313z M57.192,7.828c1.301,3.373,2.199,7.672,2.351,10.547
			c-0.175,0-0.351,0.024-1.726,0.375c-0.1-2.824-1-7.174-2.225-10.522L57.192,7.828z M70.365,8.152
			c-0.074,0.176-0.301,0.325-0.625,0.351c-0.75,3.299-2.148,8.174-3.324,10.923L64.916,19c1.1-2.851,2.374-7.873,3.023-11.373
			L70.365,8.152z"/>
		<path fill="#FFFFFF" d="M94.389,20.399c-2.199,0.399-5.124,0.575-7.674,0.575c-2.049,0-3.849-0.125-4.823-0.325
			c-3.023-0.675-4.324-2.573-4.324-4.773c0-1.874,1.051-3.824,2.551-5.323l1.448,0.75c-1.398,1.425-2.198,3.05-2.198,4.424
			c0,1.476,0.975,2.774,3.124,3.274c0.851,0.175,2.3,0.274,3.999,0.274c2.424,0,5.373-0.2,7.772-0.676L94.389,20.399z M83.167,7.803
			c1.3-1.025,3.074-2.225,4.424-2.898V4.879c-1.899,0.225-6.248,0.299-9.022,0.299c0-0.475,0-1.299-0.023-1.749h1.35
			c3.199,0,9.747-0.05,12.896-0.8l0.199,1.824c-0.824,0.125-1.425,0.25-2.624,0.75c-1.399,0.573-3.823,1.924-5.773,3.499
			L83.167,7.803z M94.365,11.352c-0.726-1.1-2.274-2.6-3.351-3.397l0.825-0.775c1.2,0.875,2.648,2.324,3.425,3.374L94.365,11.352z
			 M96.99,8.977c-0.7-0.999-2.176-2.498-3.351-3.373l0.824-0.801c1.225,0.926,2.675,2.35,3.425,3.4L96.99,8.977z"/>
		<path fill="#FFFFFF" d="M120.365,6.928c-0.074,0.275-0.351,0.449-0.726,0.449c-0.274,1.725-0.676,3.55-1.1,5.1
			c1.35,0.574,2.772,1.226,4.198,1.949l-0.801,1.675c-1.35-0.675-2.647-1.325-3.924-1.874c-1.199,3.6-2.924,6.224-5.574,7.974
			c-0.35-0.351-0.975-0.775-1.424-1.051c2.625-1.725,4.248-4.073,5.398-7.647c-2.523-0.999-4.824-1.7-6.674-1.851
			c-1.726,6.3-3.273,7.948-6.273,7.948c-2.998,0-3.574-2.398-3.574-3.924c0-3.875,4.025-5.674,8.498-5.699
			c0.525-1.999,1-4.449,1.351-7.048c-1.175,0.102-5.175,0.375-7.072,0.5c-0.101,0.175-0.301,0.3-0.525,0.351l-0.225-2.024
			c2.147-0.074,6.799-0.375,8.297-0.525c0.275-0.023,0.375-0.148,0.551-0.273l1.549,0.925c-0.125,0.2-0.323,0.3-0.625,0.4
			c-0.397,2.772-0.998,5.647-1.549,7.798c1.924,0.148,4.226,0.825,6.724,1.773c0.426-1.5,0.801-3.424,1.075-5.448L120.365,6.928z
			 M107.991,11.552c-3.599,0.05-6.474,1.475-6.474,4.124c0,1.399,0.676,2.35,1.851,2.35C105.192,18.025,106.391,17.4,107.991,11.552
			z"/>
	</g>
</g>
<g id="レイヤー_5" display="none">
	<g display="inline">
		<path fill="#FFFFFF" d="M-20.276-0.595c-0.05,0.175-0.25,0.3-0.5,0.35c2.476,2.898,6.999,5.924,10.822,7.448
			c-0.375,0.399-0.775,1-1.05,1.475c-3.874-1.75-8.373-4.873-10.848-7.772C-24,3.628-28.199,6.802-32.473,8.853
			c-0.225-0.375-0.649-1-0.975-1.351c4.349-1.949,8.673-5.273,10.722-8.223L-20.276-0.595z M-21.301,15.275
			c0.625,0.976,1.425,1.824,2.375,2.574c1.949-1.05,4.398-2.574,5.849-3.749l1.549,1.175c-0.125,0.125-0.325,0.176-0.55,0.125
			c-1.45,1.024-3.674,2.324-5.599,3.3c2.024,1.226,4.523,2.023,7.397,2.449c-0.375,0.351-0.825,1.024-1.05,1.476
			c-5.399-0.976-9.523-3.351-11.697-7.35H-27v5.148c2.05-0.175,4.324-0.399,6.549-0.6v1.425c-3.824,0.425-7.923,0.85-10.397,1.074
			c-0.05,0.199-0.175,0.324-0.375,0.35l-0.625-1.85l3.199-0.274V6.728h5.949V3.679l2.199,0.125c-0.025,0.174-0.15,0.299-0.5,0.351
			v2.573h6.148v8.548L-21.301,15.275L-21.301,15.275z M-16.527,8.103H-27v2.199h10.473V8.103z M-26.999,11.601v2.3h10.473v-2.3
			H-26.999z"/>
		<path fill="#FFFFFF" d="M-7.198,22.599V11.726h9.073v10.648H0.2v-1.025h-5.8v1.25H-7.198z M0.2,13.351h-5.8v6.373h5.8V13.351z
			 M9.773,0.278v8.8H-3.174v-8.8H9.773z M8.073,7.478V1.903H-1.55v5.574L8.073,7.478L8.073,7.478z M4.55,11.726h9.372v10.673h-1.674
			v-1.074H6.174v1.25H4.55V11.726z M6.174,19.724h6.073v-6.373H6.174V19.724z"/>
		<path fill="#FFFFFF" d="M37.997,1.204v18.995c0,2.3-1.101,2.323-5.823,2.273c-0.075-0.425-0.35-1.175-0.6-1.625
			c0.925,0.025,1.823,0.051,2.549,0.051c2.075,0,2.2,0,2.2-0.699v-5.425h-7.198v7.6H27.5v-7.6h-6.573
			c-0.375,2.85-1.225,5.773-3.199,7.975c-0.25-0.326-0.898-0.9-1.273-1.125c2.799-3.149,3.073-7.648,3.073-11.224V1.204H37.997z
			 M21.177,10.401c0,0.875-0.025,1.801-0.101,2.774H27.5V8.802h-6.323V10.401z M27.5,2.804h-6.323v4.424H27.5V2.804z M36.323,7.228
			V2.804h-7.198v4.424H36.323z M29.125,13.176h7.198V8.802h-7.198V13.176z"/>
		<path fill="#FFFFFF" d="M56.774,19.175c0.999-0.025,3.675-0.125,5.248-0.375c0.025,0.549,0.05,1.25,0.102,1.799
			c-1.65,0.176-4.149,0.275-5.174,0.275H50.7c-3.773,0-5.6-1.65-5.6-5.225V1.079l2.449,0.148c-0.05,0.25-0.225,0.399-0.675,0.45
			v8.148c3.824-1.2,9.147-3.199,12.396-4.949l1.274,1.725c-0.075,0.05-0.2,0.074-0.3,0.074c-0.125,0-0.226-0.024-0.351-0.074
			c-3.023,1.524-8.723,3.624-13.021,4.924V15.7c0,2.523,1.225,3.475,3.8,3.475H56.774z M59.123,0.354
			c1.149,1.024,2.398,2.574,3.1,3.674l-0.95,0.726c-0.698-1.101-1.999-2.726-3.049-3.674L59.123,0.354z M62.197-1.146
			c1.125,1.024,2.399,2.549,3.101,3.648l-0.95,0.725c-0.699-1.1-2.023-2.699-3.049-3.647L62.197-1.146z"/>
		<path fill="#FFFFFF" d="M67.878,2.128c2.6,0.825,5.599,2.125,7.448,3.399l-0.95,1.574c-1.799-1.274-4.748-2.6-7.298-3.475
			L67.878,2.128z M67.778,19.449C76.65,16.7,82.55,11.726,85.549,4.803c0.524,0.425,1.1,0.75,1.624,1.024
			c-3.124,6.849-9.223,12.172-17.695,14.996c-0.024,0.226-0.175,0.476-0.35,0.575L67.778,19.449z"/>
		<path fill="#FFFFFF" d="M97.324,11.001c0,1.425-1.149,2.574-2.574,2.574s-2.574-1.149-2.574-2.574
			c0-1.424,1.149-2.574,2.574-2.574C96.224,8.427,97.324,9.626,97.324,11.001z"/>
		<path fill="#FFFFFF" d="M119.249,2.679c-0.05,0.125-0.175,0.226-0.325,0.274c-1.35,3.175-2.949,5.924-4.998,8.599
			c2.724,2.174,6.823,5.898,9.147,8.473l-1.524,1.324c-2.199-2.549-6.224-6.348-8.773-8.397c-2.198,2.675-5.998,6.323-9.622,8.397
			c-0.274-0.375-0.875-1-1.3-1.35C108.776,16.2,114.25,9.102,116.5,3.679h-12.272v-1.7h13.247l0.325-0.125L119.249,2.679z"/>
		<path fill="#FFFFFF" d="M146.823,10.852H138.1c-0.55,4.799-2.175,8.397-7.022,11.147c-0.375-0.4-0.976-0.875-1.399-1.2
			c4.499-2.449,6.123-5.548,6.648-9.947h-10.198V9.202h10.323c0.125-1.65,0.125-3.351,0.148-5.351
			c-2.549,0.575-5.849,1.125-8.598,1.426c-0.125-0.476-0.3-0.976-0.524-1.449c8.772-1.051,13.946-2.774,15.496-3.449l1.324,1.475
			c-0.1,0.051-0.2,0.075-0.325,0.075c-0.1,0-0.175,0-0.273-0.024c-1.399,0.524-3.624,1.175-5.6,1.649l0.824,0.074
			c-0.024,0.225-0.199,0.375-0.524,0.426c-0.024,1.874-0.05,3.573-0.149,5.148h8.573V10.852L146.823,10.852z"/>
		<path fill="#FFFFFF" d="M150.428,9.677h20.869v1.774h-19.92c-0.149,0.25-0.476,0.425-0.8,0.476L150.428,9.677z"/>
		<path fill="#FFFFFF" d="M180.902,4.028c-0.024,0.226-0.25,0.375-0.574,0.426c-0.15,6.724-0.7,12.847-4.55,17.32
			c-0.399-0.301-1-0.676-1.5-0.95c3.726-4.05,4.175-10.298,4.249-17.021L180.902,4.028z M187.375,18.425
			c4.175-2.025,6.874-5.674,8.323-10.048c0.375,0.325,1.125,0.75,1.55,0.975c-1.774,5.049-4.874,8.772-10.197,11.298
			c-0.075,0.199-0.25,0.399-0.425,0.5l-1.3-1.649l0.273-0.375V0.778l2.325,0.125c-0.025,0.227-0.2,0.427-0.551,0.477L187.375,18.425
			L187.375,18.425z"/>
		<path fill="#FFFFFF" d="M211.551,11.427V19.3h6.323v-6.249l2.199,0.149c-0.024,0.176-0.149,0.301-0.5,0.351v8.948h-1.699v-1.575
			h-14.121v1.7h-1.675v-9.573l2.175,0.149c-0.025,0.176-0.176,0.274-0.5,0.325V19.3h6.073v-7.873h-10.474v-1.65h10.474V4.228h-5.249
			c-0.851,1.95-1.899,3.675-3.05,4.949c-0.324-0.3-0.975-0.75-1.425-0.975c1.899-1.976,3.449-5.425,4.299-8.947l2.176,0.549
			c-0.051,0.176-0.227,0.275-0.525,0.275c-0.225,0.85-0.5,1.698-0.8,2.523h14.847v1.624h-8.548v5.549h10.622v1.65L211.551,11.427
			L211.551,11.427z"/>
	</g>
</g>
<g id="レイヤー_6" display="none">
	<g display="inline">
		<path fill="#FFFFFF" d="M33.217,19.351h-4.899v2.125h-1.475v-8.849c-0.525,1.125-1.15,2.124-1.825,2.999
			c-0.2-0.375-0.625-1.125-0.899-1.476c1.949-2.522,3.25-6.897,3.974-11.597h-3.324v-1.55h9.423v1.55h-4.499
			c-0.324,2.05-0.75,4.073-1.3,5.948h4.824L33.217,19.351L33.217,19.351z M31.717,17.851v-7.848h-3.399v7.848H31.717z M45.688,9.153
			l1.05,0.426c-0.05,0.148-0.125,0.225-0.199,0.3c-0.75,3.272-2.101,5.974-3.85,8.123c1.5,1.523,3.299,2.699,5.398,3.374
			c-0.4,0.325-0.851,0.95-1.101,1.374c-2.074-0.774-3.874-1.999-5.349-3.573c-1.475,1.524-3.148,2.699-4.949,3.549
			c-0.199-0.425-0.649-1.05-1-1.374c1.75-0.75,3.424-1.899,4.874-3.425c-1.425-1.874-2.523-4.124-3.299-6.624l1.399-0.374
			c0.649,2.149,1.625,4.149,2.949,5.823c1.325-1.674,2.374-3.699,3.024-6.023H36.64c-0.1,3.749-0.675,8.648-3.199,11.997
			c-0.25-0.325-0.925-0.874-1.273-1.05c2.599-3.499,2.874-8.423,2.874-12.021V3.079h5.249v-3.6l2.099,0.125
			c-0.024,0.176-0.149,0.301-0.5,0.351v3.124h4.949l0.899,0.051c0,0.149-0.649,3.199-1.375,5.174l-1.398-0.399
			c0.275-0.875,0.575-2.101,0.825-3.274H41.89v4.599h3.524L45.688,9.153z M40.29,4.629h-3.65v4.599h3.649L40.29,4.629L40.29,4.629z"
			/>
		<path fill="#FFFFFF" d="M59.116,2.354h-4.6c-0.325,2.074-0.725,4.124-1.25,6.049h4.824V19.1h-4.924v2.2h-1.5v-8.473
			c-0.399,0.85-0.851,1.625-1.351,2.323c-0.225-0.375-0.675-1.073-0.975-1.375c1.774-2.522,2.899-6.873,3.549-11.422h-3.199V0.781
			h9.423v1.573H59.116z M56.567,17.576V9.928h-3.398v7.648H56.567z M67.763,4.229h-3.147c-0.476,3.624-1.699,6.099-5.1,7.623
			c-0.2-0.375-0.649-0.925-0.975-1.199c2.924-1.274,4.048-3.3,4.523-6.424h-3.599V2.704h3.774c0.074-0.976,0.125-2.074,0.149-3.248
			l2.024,0.148c0,0.176-0.175,0.301-0.477,0.351c-0.023,0.976-0.073,1.898-0.148,2.749h4.549v5.499c0,0.773,0,0.925,0.575,0.925
			h0.823c0.926,0,0.926-0.074,1-2.774c0.301,0.25,0.801,0.524,1.199,0.649c-0.074,2.75-0.273,3.449-2.074,3.449h-1.273
			c-1.825,0-1.825-0.999-1.825-2.374V4.229z M66.764,10.178c-0.023,0.149-0.175,0.274-0.5,0.325v3.897h6.523v1.575h-6.523V22.7
			h-1.648v-6.725h-5.925v-1.575h5.925v-4.373L66.764,10.178z"/>
		<path fill="#FFFFFF" d="M79.492,9.478v8.248c1.948,3,5.647,3,9.946,3c2.875,0,6.374-0.075,8.449-0.2
			c-0.226,0.374-0.476,1.124-0.551,1.601c-1.726,0.05-4.498,0.1-7.023,0.1c-5.572,0-9.047,0-11.521-3.099
			c-1.101,1.125-2.275,2.225-3.199,3.099c0,0.2-0.051,0.274-0.225,0.375l-0.95-1.7c1.05-0.823,2.349-1.924,3.474-2.998v-6.823
			h-3.224V9.479L79.492,9.478L79.492,9.478z M76.168,0.08c1.524,1.2,3.225,2.949,3.949,4.224L78.718,5.28
			c-0.675-1.3-2.35-3.123-3.849-4.349L76.168,0.08z M97.513,14.151v1.351H80.617v-1.351h4.674v-2.499h-3.648v-1.35h3.648V8.304
			l2.1,0.149c-0.024,0.175-0.175,0.3-0.5,0.324v1.524h4.226V8.304l2.1,0.149c-0.025,0.175-0.176,0.3-0.5,0.351v1.499h3.773v1.35
			h-3.773v2.499L97.513,14.151L97.513,14.151z M86.015,3.479v-1.75h-5.049V0.505h6.523v4.199H83.04v1.375
			c0,0.475,0.125,0.573,0.926,0.573h2.85c0.601,0,0.726-0.149,0.773-1.299c0.301,0.226,0.875,0.375,1.275,0.476
			c-0.15,1.648-0.574,2.049-1.851,2.049H83.84c-1.775,0-2.25-0.324-2.25-1.774V3.479H86.015z M88.14,16.401
			c-0.125,0.199-0.325,0.226-0.524,0.176c-1.375,1.148-3.449,2.374-5.225,3.148c-0.273-0.301-0.8-0.774-1.148-1.024
			c1.75-0.675,3.823-1.824,5.099-3.023L88.14,16.401z M86.89,11.652v2.499h4.226v-2.499H86.89z M94.589,3.479v-1.75h-5.374V0.505
			h6.873v4.199h-4.723v1.375c0,0.475,0.148,0.573,1.049,0.573h3.125c0.648,0,0.773-0.149,0.823-1.398
			c0.325,0.2,0.9,0.375,1.301,0.476c-0.176,1.726-0.601,2.148-1.926,2.148h-3.448c-1.874,0-2.374-0.324-2.374-1.799V3.479H94.589z
			 M91.539,15.677c2.1,0.949,4.398,2.225,5.749,3.273l-1.649,0.774c-1.175-1.024-3.273-2.3-5.299-3.273L91.539,15.677z"/>
		<path fill="#FFFFFF" d="M109.741,11.853l0.351-0.024l0.874,0.1c0,0.176-0.024,0.352-0.024,0.551
			c-0.301,6.448-0.574,8.724-1.225,9.497c-0.551,0.625-0.975,0.7-2.775,0.7c-0.6,0-1.273,0-1.975-0.051
			c-0.049-0.476-0.225-1.101-0.449-1.499c1.274,0.125,2.524,0.125,2.949,0.125c0.449,0,0.675-0.05,0.875-0.274
			c0.475-0.5,0.75-2.449,0.975-7.599h-4.374c-0.574,3.425-1.699,6.998-4.249,9.271c-0.25-0.35-0.774-0.823-1.175-1.1
			c3.3-2.85,4.024-8.447,4.3-12.697h-2.85V0.63h9.947v8.223h-5.424c-0.101,0.927-0.176,1.95-0.324,3H109.741z M102.517,2.18v5.149
			h6.773V2.18H102.517z M113.615,2.531l2.125,0.125c-0.025,0.174-0.15,0.299-0.477,0.35v13.496h-1.648V2.531z M119.888-0.045
			l2.149,0.125c-0.024,0.2-0.149,0.3-0.476,0.351V20.4c0,1.2-0.351,1.726-1.1,1.999c-0.8,0.302-2.175,0.325-4.499,0.325
			c-0.101-0.45-0.375-1.225-0.65-1.7c0.927,0.025,1.775,0.025,2.476,0.025c2,0,2.1,0,2.1-0.649V-0.045z"/>
		<path fill="#FFFFFF" d="M142.888,20.175c-2.199,0.4-5.123,0.575-7.673,0.575c-2.05,0-3.849-0.125-4.823-0.325
			c-3.024-0.674-4.324-2.574-4.324-4.773c0-1.875,1.05-3.823,2.55-5.323l1.448,0.75c-1.397,1.425-2.198,3.05-2.198,4.424
			c0,1.475,0.975,2.774,3.125,3.273c0.85,0.176,2.299,0.275,3.998,0.275c2.425,0,5.374-0.2,7.772-0.675L142.888,20.175z
			 M131.666,7.578c1.301-1.024,3.074-2.225,4.424-2.899V4.655c-1.898,0.225-6.248,0.3-9.021,0.3c0-0.476,0-1.3-0.024-1.75h1.35
			c3.199,0,9.748-0.05,12.896-0.799l0.2,1.823c-0.825,0.125-1.426,0.25-2.624,0.75c-1.4,0.574-3.824,1.924-5.773,3.498
			L131.666,7.578z M142.863,11.128c-0.725-1.101-2.272-2.601-3.349-3.399l0.825-0.773c1.199,0.874,2.647,2.324,3.424,3.373
			L142.863,11.128z M145.488,8.753c-0.698-1-2.174-2.499-3.35-3.374l0.825-0.8c1.225,0.925,2.675,2.35,3.424,3.398L145.488,8.753z"
			/>
		<path fill="#FFFFFF" d="M168.863,6.704c-0.073,0.273-0.35,0.448-0.725,0.448c-0.273,1.726-0.675,3.55-1.1,5.101
			c1.35,0.574,2.773,1.225,4.198,1.949l-0.8,1.674c-1.35-0.674-2.648-1.324-3.924-1.874c-1.2,3.599-2.925,6.224-5.574,7.973
			c-0.35-0.35-0.975-0.773-1.425-1.05c2.625-1.725,4.249-4.074,5.399-7.648c-2.524-0.999-4.824-1.698-6.674-1.85
			c-1.726,6.299-3.274,7.949-6.273,7.949s-3.574-2.4-3.574-3.924c0-3.875,4.024-5.675,8.498-5.699c0.524-2,1-4.449,1.351-7.049
			c-1.176,0.101-5.175,0.375-7.073,0.5c-0.101,0.176-0.3,0.301-0.524,0.35l-0.226-2.022c2.148-0.075,6.799-0.375,8.298-0.525
			c0.275-0.025,0.375-0.15,0.55-0.275l1.55,0.927c-0.125,0.198-0.324,0.299-0.625,0.398c-0.398,2.774-0.999,5.648-1.549,7.798
			c1.924,0.15,4.225,0.825,6.724,1.775c0.425-1.5,0.8-3.425,1.074-5.449L168.863,6.704z M156.491,11.327
			c-3.6,0.051-6.474,1.475-6.474,4.125c0,1.397,0.675,2.349,1.851,2.349C153.692,17.801,154.891,17.176,156.491,11.327z"/>
	</g>
</g>
<g id="レイヤー_7" display="none">
	<g display="inline">
		<path fill="#FFFFFF" d="M58.508,10.964c0.875,0.825,3.174,3.324,3.725,3.975l-1.051,1.375c-0.5-0.801-1.699-2.35-2.674-3.523
			v9.598h-1.6V12.39c-0.976,2.549-2.274,5.123-3.55,6.673c-0.176-0.5-0.6-1.199-0.875-1.6c1.524-1.774,3.199-5.073,4.124-7.948h-3.8
			V7.94h4.101v-8.748l2.1,0.15c-0.025,0.174-0.176,0.274-0.5,0.324V7.94h3.725v1.574h-3.725V10.964z M54.209,0.991
			c0.773,1.699,1.375,3.925,1.5,5.35l-1.375,0.375c-0.101-1.45-0.676-3.699-1.4-5.398L54.209,0.991z M62.856,1.366
			c-0.05,0.149-0.225,0.25-0.523,0.25c-0.45,1.524-1.3,3.85-1.976,5.249c-0.274-0.101-0.925-0.351-1.175-0.426
			c0.649-1.475,1.425-3.948,1.825-5.647L62.856,1.366z M74.029,20.037h1.824v1.6H60.982v-1.6h2.699V0.392h10.348V20.037z
			 M72.354,1.991h-7.048V6.94h7.048V1.991z M72.354,13.438V8.49h-7.048v4.947H72.354z M65.306,14.989v5.049h7.048v-5.049H65.306z"/>
		<path fill="#FFFFFF" d="M100.404,8.265h-9.772c1.625,5.976,4.85,10.572,10.173,12.547c-0.425,0.375-0.976,1.075-1.25,1.575
			c-5.224-2.148-8.396-6.573-10.247-12.597c-1.149,4.948-3.875,9.848-10.322,12.621c-0.25-0.449-0.774-1.049-1.199-1.424
			c6.599-2.676,9.072-7.675,10.021-12.724H78.16V6.54h9.923c0.324-2.601,0.299-5.148,0.324-7.322l2.35,0.125
			c-0.025,0.225-0.225,0.35-0.55,0.424c-0.024,1.976-0.05,4.324-0.352,6.773h10.549L100.404,8.265L100.404,8.265z"/>
		<path fill="#FFFFFF" d="M120.954,19.888c-2.199,0.399-5.124,0.574-7.673,0.574c-2.051,0-3.851-0.125-4.824-0.324
			c-3.023-0.676-4.324-2.574-4.324-4.773c0-1.874,1.051-3.824,2.55-5.323l1.45,0.75c-1.4,1.424-2.199,3.049-2.199,4.424
			c0,1.475,0.976,2.773,3.123,3.273c0.852,0.176,2.3,0.274,4,0.274c2.424,0,5.373-0.2,7.772-0.675L120.954,19.888z M109.732,7.29
			c1.3-1.024,3.074-2.226,4.425-2.898V4.366c-1.9,0.225-6.248,0.3-9.023,0.3c0-0.477,0-1.3-0.024-1.749h1.351
			c3.199,0,9.747-0.051,12.896-0.801l0.2,1.823c-0.824,0.125-1.425,0.25-2.625,0.75c-1.397,0.575-3.823,1.926-5.772,3.5
			L109.732,7.29z M120.929,10.839c-0.725-1.1-2.275-2.599-3.35-3.398l0.823-0.774c1.2,0.875,2.65,2.324,3.426,3.375L120.929,10.839z
			 M123.553,8.465c-0.7-0.999-2.175-2.499-3.349-3.374l0.823-0.8c1.226,0.925,2.675,2.35,3.425,3.398L123.553,8.465z"/>
		<path fill="#FFFFFF" d="M146.928,6.415c-0.074,0.274-0.35,0.45-0.725,0.45c-0.274,1.725-0.676,3.55-1.101,5.099
			c1.351,0.575,2.774,1.225,4.199,1.949l-0.8,1.676c-1.351-0.676-2.649-1.325-3.924-1.875c-1.2,3.6-2.926,6.223-5.574,7.973
			c-0.351-0.35-0.976-0.773-1.425-1.049c2.625-1.725,4.249-4.074,5.398-7.647c-2.523-1-4.824-1.7-6.674-1.851
			c-1.725,6.299-3.274,7.947-6.272,7.947c-2.999,0-3.574-2.398-3.574-3.924c0-3.874,4.023-5.674,8.498-5.698
			c0.523-1.999,1-4.449,1.35-7.048c-1.175,0.1-5.174,0.375-7.073,0.5c-0.1,0.174-0.3,0.299-0.523,0.35l-0.227-2.024
			c2.149-0.074,6.8-0.375,8.298-0.524c0.275-0.024,0.375-0.149,0.551-0.274l1.55,0.925c-0.125,0.2-0.325,0.301-0.625,0.399
			c-0.399,2.774-0.999,5.648-1.549,7.799c1.924,0.149,4.224,0.824,6.723,1.773c0.425-1.499,0.8-3.424,1.075-5.448L146.928,6.415z
			 M134.556,11.04c-3.599,0.049-6.473,1.475-6.473,4.123c0,1.399,0.675,2.35,1.85,2.35C131.758,17.513,132.957,16.888,134.556,11.04
			z"/>
	</g>
</g>
<g id="レイヤー_9">
</g>
<g>
	<path fill="#FFFFFF" d="M32.839,6.201H19.947c-0.721,1.617-1.582,3.21-2.583,4.681h5.375V7.45l2.024,0.123
		c-0.023,0.172-0.14,0.294-0.465,0.344v2.965h7.26v8.085c0,1.912-0.931,1.961-4.933,1.912c-0.093-0.441-0.326-1.029-0.536-1.471
		c0.792,0.025,1.536,0.025,2.141,0.025h1.233c0.396-0.025,0.512-0.123,0.512-0.49v-6.469h-5.678v11.051H22.74V12.475h-5.212v8.699
		h-1.559v-8.43c-1.047,1.273-2.234,2.449-3.56,3.43c-0.209-0.393-0.652-1.029-0.954-1.396c2.909-2.107,5.143-5.22,6.725-8.577h-6.05
		V4.608h6.748c0.535-1.299,0.954-2.598,1.303-3.896l2.048,0.563c-0.093,0.171-0.256,0.27-0.559,0.27
		c-0.303,1.005-0.652,2.034-1.047,3.063h12.217V6.201z"/>
	<path fill="#FFFFFF" d="M38.312,11.984V8.112c-1.047,1.568-2.42,3.039-3.7,3.848c-0.209-0.318-0.628-0.834-0.931-1.104
		c1.466-0.809,3.072-2.45,4.095-4.092h-3.746V5.391h4.282V0.76l1.838,0.123c-0.023,0.146-0.139,0.27-0.442,0.318v4.189h4.235v1.373
		h-4.235v0.343c0.954,0.589,3.7,2.476,4.352,3.015l-0.861,1.201c-0.651-0.613-2.304-1.961-3.49-2.844v3.505H38.312z M39.662,16.248
		c-0.023,0.391-0.093,0.809-0.163,1.201c1.443,1.053,3.188,2.475,4.142,3.355l-1.047,1.129c-0.768-0.809-2.21-2.035-3.537-3.064
		c-0.675,1.52-1.978,2.99-4.491,4.191c-0.186-0.367-0.582-0.957-0.861-1.25c3.42-1.617,4.305-3.652,4.514-5.563h-4.212v-1.471h4.258
		v-2.254l1.885,0.121c-0.023,0.172-0.139,0.295-0.442,0.344v1.789h4.328v1.471H39.662z M35.682,1.52
		c0.628,0.857,1.21,2.059,1.419,2.843l-1.187,0.539c-0.209-0.81-0.768-2.034-1.373-2.94L35.682,1.52z M40.872,4.461
		c0.489-0.833,1.094-2.156,1.396-3.038l1.605,0.637c-0.07,0.146-0.232,0.195-0.465,0.195c-0.372,0.785-0.977,1.937-1.489,2.696
		L40.872,4.461z M48.62,20.194c-0.07,0.098-0.209,0.172-0.419,0.195c-0.931,1.078-2.932,2.402-4.677,3.137
		c-0.233-0.318-0.698-0.832-1.047-1.102c1.745-0.711,3.7-1.986,4.631-3.064L48.62,20.194z M44.921,5.931h3.165
		c0.209-0.784,0.419-1.716,0.582-2.524h-4.561V1.936h11.286v1.471h-5.119c-0.163,0.735-0.419,1.691-0.698,2.524h4.98v12.889h-9.634
		V5.931z M53.065,9.803V7.255h-6.702v2.549H53.065z M53.065,13.625v-2.548h-6.702v2.548H53.065z M53.065,17.498v-2.598h-6.702v2.598
		H53.065z M51.762,19.457c1.373,0.883,3.142,2.23,4.072,3.162c-0.14,0.098-0.279,0.195-1.233,0.906
		c-0.838-0.906-2.606-2.279-4.002-3.234L51.762,19.457z"/>
	<path fill="#FFFFFF" d="M63.261,12.106c0,1.396-1.07,2.525-2.397,2.525c-1.326,0-2.396-1.129-2.396-2.525
		c0-1.396,1.07-2.523,2.396-2.523C62.237,9.583,63.261,10.759,63.261,12.106z"/>
	<path fill="#FFFFFF" d="M69.64,17.596c1.978-0.367,4.212-0.809,6.399-1.227l0.093,1.422c-2.234,0.49-4.561,0.98-6.492,1.373v4.338
		h-1.489v-4.02l-1,0.221c-0.023,0.172-0.163,0.293-0.303,0.344l-0.628-1.863l1.931-0.318V2.673l1.164,0.416
		c2.024-0.662,4.212-1.52,5.445-2.353l1.512,1.274c-0.116,0.098-0.279,0.122-0.465,0.073c-1.489,0.809-3.933,1.69-6.167,2.328v2.94
		h5.585v1.568H69.64v3.211h5.794v1.542H69.64V17.596z M85.697,11.69l1.024,0.465c-0.046,0.123-0.116,0.197-0.209,0.246
		c-0.791,2.72-2.118,4.949-3.816,6.714c1.513,1.322,3.328,2.303,5.422,2.916c-0.349,0.367-0.791,1.004-1.024,1.445
		c-2.141-0.711-4.002-1.813-5.561-3.283c-1.722,1.494-3.77,2.598-5.911,3.332c-0.186-0.416-0.559-1.078-0.884-1.445
		c2.048-0.613,4.025-1.617,5.724-3.014c-1.303-1.545-2.327-3.357-3.048-5.441l1.141-0.342h-2.118v-1.52h8.982L85.697,11.69z
		 M79.297,3.26v2.254c0,2.034-0.442,4.51-2.722,6.15c-0.209-0.342-0.745-0.931-1.07-1.127c2.047-1.445,2.327-3.381,2.327-5.048v-3.7
		h6.911v6.15c0,0.785,0.023,0.956,0.535,0.956h0.745c0.838,0,0.838-0.099,0.908-2.769c0.279,0.27,0.814,0.514,1.21,0.637
		c-0.046,0.98-0.116,2.083-0.233,2.451c-0.232,0.637-0.721,1.028-1.745,1.028h-1.187c-1.722,0-1.722-1.078-1.722-2.45V3.26H79.297z
		 M78.809,13.283c0.651,1.787,1.582,3.381,2.769,4.729c1.28-1.322,2.304-2.891,3.001-4.729H78.809z"/>
	<path fill="#FFFFFF" d="M95.126,12.18c-1.047,2.867-2.583,5.39-4.375,7.253l-1.35-0.932c1.745-1.715,3.258-4.068,4.212-6.91
		L95.126,12.18z M100.106,8.406v11.59c0,2.672-1.792,2.672-5.515,2.672c-0.093-0.441-0.279-1.152-0.512-1.643
		c0.675,0.025,1.419,0.025,2.048,0.025h1.35c0.651,0,0.954-0.441,0.954-1.029V8.406h-7.912V6.764h7.912V1.667l2.211,0.123
		c-0.023,0.245-0.186,0.416-0.535,0.465v4.51h7.865v1.642H100.106z M104.271,11.421c1.699,1.984,3.653,4.851,4.91,7.13l-1.489,0.906
		c-1.14-2.254-3.188-5.391-4.747-7.277L104.271,11.421z M103.991,1.446c1.047,0.98,2.234,2.476,2.909,3.578l-0.884,0.711
		c-0.675-1.078-1.908-2.671-2.909-3.553L103.991,1.446z M107.343,0.344c1.07,1.004,2.28,2.475,2.932,3.553l-0.884,0.735
		c-0.675-1.079-1.932-2.622-2.909-3.554L107.343,0.344z"/>
	<path fill="#FFFFFF" d="M111.303,10.807h19.43v1.74h-18.546c-0.139,0.246-0.442,0.416-0.745,0.467L111.303,10.807z"/>
	<path fill="#FFFFFF" d="M138.511,5.269c-0.023,0.221-0.233,0.368-0.535,0.417c-0.14,6.592-0.652,12.595-4.235,16.982
		c-0.372-0.295-0.931-0.662-1.396-0.932c3.467-3.969,3.886-10.095,3.956-16.687L138.511,5.269z M144.538,19.385
		c3.885-1.986,6.398-5.563,7.748-9.851c0.35,0.318,1.047,0.734,1.443,0.955c-1.652,4.951-4.538,8.601-9.494,11.076
		c-0.07,0.197-0.232,0.393-0.396,0.49l-1.209-1.617l0.256-0.367V2.084l2.164,0.122c-0.023,0.221-0.187,0.417-0.512,0.467V19.385z"/>
	<path fill="#FFFFFF" d="M161.714,12.106c0,1.396-1.07,2.525-2.396,2.525s-2.396-1.129-2.396-2.525c0-1.396,1.07-2.523,2.396-2.523
		C160.691,9.583,161.714,10.759,161.714,12.106z"/>
	<path fill="#FFFFFF" d="M171.118,15.365c0.861,0.637,3.305,2.721,3.887,3.26l-0.932,1.25c-0.535-0.639-1.908-1.986-2.955-2.965
		v6.592h-1.535v-6.764c-1.117,1.936-2.561,3.748-3.863,4.826c-0.256-0.391-0.722-0.93-1.047-1.199
		c1.652-1.152,3.467-3.455,4.607-5.711h-4.165v-1.445h4.468v-2.597h-4.771V9.166h2.862c-0.116-1.054-0.513-2.598-1.001-3.774
		l1.257-0.367c0.535,1.226,0.978,2.818,1.094,3.872l-0.861,0.27h3.909c-0.303-0.122-0.628-0.245-0.651-0.245
		c0.466-1.078,1.023-2.793,1.303-3.97l1.769,0.588c-0.046,0.147-0.209,0.221-0.465,0.245c-0.326,0.956-0.885,2.377-1.35,3.382h3.397
		v1.446h-4.724c-0.07,0.024-0.14,0.049-0.233,0.049v2.548h4.607v1.445h-4.607V15.365z M175.586,3.481v1.421h-10.309V3.481h4.306
		V0.736l1.978,0.122c-0.023,0.172-0.14,0.295-0.442,0.344v2.279H175.586z M186.43,9.166v1.544h-2.746v12.792h-1.535V10.71h-3.677
		v0.906c0,3.675-0.442,8.529-3.793,11.935c-0.187-0.367-0.722-0.932-1.094-1.152c3.049-3.088,3.397-7.328,3.397-10.806V3.064
		l1.14,0.392c2.421-0.734,5.026-1.74,6.493-2.646l1.559,1.25c-0.069,0.073-0.232,0.123-0.488,0.073
		c-1.723,0.907-4.585,1.911-7.214,2.598v4.436H186.43z"/>
	<path fill="#FFFFFF" d="M196.58,9.877h-6.98v13.649h-1.536V1.814h8.517V9.877z M195.091,3.089H189.6v2.083h5.491V3.089z
		 M189.6,8.602h5.491V6.397H189.6V8.602z M203.585,12.596h-1.792v10.342h-1.442v-2.059c-3.096,0.246-6.19,0.441-8.168,0.564
		c-0.023,0.195-0.187,0.293-0.326,0.318l-0.419-1.643l2.142-0.098v-7.426h-1.839v-1.25h11.845V12.596z M200.351,14.19v-1.594h-5.376
		v1.594H200.351z M200.351,16.934v-1.643h-5.376v1.643H200.351z M194.975,18.037v1.91c1.652-0.072,3.514-0.172,5.376-0.293v-1.617
		H194.975z M207.494,1.814v19.458c0,2.107-0.931,2.205-4.468,2.205c-0.047-0.465-0.279-1.225-0.512-1.691
		c0.791,0.025,1.535,0.049,2.094,0.049c1.21,0,1.35,0,1.35-0.563V9.901h-7.19V1.814H207.494z M205.958,3.089h-5.678v2.083h5.678
		V3.089z M200.281,8.627h5.678V6.397h-5.678V8.627z"/>
	<path fill="#FFFFFF" d="M216.41,12.106c0,1.396-1.07,2.525-2.396,2.525s-2.396-1.129-2.396-2.525c0-1.396,1.07-2.523,2.396-2.523
		C215.387,9.583,216.41,10.759,216.41,12.106z"/>
	<path fill="#FFFFFF" d="M240.87,6.887h-9.773v5.537h7.098v11.003h-1.605v-1.225h-12.38v1.322h-1.536V12.425h6.795V6.887h-9.656
		V5.269h9.656V0.712l2.095,0.146c-0.023,0.172-0.14,0.295-0.466,0.344v4.067h9.773V6.887z M236.589,20.61v-6.617h-12.38v6.617
		H236.589z"/>
	<path fill="#FFFFFF" d="M250.067,14.213c-0.116-0.391-0.302-0.857-0.535-1.348l-2.536,0.148v10.488h-1.419V13.086
		c-1.327,0.049-2.537,0.123-3.491,0.146c-0.022,0.197-0.162,0.27-0.325,0.32l-0.419-1.838h1.722c0.512-0.638,1.07-1.372,1.605-2.157
		c-0.721-1.102-1.978-2.523-3.095-3.553l0.791-1.078c0.233,0.195,0.466,0.416,0.698,0.662c0.814-1.446,1.769-3.432,2.304-4.853
		l1.699,0.76c-0.094,0.147-0.233,0.196-0.489,0.196c-0.651,1.421-1.722,3.43-2.606,4.803c0.605,0.637,1.141,1.274,1.513,1.838
		c1.048-1.643,2.048-3.382,2.77-4.803l1.652,0.833c-0.094,0.122-0.279,0.196-0.535,0.196c-1.21,2.082-3.118,4.998-4.794,7.131
		l4.328-0.074c-0.442-0.832-0.954-1.69-1.466-2.426l1.187-0.588c1.094,1.544,2.257,3.627,2.699,4.974L250.067,14.213z
		 M244.575,15.317c-0.047,0.146-0.187,0.244-0.442,0.244c-0.325,2.084-0.86,4.436-1.582,5.883c-0.303-0.221-0.814-0.467-1.163-0.639
		c0.675-1.371,1.187-3.725,1.489-5.953L244.575,15.317z M249.555,19.899c-0.209-1.273-0.838-3.209-1.489-4.705l1.21-0.416
		c0.698,1.471,1.326,3.381,1.583,4.656L249.555,19.899z M263.238,11.788h-4.352c0.373,5.513,1.164,9.679,2.746,10.023h0.023
		c0.372,0,0.675-1.617,0.838-3.799c0.302,0.318,0.837,0.711,1.163,0.906c-0.303,3.211-1.023,4.607-2.024,4.607
		c-0.209,0-0.419-0.049-0.651-0.172c-2.234-0.711-3.118-5.293-3.537-11.566h-4.025v8.919c1.466-0.293,3.048-0.637,4.63-0.98
		l0.14,1.398c-2.605,0.637-5.328,1.273-7.073,1.641c-0.023,0.172-0.14,0.318-0.303,0.367l-0.722-1.789l1.839-0.342V3.04l1,0.367
		c3.002-0.686,6.307-1.715,8.168-2.671l1.466,1.299c-0.093,0.098-0.14,0.098-0.465,0.098c-0.838,0.368-1.862,0.735-3.002,1.103
		c-0.047,0.172-0.21,0.295-0.489,0.344c0.023,2.279,0.07,4.533,0.187,6.641h4.444V11.788z M253.418,10.219h3.933
		c-0.117-2.01-0.187-4.166-0.233-6.42c-1.21,0.343-2.489,0.661-3.699,0.906V10.219z"/>
</g>
</svg>
