<?xml version="1.0" encoding="utf-8"?>
<!-- Generator: Adobe Illustrator 14.0.0, SVG Export Plug-In . SVG Version: 6.00 Build 43363)  -->
<!DOCTYPE svg PUBLIC "-//W3C//DTD SVG 1.1//EN" "http://www.w3.org/Graphics/SVG/1.1/DTD/svg11.dtd">
<svg version="1.1" xmlns="http://www.w3.org/2000/svg" xmlns:xlink="http://www.w3.org/1999/xlink" x="0px" y="0px"
	 width="595.28px" height="841.89px" viewBox="0 0 595.28 841.89" enable-background="new 0 0 595.28 841.89" xml:space="preserve">
<g id="レイヤー_1" display="none">
	<path display="inline" fill="#F7F8F8" d="M245.793,428.876l-0.744,0.553c-0.528-1.104-1.417-2.832-2.304-4.369
		c-0.48,2.666-1.584,5.064-3.697,7.082l-0.648-0.625c2.952-2.783,3.816-6.359,3.816-10.44v-10.681h0.864v10.681
		c0,0.959-0.048,1.895-0.145,2.786C243.993,425.566,245.145,427.654,245.793,428.876z M240.657,414.98
		c-0.217,2.304-0.648,4.896-1.368,6.336l-0.769-0.24c0.792-1.464,1.248-3.984,1.393-6.192L240.657,414.98z M246.321,414.284
		c-0.504,1.56-1.319,3.792-2.184,5.737l-0.6-0.288c0.863-1.968,1.632-4.225,2.04-5.737L246.321,414.284z M248.265,426.716
		c-0.432,1.992-1.368,4.152-2.592,5.377l-0.768-0.432c1.271-1.201,2.184-3.266,2.567-5.16L248.265,426.716z M247.089,417.909
		c-0.168,0.312-0.384,0.6-0.576,0.864l-0.72-0.432c1.752-2.329,2.809-4.945,3.359-7.921l0.816,0.096
		c-0.144,0.792-0.336,1.536-0.552,2.28h2.855h0.145h0.12l0.575,0.096c-0.695,5.544-2.951,9.602-6.479,11.93l-0.624-0.625
		c1.656-1.031,3-2.447,4.056-4.201C249.273,419.301,248.29,418.604,247.089,417.909z M250.401,419.373
		c0.36-0.672,0.673-1.392,0.912-2.16c-0.744-0.624-1.704-1.2-2.88-1.776c-0.288,0.648-0.624,1.296-0.983,1.92
		C248.625,418.029,249.609,418.701,250.401,419.373z M251.554,416.493c0.264-0.912,0.48-1.896,0.648-2.929h-3.024
		c-0.144,0.432-0.312,0.864-0.479,1.272C249.826,415.388,250.786,415.94,251.554,416.493z M250.906,426.789
		c0.527,1.752,0.815,3.313,0.888,4.656l-0.888,0.168c-0.024-1.344-0.265-2.904-0.769-4.584L250.906,426.789z M260.626,424.269
		l-0.648,0.721c-1.655-1.271-2.855-3.625-3.552-7.489c-0.576,3.24-1.752,5.665-4.321,7.344l-0.647-0.625
		c2.809-1.799,3.913-4.487,4.345-8.255h-2.641v-0.816h2.735c0.12-1.44,0.192-3.024,0.217-4.752l0.84,0.024
		c-0.024,1.704-0.097,3.288-0.217,4.729h3.528v0.816H257C257.578,420.381,258.826,423.021,260.626,424.269z M254.266,426.742
		c0.816,1.727,1.32,3.264,1.561,4.607l-0.816,0.24c-0.216-1.344-0.696-2.904-1.44-4.584L254.266,426.742z M257.602,426.189
		c1.368,2.016,2.328,3.936,2.904,5.592l-0.84,0.313c-0.528-1.68-1.464-3.576-2.784-5.568L257.602,426.189z M258.346,410.756
		c0.912,1.032,1.561,2.016,1.944,2.952l-0.672,0.288c-0.385-0.912-0.984-1.872-1.824-2.904L258.346,410.756z"/>
	<path display="inline" fill="#F7F8F8" d="M269.193,418.437c-0.72-2.16-1.464-4.152-2.231-5.809l0.96-0.408
		c0.768,1.728,1.512,3.744,2.208,5.88c2.399-0.792,4.776-1.536,6.576-1.896c-0.648-1.44-1.969-3.577-2.929-4.705l0.841-0.456
		c1.031,1.224,2.399,3.6,3.048,4.993c0.384-0.048,0.72-0.072,1.032-0.072c3.647,0,5.521,1.584,5.521,4.92
		c0,2.736-1.848,4.561-5.208,4.561c-0.96,0-2.184-0.145-3.384-0.504l0.072-0.938c1.199,0.385,2.352,0.529,3.264,0.529
		c2.784,0,4.296-1.439,4.296-3.672c0-2.712-1.488-3.96-4.656-3.96c-1.656,0-4.873,0.936-8.185,2.088
		c1.368,4.175,2.544,8.689,3.216,12.312l-1.008,0.217c-0.624-3.576-1.8-8.088-3.12-12.217c-1.944,0.696-3.889,1.416-5.544,2.04
		l-0.336-0.96C265.281,419.805,267.249,419.109,269.193,418.437z"/>
	<path display="inline" fill="#F7F8F8" d="M289.425,416.108c0.792,0.024,1.632,0.048,2.568,0.048c2.52,0,5.424-0.096,8.208-0.313
		c-0.527-1.536-0.937-3.144-1.151-4.656l1.008-0.12c0.192,1.512,0.576,3.121,1.128,4.705c2.545-0.192,4.945-0.48,6.745-0.864
		l0.192,0.912c-1.801,0.36-4.129,0.624-6.625,0.84c1.08,2.88,2.616,5.543,4.344,7.202l-0.744,0.84
		c-2.903-1.176-5.688-1.824-8.544-1.824c-3.072,0-4.777,1.416-4.777,3.527c0,2.809,2.856,4.129,8.497,4.129
		c0.962,0,2.018-0.047,3.146-0.119l-0.023,0.936c-1.079,0.096-2.137,0.119-3.071,0.119c-6.361,0-9.529-1.752-9.529-5.135
		c0-2.617,2.28-4.322,5.617-4.322c2.76,0,5.4,0.553,7.873,1.441c-1.368-1.441-2.762-3.96-3.77-6.722
		c-2.928,0.216-6,0.312-8.712,0.312c-0.816,0-1.632,0-2.376-0.024v-0.913H289.425z"/>
	<path display="inline" fill="#F7F8F8" d="M318.369,414.788c0.384-1.416,0.672-2.736,0.863-3.84l1.009,0.12
		c-0.192,1.08-0.48,2.353-0.864,3.72h4.705v0.912h-4.969c-1.152,3.913-2.93,8.377-4.873,11.184l-0.889-0.525
		c1.92-2.664,3.624-6.89,4.729-10.658h-4.2v-0.912L318.369,414.788L318.369,414.788z M328.186,418.269
		c-0.022,0.504-0.022,1.368-0.022,2.328c0,1.584,0,3.576,0.022,5.064c1.656,0.672,3.289,1.656,4.584,2.688l-0.622,0.721
		c-1.152-0.984-2.546-1.85-3.962-2.473v0.936c0,2.496-1.319,3.865-4.176,3.865c-2.713,0-4.537-1.537-4.537-3.289
		c0-2.016,1.729-3.336,4.537-3.336c1.031,0,2.137,0.191,3.217,0.553c0-1.441,0-3.24,0-4.729c0-0.96,0-1.824,0-2.328L328.186,418.269
		L328.186,418.269z M324.01,425.613c-2.305,0-3.673,0.961-3.673,2.496c0,1.32,1.632,2.424,3.601,2.424c2.28,0,3.313-0.982,3.313-3
		c0-0.313,0-0.768,0-1.32C326.147,425.83,325.041,425.613,324.01,425.613z M332.746,417.909c-1.368-1.008-4.104-2.568-5.977-3.312
		l0.479-0.792c1.992,0.864,4.512,2.28,6,3.312L332.746,417.909z"/>
	<path display="inline" fill="#F7F8F8" d="M340.041,414.116c-0.145,1.848-0.217,3.696-0.217,5.208c0,5.953,2.328,9.914,4.177,9.914
		c1.224,0,2.208-1.992,2.929-4.752l0.863,0.359c-0.936,3.336-2.064,5.447-3.744,5.447c-2.399,0-5.208-4.344-5.208-10.92
		c0-1.56,0.048-3.432,0.168-5.328L340.041,414.116z M353.074,413.708c3.384,3.265,4.632,7.153,4.774,12.385l-1.056,0.098
		c-0.071-5.065-1.319-8.906-4.513-11.882L353.074,413.708z"/>
</g>
<g id="レイヤー_2" display="none">
	<g display="inline">
		<path fill="#FFFFFF" d="M216.055,414.439h15.896l0.15-0.075l1.7,1.3c-0.075,0.1-0.15,0.175-0.3,0.225
			c-2.025,9.398-6.374,14.296-14.022,17.196c-0.275-0.45-0.774-1.101-1.125-1.476c7.273-2.674,11.472-7.322,13.097-15.445h-15.396
			V414.439z M235.1,409.965c1.5,0,2.724,1.225,2.724,2.75c0,1.5-1.225,2.724-2.724,2.724c-1.525,0-2.75-1.225-2.75-2.724
			C232.351,411.14,233.626,409.965,235.1,409.965z M237,412.714c0-1.075-0.85-1.925-1.899-1.925s-1.925,0.85-1.925,1.925
			c0,1.05,0.875,1.924,1.925,1.924C236.2,414.639,237,413.714,237,412.714z"/>
		<path fill="#FFFFFF" d="M258.475,419.538c-0.05,0.1-0.175,0.2-0.325,0.25c-2.049,7.548-6.223,11.222-13.696,13.297
			c-0.225-0.45-0.7-1.075-1.05-1.45c6.798-1.699,11.022-5.198,12.597-10.997h-16.546v-1.7h17.296l0.25-0.15L258.475,419.538z
			 M256.126,414.189h-14.247v-1.65h14.247V414.189z"/>
		<path fill="#FFFFFF" d="M274.377,426.011c0.6,1.174,1.399,2.199,2.375,3.074c1.625-0.775,3.624-1.925,4.824-2.799l1.5,1.1
			c-0.1,0.125-0.325,0.174-0.55,0.125c-1.225,0.749-3.124,1.725-4.699,2.449c1.799,1.299,4.049,2.174,6.698,2.648
			c-0.35,0.325-0.75,0.95-0.975,1.375c-5.149-1.074-8.798-3.674-10.723-7.848c-1.024,0.799-2.299,1.549-3.674,2.225l0.375,0.074
			c-0.025,0.15-0.175,0.275-0.5,0.301v3.049c1.949-0.2,4.099-0.45,6.198-0.699l0.05,1.299c-3.474,0.475-7.148,0.925-9.448,1.199
			c-0.025,0.201-0.15,0.326-0.325,0.375l-0.75-1.725l2.649-0.274v-2.849c-1.725,0.699-3.549,1.273-5.224,1.648
			c-0.2-0.375-0.625-0.975-0.975-1.273c3.25-0.625,7.023-1.9,9.523-3.475h-9.123v-1.4h10.373v-1.874l2.199,0.149
			c-0.025,0.176-0.175,0.301-0.5,0.351v1.374h10.498v1.4H274.377z M267.254,418.138v-1.424h-5.749v-1.275h5.749v-1.674h-3.074
			c-0.325,0.6-0.65,1.149-0.975,1.6c-0.275-0.175-0.775-0.45-1.149-0.6c0.75-0.975,1.424-2.5,1.875-3.974l1.674,0.525
			c-0.075,0.175-0.25,0.225-0.475,0.2c-0.125,0.325-0.25,0.675-0.4,1.024h2.524v-1.849l1.949,0.125
			c-0.025,0.175-0.15,0.3-0.475,0.35v1.375h4.599v1.225h-4.599v1.674h5.573v1.275h-5.573v1.424h4.749v3.149
			c0,1.4-0.775,1.425-2.999,1.425c-0.075-0.375-0.325-0.825-0.475-1.15h1.35c0.575,0,0.625,0,0.625-0.275v-1.975h-3.249v4.199
			h-1.475v-4.199h-3.074v3.525h-1.375v-4.7H267.254z M277.677,411.989c-0.025,0.15-0.15,0.275-0.475,0.325v8.473h-1.549v-8.948
			L277.677,411.989z M283.625,411.064c-0.025,0.175-0.15,0.3-0.475,0.35v10.073c0,1.699-0.475,1.849-4.524,1.849
			c-0.075-0.425-0.325-1.024-0.55-1.425c0.825,0.025,1.6,0.051,2.174,0.051c1.2,0,1.35,0,1.35-0.475v-10.523L283.625,411.064z"/>
		<path fill="#FFFFFF" d="M290.905,426.511c-1.175,0.75-2.399,1.449-3.624,2.049c-0.225-0.399-0.649-1.024-0.975-1.375
			c4.324-1.999,8.647-5.423,10.647-8.373l2.475,0.15c-0.05,0.175-0.25,0.3-0.5,0.325c2.424,2.874,6.898,5.999,10.747,7.599
			c-0.375,0.399-0.8,1.024-1.074,1.499c-1.2-0.575-2.475-1.274-3.725-2.074v7.522h-1.699v-0.774h-10.623v0.899h-1.649V426.511z
			 M289.055,414.789v2.924h-1.624v-4.474h9.522v-2.549l2.225,0.15c-0.025,0.175-0.175,0.3-0.5,0.325v2.075h9.673v4.474h-1.7v-2.924
			H289.055z M295.604,416.888c-0.101,0.15-0.275,0.225-0.55,0.225c-1.625,1.924-4.149,3.924-6.424,5.173
			c-0.25-0.324-0.774-0.95-1.1-1.225c2.175-1.125,4.648-2.999,6.148-4.924L295.604,416.888z M303.626,425.486
			c-2.274-1.574-4.398-3.35-5.773-5.023c-1.225,1.6-3.174,3.398-5.448,5.023H303.626z M292.554,431.535h10.623v-4.523h-10.623
			V431.535z M306.825,422.237c-1.374-1.475-4.248-3.649-6.623-5.124l1.125-1c2.374,1.4,5.299,3.499,6.748,4.974L306.825,422.237z"/>
		<path fill="#FFFFFF" d="M334.225,422.312h-7.298c1.975,1.824,5.023,3.324,7.998,4.049c-0.375,0.35-0.825,0.949-1.074,1.375
			c-0.601-0.176-1.175-0.35-1.775-0.575v6.749h-1.549v-0.9h-4.924v1h-1.5v-8.248h5.023c-1.674-0.949-3.174-2.15-4.299-3.449h-3.898
			c-1.2,1.324-2.675,2.475-4.399,3.449h5.099v8.148h-1.574v-0.9h-4.824v1h-1.499v-6.898c-0.55,0.225-1.101,0.449-1.675,0.65
			c-0.2-0.351-0.725-0.976-1.05-1.25c3.049-1.025,5.674-2.425,7.648-4.199h-7.099v-1.525h8.548c0.524-0.625,0.95-1.299,1.324-2
			h-8.048v-6.923h8.123v6.773l0.226-0.5l1.999,0.575c-0.05,0.15-0.25,0.25-0.575,0.275c-0.3,0.625-0.624,1.225-1.024,1.799h12.097
			V422.312z M319.879,417.388v-4.124h-4.949v4.124H319.879z M320.054,431.535v-4.299h-4.824v4.299H320.054z M332.526,411.864v6.923
			h-8.173v-6.923H332.526z M325.603,431.535h4.924v-4.299h-4.924V431.535z M330.901,417.388v-4.124h-4.998v4.124H330.901z"/>
		<path fill="#FFFFFF" d="M341.504,430.735c0,1.05,0.525,1.3,3.274,1.3h9.873c2.324,0,2.699-0.55,2.924-3.5
			c0.45,0.25,1.15,0.525,1.625,0.601c-0.35,3.624-1.05,4.499-4.549,4.499h-9.748c-3.898,0-5.049-0.525-5.049-2.875v-6.598h8.848
			v-4.549h-8.572v-1.199c-0.85,1.149-1.75,2.174-2.675,3.049c-0.3-0.325-0.925-0.85-1.35-1.125c2.524-2.2,4.974-5.974,6.424-9.772
			l2.1,0.7c-0.05,0.175-0.275,0.275-0.55,0.25c-0.301,0.725-0.65,1.475-1.025,2.199h13.622l0.949,0.05
			c-0.199,1.375-0.05,11.847-1.324,13.372c-0.524,0.699-1.075,0.85-2.824,0.85c-0.65,0-1.425-0.025-2.225-0.075
			c-0.025-0.5-0.2-1.175-0.475-1.6c1.374,0.101,2.624,0.125,3.099,0.125c0.45,0,0.726-0.05,0.925-0.325
			c0.575-0.675,0.825-3.324,1.05-10.772h-13.696c-0.55,0.95-1.125,1.875-1.75,2.725h9.998v7.623h-8.898V430.735z"/>
		<path fill="#FFFFFF" d="M374.378,425.636c0.675,1.199,1.549,2.299,2.599,3.225c1.524-0.726,3.425-1.85,4.549-2.699l1.5,1.1
			c-0.1,0.125-0.3,0.174-0.525,0.125c-1.149,0.674-2.974,1.648-4.474,2.349c1.825,1.351,4.049,2.35,6.549,2.899
			c-0.351,0.35-0.775,0.975-0.975,1.4c-4.949-1.301-8.773-4.225-10.873-8.398h-0.05c-1.024,0.925-2.324,1.799-3.749,2.574l0.525,0.1
			c-0.025,0.176-0.176,0.301-0.5,0.35v3l6.473-0.8l0.051,1.3c-3.824,0.55-7.924,1.125-10.473,1.449c0,0.2-0.15,0.301-0.325,0.35
			l-0.649-1.725c0.949-0.1,2.074-0.225,3.299-0.375v-2.849c-1.699,0.8-3.499,1.425-5.148,1.85c-0.226-0.399-0.65-0.975-0.975-1.274
			c3.199-0.725,6.897-2.199,9.322-3.949h-8.973v-1.375h10.422v-2.225l2.175,0.15c-0.024,0.175-0.149,0.3-0.475,0.35v1.725h10.547
			v1.375H374.378z M361.281,419.763c1.325-0.45,3.175-1.175,5.1-1.925l0.3,1.3c-1.625,0.675-3.25,1.35-4.324,1.774
			c0,0.2-0.1,0.325-0.25,0.4L361.281,419.763z M363.08,412.264c1.125,0.725,2.499,1.8,3.124,2.625l-1.024,1.025
			c-0.625-0.8-1.975-1.95-3.1-2.725L363.08,412.264z M369.204,410.84c-0.025,0.15-0.15,0.275-0.5,0.325v11.423h-1.575V410.69
			L369.204,410.84z M376.227,420.188v-4.349h-6.273v-1.375h6.273v-3.774l2.175,0.15c-0.025,0.175-0.175,0.3-0.5,0.35v3.274h6.398
			v1.375h-6.398v4.349h5.599v1.375h-12.747v-1.375H376.227z"/>
	</g>
</g>
<g id="レイヤー_3">
	<g>
		<path fill="#FFFFFF" d="M238.807,423.687c1.899-2,5.849-6.398,7.273-7.923c0.649-0.65,1.299-0.95,1.949-0.95
			c0.675,0,1.35,0.35,2.024,0.95c3.225,2.949,8.423,8.723,12.197,13.622l-1.5,1.375c-3.549-4.924-8.773-10.848-11.572-13.447
			c-0.425-0.4-0.75-0.625-1.075-0.625c-0.325,0-0.625,0.25-1.025,0.625c-1.175,1.274-4.824,5.473-6.499,7.273
			c0.025,0.05,0.025,0.125,0.025,0.175c0,0.2-0.1,0.4-0.25,0.525L238.807,423.687z M257.753,411.015c1.525,0,2.774,1.25,2.774,2.799
			c0,1.549-1.25,2.799-2.774,2.799c-1.575,0-2.824-1.25-2.824-2.799C254.928,412.215,256.228,411.015,257.753,411.015z
			 M259.702,413.814c0-1.1-0.875-2-1.95-2c-1.1,0-2,0.899-2,2c0,1.075,0.9,1.974,2,1.974
			C258.878,415.789,259.702,414.839,259.702,413.814z"/>
		<path fill="#FFFFFF" d="M266.656,418.038c0.75,1.525,1.575,3.924,1.875,5.374l-1.399,0.375c-0.3-1.449-1.075-3.724-1.825-5.324
			L266.656,418.038z M281.578,418.213c-0.05,0.225-0.3,0.275-0.525,0.25c-1.949,7.298-5.624,11.773-11.672,14.222
			c-0.2-0.301-0.65-0.875-0.975-1.15c5.974-2.35,9.398-6.448,11.223-13.896L281.578,418.213z M272.73,416.838
			c0.525,1.675,1,4.074,1.175,5.674l-1.475,0.274c-0.15-1.599-0.625-3.898-1.175-5.623L272.73,416.838z"/>
		<path fill="#FFFFFF" d="M299.803,424.636c-2.549-1.375-6.049-2.999-8.773-4.074v12.498h-1.875v-21.72l2.524,0.15
			c-0.025,0.275-0.225,0.45-0.65,0.525v7.298l0.375-0.525c2.924,1.075,6.798,2.799,9.397,4.174L299.803,424.636z"/>
		<path fill="#FFFFFF" d="M311.556,422.312c-1.125,2.924-2.773,5.499-4.699,7.398l-1.449-0.949c1.875-1.75,3.5-4.149,4.523-7.049
			L311.556,422.312z M316.906,418.463v11.822c0,2.725-1.926,2.725-5.924,2.725c-0.101-0.449-0.301-1.174-0.551-1.674
			c0.725,0.024,1.525,0.024,2.199,0.024h1.45c0.7,0,1.024-0.45,1.024-1.05v-11.847h-8.498v-1.674h8.498v-5.199l2.375,0.125
			c-0.025,0.25-0.2,0.425-0.574,0.475v4.599h8.447v1.674H316.906z M321.378,421.538c1.824,2.024,3.924,4.948,5.273,7.272l-1.6,0.926
			c-1.225-2.3-3.424-5.499-5.098-7.424L321.378,421.538z M321.079,411.365c1.125,1,2.398,2.524,3.123,3.649l-0.949,0.725
			c-0.725-1.1-2.049-2.724-3.125-3.624L321.079,411.365z M324.677,410.24c1.15,1.024,2.451,2.524,3.15,3.624l-0.949,0.75
			c-0.727-1.1-2.076-2.674-3.125-3.625L324.677,410.24z"/>
		<path fill="#FFFFFF" d="M344.552,424.636c-2.549-1.375-6.047-2.999-8.771-4.074v12.498h-1.875v-21.72l2.523,0.15
			c-0.023,0.275-0.225,0.45-0.648,0.525v7.298l0.375-0.525c2.924,1.075,6.797,2.799,9.396,4.174L344.552,424.636z"/>
		<path fill="#FFFFFF" d="M355.906,415.264c-0.025,0.225-0.25,0.375-0.574,0.425c-0.15,6.723-0.701,12.847-4.549,17.32
			c-0.4-0.3-1-0.675-1.5-0.949c3.725-4.049,4.174-10.298,4.248-17.021L355.906,415.264z M362.378,429.66
			c4.176-2.023,6.875-5.673,8.324-10.047c0.375,0.325,1.125,0.75,1.549,0.975c-1.773,5.049-4.873,8.773-10.197,11.297
			c-0.074,0.201-0.25,0.4-0.424,0.5l-1.301-1.649l0.275-0.374v-18.346l2.324,0.125c-0.025,0.225-0.199,0.425-0.551,0.475V429.66z"/>
	</g>
</g>
<g id="レイヤー_4">
</g>
<g id="レイヤー_5">
</g>
<g id="レイヤー_6">
</g>
</svg>
