<?xml version="1.0" encoding="utf-8"?>
<!-- Generator: Adobe Illustrator 14.0.0, SVG Export Plug-In . SVG Version: 6.00 Build 43363)  -->
<!DOCTYPE svg PUBLIC "-//W3C//DTD SVG 1.1 Tiny//EN" "http://www.w3.org/Graphics/SVG/1.1/DTD/svg11-tiny.dtd">
<svg version="1.1" baseProfile="tiny" xmlns="http://www.w3.org/2000/svg" xmlns:xlink="http://www.w3.org/1999/xlink" x="0px"
	 y="0px" width="133.445px" height="22.819px" viewBox="10.457 -0.62 133.445 22.819" xml:space="preserve">
<g id="レイヤー_1" display="none">
	<path display="inline" fill="#F7F9F9" d="M7.669,19.107L6.925,19.66c-0.527-1.104-1.417-2.832-2.304-4.369
		c-0.479,2.666-1.584,5.064-3.697,7.082l-0.647-0.625c2.952-2.783,3.815-6.359,3.815-10.44V0.627h0.864v10.681
		c0,0.959-0.049,1.895-0.145,2.786C5.869,15.797,7.021,17.885,7.669,19.107z M2.533,5.211c-0.217,2.304-0.648,4.896-1.368,6.336
		l-0.769-0.24c0.792-1.464,1.248-3.984,1.393-6.192L2.533,5.211z M8.196,4.515c-0.504,1.56-1.319,3.792-2.184,5.737L5.412,9.964
		c0.863-1.968,1.632-4.225,2.04-5.737L8.196,4.515z M10.141,16.947c-0.433,1.992-1.368,4.152-2.593,5.377L6.78,21.893
		c1.271-1.201,2.185-3.264,2.568-5.16L10.141,16.947z M8.965,8.14c-0.168,0.312-0.384,0.6-0.575,0.864L7.669,8.572
		c1.752-2.329,2.81-4.945,3.359-7.921l0.815,0.096c-0.144,0.792-0.336,1.536-0.552,2.28h2.855h0.145h0.12l0.575,0.096
		c-0.695,5.544-2.951,9.602-6.479,11.93l-0.624-0.625c1.656-1.031,3-2.447,4.057-4.201C11.148,9.532,10.166,8.835,8.965,8.14z
		 M12.276,9.604c0.359-0.672,0.672-1.392,0.912-2.16c-0.744-0.624-1.704-1.2-2.88-1.776c-0.288,0.648-0.624,1.296-0.983,1.92
		C10.501,8.26,11.484,8.932,12.276,9.604z M13.43,6.724c0.264-0.912,0.479-1.896,0.647-2.929h-3.023
		c-0.145,0.432-0.313,0.864-0.48,1.272C11.702,5.619,12.662,6.171,13.43,6.724z M12.781,17.02c0.528,1.752,0.816,3.313,0.889,4.656
		l-0.889,0.168c-0.023-1.344-0.264-2.904-0.768-4.584L12.781,17.02z M22.502,14.5l-0.647,0.721
		c-1.656-1.271-2.855-3.625-3.553-7.489c-0.575,3.24-1.752,5.665-4.32,7.344l-0.647-0.625c2.81-1.799,3.913-4.487,4.346-8.255
		h-2.642V5.38h2.735c0.12-1.44,0.191-3.024,0.216-4.752l0.841,0.024c-0.023,1.704-0.097,3.288-0.217,4.729h3.528v0.816h-3.266
		C19.454,10.612,20.702,13.252,22.502,14.5z M16.142,16.973c0.815,1.728,1.319,3.265,1.561,4.607l-0.815,0.24
		c-0.217-1.344-0.696-2.904-1.44-4.584L16.142,16.973z M19.478,16.42c1.368,2.016,2.328,3.936,2.903,5.592l-0.84,0.313
		c-0.527-1.68-1.464-3.576-2.784-5.568L19.478,16.42z M20.222,0.987c0.911,1.032,1.56,2.016,1.943,2.952l-0.672,0.288
		c-0.385-0.912-0.984-1.872-1.824-2.904L20.222,0.987z"/>
	<path display="inline" fill="#F7F9F9" d="M31.068,8.668c-0.72-2.16-1.464-4.152-2.231-5.809l0.96-0.408
		c0.769,1.728,1.513,3.744,2.208,5.88c2.399-0.792,4.775-1.536,6.576-1.896c-0.647-1.44-1.969-3.577-2.929-4.705l0.841-0.456
		c1.031,1.224,2.399,3.6,3.048,4.993c0.384-0.048,0.72-0.072,1.031-0.072c3.648,0,5.521,1.584,5.521,4.92
		c0,2.736-1.848,4.561-5.208,4.561c-0.96,0-2.184-0.145-3.384-0.504l0.071-0.938c1.2,0.385,2.353,0.529,3.265,0.529
		c2.784,0,4.296-1.439,4.296-3.673c0-2.712-1.487-3.96-4.655-3.96c-1.656,0-4.873,0.936-8.186,2.088
		c1.368,4.176,2.544,8.689,3.216,12.313L34.5,21.748c-0.624-3.576-1.8-8.088-3.12-12.217c-1.943,0.696-3.89,1.416-5.544,2.04
		l-0.336-0.96C27.156,10.036,29.125,9.34,31.068,8.668z"/>
	<path display="inline" fill="#F7F9F9" d="M51.301,6.339c0.792,0.024,1.633,0.048,2.568,0.048c2.521,0,5.424-0.096,8.207-0.312
		c-0.526-1.536-0.936-3.144-1.15-4.656l1.009-0.12c0.19,1.512,0.575,3.121,1.128,4.705c2.545-0.192,4.944-0.48,6.745-0.864
		l0.19,0.912c-1.801,0.36-4.129,0.624-6.625,0.84c1.08,2.88,2.616,5.543,4.345,7.202l-0.743,0.84
		c-2.904-1.176-5.688-1.824-8.544-1.824c-3.072,0-4.777,1.416-4.777,3.527c0,2.81,2.855,4.129,8.497,4.129
		c0.961,0,2.017-0.047,3.145-0.119l-0.021,0.937c-1.08,0.096-2.138,0.119-3.072,0.119c-6.36,0-9.528-1.752-9.528-5.136
		c0-2.616,2.279-4.321,5.617-4.321c2.76,0,5.4,0.553,7.872,1.44c-1.368-1.44-2.761-3.959-3.769-6.722
		c-2.929,0.216-6,0.312-8.712,0.312c-0.816,0-1.633,0-2.376-0.024V6.339H51.301z"/>
	<path display="inline" fill="#F7F9F9" d="M80.244,5.019c0.385-1.416,0.672-2.736,0.863-3.84l1.009,0.12
		c-0.191,1.08-0.479,2.353-0.863,3.72h4.704v0.912h-4.969c-1.151,3.913-2.929,8.377-4.873,11.184l-0.888-0.525
		c1.92-2.664,3.624-6.89,4.729-10.658h-4.199V5.02L80.244,5.019L80.244,5.019z M90.062,8.5c-0.023,0.504-0.023,1.368-0.023,2.328
		c0,1.584,0,3.576,0.023,5.064c1.655,0.672,3.289,1.655,4.584,2.688l-0.623,0.721c-1.152-0.984-2.545-1.85-3.961-2.473v0.936
		c0,2.496-1.32,3.865-4.177,3.865c-2.713,0-4.536-1.537-4.536-3.289c0-2.016,1.729-3.336,4.536-3.336
		c1.031,0,2.137,0.191,3.217,0.553c0-1.44,0-3.24,0-4.729c0-0.96,0-1.824,0-2.328H90.062L90.062,8.5z M85.885,15.844
		c-2.306,0-3.673,0.961-3.673,2.496c0,1.32,1.633,2.424,3.602,2.424c2.279,0,3.312-0.981,3.312-3c0-0.312,0-0.768,0-1.32
		C88.021,16.061,86.916,15.844,85.885,15.844z M94.621,8.14c-1.367-1.008-4.104-2.568-5.977-3.312l0.479-0.792
		c1.992,0.864,4.513,2.28,6,3.312L94.621,8.14z"/>
	<path display="inline" fill="#F7F9F9" d="M101.916,4.347c-0.145,1.848-0.217,3.696-0.217,5.208c0,5.953,2.328,9.914,4.177,9.914
		c1.226,0,2.209-1.992,2.931-4.752l0.862,0.359c-0.937,3.336-2.063,5.447-3.744,5.447c-2.399,0-5.208-4.345-5.208-10.92
		c0-1.56,0.049-3.432,0.168-5.328L101.916,4.347z M114.949,3.939c3.384,3.265,4.632,7.153,4.775,12.385l-1.057,0.098
		c-0.07-5.065-1.318-8.906-4.514-11.882L114.949,3.939z"/>
</g>
<g id="レイヤー_2" display="none">
	<g display="inline">
		<path fill="#FFFFFF" d="M-7.377,2.604H8.519l0.15-0.075l1.7,1.3c-0.075,0.1-0.15,0.175-0.3,0.225
			C8.044,13.451,3.696,18.35-3.953,21.248c-0.275-0.449-0.774-1.1-1.125-1.475C2.196,17.1,6.395,12.451,8.019,4.329H-7.377V2.604z
			 M11.669-1.871c1.5,0,2.724,1.225,2.724,2.75c0,1.5-1.225,2.725-2.724,2.725c-1.525,0-2.75-1.225-2.75-2.725
			C8.919-0.695,10.194-1.871,11.669-1.871z M13.568,0.879c0-1.074-0.85-1.925-1.899-1.925S9.744-0.195,9.744,0.879
			c0,1.05,0.875,1.924,1.925,1.924C12.768,2.803,13.568,1.879,13.568,0.879z"/>
		<path fill="#FFFFFF" d="M35.044,7.703c-0.05,0.101-0.175,0.2-0.325,0.25c-2.049,7.547-6.223,11.221-13.696,13.295
			c-0.225-0.449-0.7-1.074-1.05-1.449C26.771,18.1,30.994,14.6,32.569,8.802H16.023v-1.7h17.296l0.25-0.149L35.044,7.703z
			 M32.694,2.354H18.448v-1.65h14.247V2.354z"/>
		<path fill="#FFFFFF" d="M50.946,14.176c0.6,1.174,1.399,2.199,2.374,3.074c1.625-0.775,3.625-1.926,4.824-2.799l1.5,1.1
			c-0.101,0.125-0.325,0.174-0.551,0.125c-1.225,0.748-3.123,1.725-4.698,2.449c1.8,1.299,4.049,2.174,6.698,2.648
			c-0.349,0.324-0.75,0.949-0.974,1.375c-5.148-1.074-8.798-3.674-10.723-7.848c-1.024,0.799-2.299,1.549-3.674,2.225l0.375,0.074
			c-0.025,0.15-0.176,0.275-0.5,0.301v3.049c1.949-0.201,4.1-0.451,6.198-0.699l0.05,1.299c-3.474,0.475-7.148,0.924-9.447,1.199
			c-0.025,0.201-0.15,0.326-0.325,0.375l-0.75-1.725l2.649-0.275v-2.848c-1.724,0.699-3.549,1.273-5.224,1.648
			c-0.2-0.375-0.625-0.975-0.975-1.273c3.25-0.625,7.023-1.9,9.522-3.475h-9.123v-1.4h10.373v-1.874l2.199,0.15
			c-0.025,0.176-0.175,0.301-0.5,0.35v1.374h10.499v1.4H50.946z M43.823,6.303V4.878h-5.749V3.604h5.749V1.929h-3.074
			c-0.325,0.6-0.65,1.149-0.975,1.6c-0.275-0.175-0.775-0.45-1.149-0.601c0.75-0.975,1.424-2.499,1.875-3.974l1.674,0.524
			c-0.075,0.176-0.25,0.226-0.475,0.201c-0.125,0.324-0.25,0.674-0.4,1.023h2.524v-1.849l1.949,0.124
			c-0.024,0.176-0.149,0.301-0.475,0.351v1.374h4.599v1.226h-4.599v1.675h5.573v1.274h-5.573v1.425h4.749v3.148
			c0,1.401-0.775,1.426-3,1.426c-0.074-0.375-0.324-0.826-0.475-1.151h1.35c0.575,0,0.625,0,0.625-0.275V7.477h-3.249v4.2h-1.475
			v-4.2h-3.074v3.526h-1.375v-4.7H43.823z M54.245,0.155c-0.025,0.149-0.15,0.274-0.476,0.324v8.473h-1.55V0.004L54.245,0.155z
			 M60.193-0.771c-0.024,0.176-0.149,0.301-0.475,0.351V9.653c0,1.7-0.475,1.848-4.523,1.848c-0.075-0.424-0.325-1.024-0.55-1.424
			c0.825,0.025,1.6,0.051,2.175,0.051c1.199,0,1.35,0,1.35-0.475V-0.871L60.193-0.771z"/>
		<path fill="#FFFFFF" d="M67.472,14.676c-1.175,0.75-2.399,1.449-3.624,2.049c-0.225-0.4-0.648-1.025-0.975-1.375
			c4.325-2,8.647-5.422,10.647-8.373l2.476,0.15c-0.051,0.176-0.25,0.301-0.5,0.325c2.424,2.874,6.897,5.999,10.747,7.598
			c-0.375,0.398-0.801,1.023-1.074,1.498c-1.201-0.574-2.475-1.273-3.726-2.074v7.523h-1.699v-0.775H69.123v0.9h-1.65V14.676z
			 M65.624,2.954v2.924h-1.625V1.405h9.522v-2.55l2.226,0.149c-0.025,0.176-0.176,0.301-0.5,0.325v2.075h9.673v4.473h-1.701V2.954
			H65.624z M72.173,5.053c-0.102,0.15-0.276,0.225-0.55,0.225c-1.625,1.925-4.15,3.924-6.425,5.174
			c-0.25-0.324-0.773-0.949-1.1-1.225c2.176-1.125,4.649-2.999,6.149-4.924L72.173,5.053z M80.194,13.65
			c-2.273-1.574-4.398-3.349-5.773-5.023c-1.224,1.6-3.173,3.398-5.448,5.023H80.194z M69.123,19.699h10.622v-4.523H69.123V19.699z
			 M83.394,10.402c-1.375-1.475-4.249-3.649-6.624-5.124l1.125-1c2.375,1.4,5.3,3.5,6.749,4.975L83.394,10.402z"/>
		<path fill="#FFFFFF" d="M110.793,10.477h-7.297c1.975,1.824,5.023,3.324,7.998,4.048c-0.375,0.35-0.826,0.949-1.074,1.375
			c-0.602-0.176-1.176-0.35-1.775-0.576v6.75h-1.549v-0.9h-4.924v1h-1.5v-8.248h5.023c-1.674-0.949-3.174-2.15-4.299-3.449h-3.898
			c-1.201,1.324-2.676,2.474-4.4,3.449h5.1v8.148h-1.574v-0.9h-4.824v1h-1.5v-6.898c-0.549,0.225-1.1,0.449-1.674,0.65
			c-0.201-0.352-0.725-0.977-1.051-1.25c3.049-1.025,5.674-2.426,7.648-4.199h-7.098V8.952h8.547
			c0.525-0.624,0.951-1.299,1.324-1.999h-8.047V0.03h8.123v6.773l0.225-0.5l2,0.574c-0.051,0.15-0.25,0.25-0.576,0.275
			c-0.299,0.625-0.623,1.225-1.023,1.799h12.096V10.477z M96.447,5.553V1.429h-4.949v4.124H96.447z M96.623,19.699V15.4h-4.824
			v4.299H96.623z M109.094,0.03v6.923h-8.172V0.03H109.094z M102.172,19.699h4.924V15.4h-4.924V19.699z M107.469,5.553V1.429h-4.998
			v4.124H107.469z"/>
		<path fill="#FFFFFF" d="M118.072,18.898c0,1.051,0.525,1.301,3.275,1.301h9.873c2.324,0,2.699-0.551,2.924-3.5
			c0.449,0.25,1.15,0.525,1.625,0.6c-0.35,3.625-1.051,4.5-4.549,4.5h-9.748c-3.898,0-5.049-0.525-5.049-2.875v-6.598h8.848V7.778
			h-8.572V6.579c-0.85,1.148-1.75,2.174-2.676,3.049c-0.299-0.325-0.924-0.85-1.35-1.125c2.525-2.199,4.975-5.974,6.424-9.772
			l2.1,0.7c-0.049,0.174-0.275,0.274-0.549,0.25c-0.301,0.725-0.65,1.475-1.025,2.199h13.621l0.949,0.05
			c-0.199,1.374-0.049,11.846-1.324,13.372c-0.523,0.699-1.074,0.85-2.824,0.85c-0.65,0-1.424-0.025-2.225-0.076
			c-0.025-0.5-0.199-1.174-0.475-1.6c1.375,0.102,2.625,0.125,3.1,0.125c0.449,0,0.725-0.049,0.924-0.324
			c0.576-0.676,0.826-3.323,1.051-10.772h-13.697c-0.549,0.95-1.125,1.874-1.75,2.725h9.998v7.622h-8.898V18.898z"/>
		<path fill="#FFFFFF" d="M150.947,13.801c0.674,1.199,1.549,2.299,2.598,3.225c1.525-0.727,3.426-1.85,4.549-2.699l1.5,1.1
			c-0.1,0.125-0.299,0.174-0.525,0.125c-1.148,0.674-2.973,1.648-4.473,2.348c1.824,1.352,4.049,2.35,6.549,2.9
			c-0.352,0.35-0.775,0.975-0.975,1.4c-4.949-1.301-8.773-4.225-10.873-8.398h-0.051c-1.023,0.924-2.324,1.799-3.748,2.574
			l0.525,0.1c-0.025,0.176-0.176,0.301-0.5,0.35v3l6.473-0.801l0.051,1.301c-3.824,0.549-7.924,1.125-10.473,1.449
			c0,0.199-0.15,0.301-0.326,0.35l-0.648-1.725c0.949-0.1,2.074-0.225,3.299-0.375v-2.85c-1.699,0.801-3.5,1.426-5.148,1.85
			c-0.227-0.398-0.65-0.975-0.975-1.273c3.199-0.725,6.896-2.199,9.322-3.949h-8.973v-1.375h10.422v-2.224l2.174,0.15
			c-0.023,0.175-0.148,0.3-0.475,0.35v1.724h10.547v1.375H150.947z M137.849,7.928c1.324-0.451,3.174-1.176,5.1-1.926l0.299,1.301
			c-1.625,0.674-3.25,1.35-4.324,1.773c0,0.201-0.1,0.326-0.25,0.4L137.849,7.928z M139.648,0.429c1.125,0.726,2.5,1.8,3.125,2.624
			l-1.025,1.025c-0.625-0.8-1.975-1.949-3.1-2.725L139.648,0.429z M145.773-0.996c-0.025,0.15-0.15,0.275-0.5,0.325v11.423h-1.576
			V-1.145L145.773-0.996z M152.795,8.352V4.003h-6.273V2.629h6.273v-3.774l2.176,0.149c-0.025,0.176-0.176,0.301-0.5,0.35v3.275
			h6.398v1.374h-6.398v4.349h5.598v1.375h-12.746V8.352H152.795z"/>
	</g>
</g>
<g id="レイヤー_3">
	<g>
		<path fill="#FFFFFF" d="M10.457,12.826c1.899-2,5.849-6.398,7.273-7.923c0.649-0.649,1.299-0.949,1.949-0.949
			c0.675,0,1.35,0.35,2.024,0.949c3.225,2.949,8.423,8.724,12.197,13.623l-1.5,1.375C28.853,14.977,23.629,9.052,20.83,6.454
			c-0.425-0.4-0.75-0.625-1.075-0.625c-0.325,0-0.625,0.25-1.025,0.625c-1.175,1.273-4.824,5.473-6.499,7.273
			c0.025,0.049,0.025,0.125,0.025,0.174c0,0.201-0.1,0.4-0.25,0.525L10.457,12.826z M29.403,0.155c1.525,0,2.774,1.25,2.774,2.799
			c0,1.55-1.25,2.8-2.774,2.8c-1.575,0-2.824-1.25-2.824-2.8C26.578,1.354,27.878,0.155,29.403,0.155z M31.352,2.954
			c0-1.1-0.875-1.999-1.95-1.999c-1.1,0-2,0.899-2,1.999c0,1.075,0.9,1.975,2,1.975C30.528,4.928,31.352,3.979,31.352,2.954z"/>
		<path fill="#FFFFFF" d="M38.306,7.178c0.75,1.524,1.575,3.924,1.875,5.373l-1.399,0.375c-0.3-1.449-1.075-3.724-1.825-5.324
			L38.306,7.178z M53.227,7.353c-0.049,0.225-0.299,0.274-0.524,0.249c-1.949,7.298-5.624,11.773-11.672,14.222
			c-0.2-0.301-0.65-0.875-0.975-1.15c5.974-2.35,9.398-6.447,11.222-13.896L53.227,7.353z M44.38,5.978
			c0.525,1.675,1,4.074,1.175,5.674l-1.475,0.274c-0.15-1.6-0.625-3.898-1.175-5.623L44.38,5.978z"/>
		<path fill="#FFFFFF" d="M71.453,13.775c-2.55-1.375-6.049-2.999-8.772-4.074v12.498h-1.875V0.479l2.524,0.15
			c-0.024,0.275-0.226,0.45-0.649,0.525v7.298l0.375-0.524c2.924,1.074,6.798,2.799,9.396,4.173L71.453,13.775z"/>
		<path fill="#FFFFFF" d="M83.206,11.452c-1.125,2.923-2.773,5.5-4.699,7.398L77.057,17.9c1.875-1.75,3.5-4.148,4.523-7.048
			L83.206,11.452z M88.555,7.602v11.822c0,2.725-1.926,2.725-5.924,2.725c-0.101-0.449-0.301-1.174-0.551-1.674
			C82.805,20.5,83.606,20.5,84.28,20.5h1.45c0.7,0,1.024-0.451,1.024-1.051V7.602h-8.498V5.928h8.498V0.729l2.375,0.125
			c-0.025,0.25-0.2,0.426-0.574,0.475v4.6h8.447v1.674H88.555z M93.028,10.677c1.824,2.024,3.924,4.948,5.273,7.272l-1.6,0.926
			c-1.225-2.299-3.424-5.498-5.098-7.423L93.028,10.677z M92.729,0.504c1.125,1,2.398,2.524,3.123,3.649l-0.949,0.725
			c-0.725-1.1-2.049-2.724-3.125-3.624L92.729,0.504z M96.327-0.621c1.15,1.025,2.451,2.525,3.15,3.625l-0.949,0.75
			c-0.727-1.101-2.076-2.675-3.125-3.625L96.327-0.621z"/>
		<path fill="#FFFFFF" d="M116.202,13.775c-2.549-1.375-6.047-2.999-8.771-4.074v12.498h-1.875V0.479l2.523,0.15
			c-0.023,0.275-0.225,0.45-0.648,0.525v7.298l0.375-0.524c2.924,1.074,6.797,2.799,9.396,4.173L116.202,13.775z"/>
		<path fill="#FFFFFF" d="M127.555,4.403c-0.025,0.226-0.25,0.375-0.574,0.426c-0.15,6.723-0.701,12.847-4.549,17.32
			c-0.4-0.299-1-0.674-1.5-0.949c3.725-4.049,4.174-10.297,4.248-17.021L127.555,4.403z M134.028,18.799
			c4.176-2.023,6.875-5.672,8.324-10.046c0.375,0.325,1.125,0.75,1.549,0.975c-1.773,5.048-4.873,8.773-10.197,11.296
			c-0.074,0.201-0.25,0.4-0.424,0.5l-1.301-1.648l0.275-0.375V1.155l2.324,0.125c-0.025,0.225-0.199,0.424-0.551,0.475V18.799z"/>
	</g>
</g>
<g id="レイヤー_4">
</g>
<g id="レイヤー_5">
</g>
<g id="レイヤー_6">
</g>
<g id="レイヤー_7">
</g>
<g id="レイヤー_8">
</g>
<g id="レイヤー_9">
</g>
</svg>
